<?xml version="1.0" encoding="UTF-8" standalone="no"?>
<!-- Created with Inkscape (http://www.inkscape.org/) -->

<svg
   xmlns:dc="http://purl.org/dc/elements/1.1/"
   xmlns:cc="http://creativecommons.org/ns#"
   xmlns:rdf="http://www.w3.org/1999/02/22-rdf-syntax-ns#"
   xmlns:svg="http://www.w3.org/2000/svg"
   xmlns="http://www.w3.org/2000/svg"
   xmlns:sodipodi="http://sodipodi.sourceforge.net/DTD/sodipodi-0.dtd"
   xmlns:inkscape="http://www.inkscape.org/namespaces/inkscape"
   id="svg2211"
   sodipodi:version="0.32"
   inkscape:version="0.48.4 r9939"
   width="46.100796"
   height="47.304371"
   version="1.0"
   sodipodi:docname="Evil_Eye.svg"
   inkscape:output_extension="org.inkscape.output.svg.inkscape"
   sodipodi:modified="TRUE">
  <metadata
     id="metadata2216">
    <rdf:RDF>
      <cc:Work
         rdf:about="">
        <dc:format>image/svg+xml</dc:format>
        <dc:type
           rdf:resource="http://purl.org/dc/dcmitype/StillImage" />
      </cc:Work>
    </rdf:RDF>
  </metadata>
  <defs
     id="defs2214" />
  <sodipodi:namedview
     inkscape:window-height="1056"
     inkscape:window-width="1855"
     inkscape:pageshadow="2"
     inkscape:pageopacity="0.0"
     guidetolerance="10.0"
     gridtolerance="10.0"
     objecttolerance="10.0"
     borderopacity="1.0"
     bordercolor="#666666"
     pagecolor="#ffffff"
     id="base"
     inkscape:zoom="6.8545455"
     inkscape:cx="-3.1671091"
     inkscape:cy="27.576006"
     inkscape:window-x="65"
     inkscape:window-y="24"
     inkscape:current-layer="g2220"
     showgrid="false"
     inkscape:window-maximized="1"
     fit-margin-top="0"
     fit-margin-left="0"
     fit-margin-right="0"
     fit-margin-bottom="0" />
  <g
     id="g2220"
     transform="translate(-3.2824941,-6.7655862)">
    <g
       id="g3799">
      <path
         inkscape:export-ydpi="699.90997"
         inkscape:export-xdpi="699.90997"
         inkscape:export-filename="D:\tmp\path2238.png"
         sodipodi:nodetypes="csssc"
         id="path2249-4"
         d="m 49.383289,30.580573 c 0,13.284258 -10.776847,23.489385 -23.142971,23.489385 -12.366119,0 -22.9578239,-9.43673 -22.9578239,-22.720988 0,-13.284257 9.7852009,-24.5833838 22.1513209,-24.5833838 12.366118,0 23.949474,10.5307298 23.949474,23.8149868 z"
         style="fill:#0000a6;fill-opacity:1;fill-rule:nonzero;stroke:none"
         inkscape:connector-curvature="0" />
      <path
         inkscape:export-ydpi="699.90997"
         inkscape:export-xdpi="699.90997"
         inkscape:export-filename="D:\tmp\path2238.png"
         sodipodi:nodetypes="csssc"
         id="path2247"
         d="m 42.891248,28.792205 c 0,9.427786 -7.624047,16.670326 -16.372423,16.670326 -8.748374,0 -18.0633012,-8.377252 -17.1886733,-17.760981 0.9168563,-9.836782 7.7387593,-15.538086 16.4871343,-15.538086 8.748374,0 17.073962,7.200955 17.073962,16.628741 z"
         style="fill:#ffffff;fill-opacity:1;fill-rule:nonzero;stroke:none"
         inkscape:connector-curvature="0" />
      <path
         inkscape:export-ydpi="699.90997"
         inkscape:export-xdpi="699.90997"
         inkscape:export-filename="D:\tmp\path2238.png"
         sodipodi:nodetypes="csssc"
         id="path2249"
         d="m 36.83687,30.487686 c 0,5.704958 -4.876864,10.087576 -10.472926,10.087576 -5.596062,0 -10.389143,-4.052628 -10.389143,-9.757586 0,-5.704958 4.428113,-10.557396 10.024174,-10.557396 5.59606,0 10.837895,4.522448 10.837895,10.227406 z"
         style="fill:#009dff;fill-opacity:1;fill-rule:nonzero;stroke:none"
         inkscape:connector-curvature="0" />
      <path
         inkscape:export-ydpi="699.90997"
         inkscape:export-xdpi="699.90997"
         inkscape:export-filename="D:\tmp\path2238.png"
         sodipodi:nodetypes="csssc"
         id="path2251"
         d="m 29.761275,28.840234 c 0,2.222578 -1.960147,3.929988 -4.209361,3.929988 -2.249213,0 -4.175685,-1.578851 -4.175685,-3.801427 0,-2.222578 1.779781,-4.113025 4.028995,-4.113025 2.249212,0 4.356051,1.761887 4.356051,3.984464 z"
         style="fill:#00005c;fill-opacity:1;fill-rule:nonzero;stroke:none"
         inkscape:connector-curvature="0" />
    </g>
  </g>
</svg>
