<?xml version="1.0" standalone="no"?>
<!DOCTYPE svg PUBLIC "-//W3C//DTD SVG 1.1//EN" "http://www.w3.org/Graphics/SVG/1.1/DTD/svg11.dtd" >
<svg>
<metadata>
Created by FontForge 20120731 at Sat Nov  8 21:59:13 2014
 By Orthosie Webhosting
Copyright (c) 2010 by Peter Wiegel.   Open Font under Terms of following Free Software Licenses:
GPL (General Public License) with font-exception and OFL (Open Font License
</metadata>
<defs>
<font id="EricaTypeRegular" horiz-adv-x="1233" >
  <font-face 
    font-family="EricaTypeRegular"
    font-weight="400"
    font-stretch="normal"
    units-per-em="2048"
    panose-1="2 0 5 9 0 2 2 2 2 3"
    ascent="1638"
    descent="-410"
    x-height="863"
    cap-height="1265"
    bbox="-68 -465 3236 1831"
    underline-thickness="0"
    underline-position="0"
    unicode-range="U+0020-20AC"
  />
<missing-glyph horiz-adv-x="2048" 
 />
    <glyph glyph-name=".notdef" horiz-adv-x="2048" 
 />
    <glyph glyph-name=".null" horiz-adv-x="0" 
 />
    <glyph glyph-name="nonmarkingreturn" horiz-adv-x="2048" 
 />
    <glyph glyph-name="space" unicode=" " 
 />
    <glyph glyph-name="exclam" unicode="!" 
d="M724 1183l-43 -727q-5 -62 -58 -62q-35 0 -52.5 14t-19.5 48l-42 727v9q0 20 7 39t20.5 33.5t33.5 23t46 8.5t46 -8.5t34 -23t21 -33t7 -39.5v-9zM616 249q26 0 49 -10t40 -27t27 -40t10 -49q0 -24 -9.5 -46.5t-26 -39.5t-39.5 -27.5t-51 -10.5q-27 0 -49.5 10
t-39.5 27.5t-26.5 40t-9.5 46.5q0 53 37 89l5 5q35 32 83 32z" />
    <glyph glyph-name="quotedbl" unicode="&#x22;" 
d="M517 1194l-43 -507q-6 -61 -60 -61q-67 0 -70 62l-43 506v8q0 38 28 66t80 28t80 -28t28 -66v-8zM932 1194l-44 -507q-6 -61 -60 -61q-65 0 -70 62l-42 506q-1 4 -1 12q0 18 7 34t21 28.5t34 20t46 7.5q52 0 80.5 -28t28.5 -66v-8z" />
    <glyph glyph-name="numbersign" unicode="#" 
d="M235 260q-65 0 -65 66q0 65 65 65h136l29 198h-165q-65 0 -65 65t65 65h184l22 152q9 65 74 65t56 -65l-22 -152h198l22 152q9 65 74 65q66 0 57 -65l-22 -152h120q65 0 65 -65t-65 -65h-139l-29 -198h168q65 0 65 -65q0 -66 -65 -66h-187l-22 -152q-9 -65 -75 -65
q-65 0 -56 65l22 152h-198l-22 -152q-9 -65 -74 -65t-56 65l22 152h-117zM501 391h198l29 198h-198z" />
    <glyph glyph-name="dollar" unicode="$" 
d="M924 1229q19 38 51 38q16 0 29.5 -5.5t23.5 -14.5t15.5 -19.5t5.5 -20.5q0 -17 -9 -36q-15 -30 -23 -64.5t-7 -72.5q0 -31 5.5 -69.5t16.5 -85.5q1 -5 1.5 -10t0.5 -10q0 -26 -18.5 -42.5t-54.5 -16.5q-15 0 -24.5 4t-15.5 12.5t-10.5 20.5t-9.5 29q-49 201 -192 252
v-385q66 -15 121 -41q78 -35 133 -86t84.5 -116t29.5 -140q0 -80 -29 -150t-81.5 -122t-124.5 -82q-63 -26 -135 -29q-9 -45 -63 -45q-60 0 -66 53q-57 11 -107 32q-93 42 -153 127q-5 -30 -11.5 -63t-16.5 -60.5t-25 -45.5t-37 -18q-35 0 -53.5 18.5t-18.5 41.5q0 14 4 27
q20 57 29.5 123.5t9.5 147.5q0 30 -1 63t-3 69h1v8q0 29 18.5 45.5t54.5 16.5q46 0 55 -53q19 -93 49 -160.5t73.5 -111t101.5 -64.5q15 -5 30 -9v516q-62 13 -114 32q-75 27 -128.5 69.5t-82 100.5t-28.5 135q0 68 26 124t75 95.5t119 61.5q63 20 141 22q16 27 58 27
q49 0 61 -38q30 -6 59 -17q74 -27 131 -84q7 32 29 76zM790 115q48 19 82.5 52t54 79.5t19.5 103.5q0 50 -21.5 93.5t-61.5 77.5t-98 58q-27 11 -56 20v-502q43 4 81 18zM420 1089q-65 -45 -65 -127q0 -47 17 -81.5t53.5 -60.5t93.5 -45q27 -8 59 -16v375q-99 -4 -158 -45z
" />
    <glyph glyph-name="uni0025" unicode="%" 
d="M620 1127q9 -36 9 -71q0 -68 -28 -132t-79 -121l-3 -3h1h-1q-60 -66 -130.5 -102.5t-142.5 -36.5q-74 0 -129 49h-2q-1 0 -1 3v-1q-63 58 -63 154q0 49 15 97.5t42 93t63.5 82.5t78.5 66t88.5 44t92.5 16q61 0 111 -32l476 246q19 9 36 9q10 0 20.5 -5t19.5 -14
t14.5 -21.5t5.5 -27.5q0 -16 -9 -32l-887 -1496q-21 -36 -51 -36q-14 0 -27 6t-23 15.5t-16.5 20.5t-6.5 22q0 17 12 38l771 1301zM483 1113q-14 10 -22.5 16t-29.5 6q-43 0 -87.5 -24.5t-80.5 -63.5t-59 -86.5t-23 -92.5q0 -35 17.5 -55.5t52.5 -20.5q42 0 86 25t79.5 63.5
t58.5 85.5t23 91q0 35 -15 56zM1118 625l1 -2q62 -59 62 -154q0 -75 -35 -147t-90 -128t-123.5 -90t-135.5 -34q-75 0 -128 49q-3 0 -3 3l-1 1q-63 57 -63 151q0 137 107 259l4 4q57 63 126.5 100.5t143.5 37.5q75 0 131 -48l3 -3zM1031 527q-9 9 -22 13t-28 4
q-42 0 -86 -25t-80 -64t-59 -86t-23 -91q0 -33 17 -55t50 -22q45 0 91.5 27t84.5 71h1q35 42 54 85.5t19 85.5q0 37 -19 57z" />
    <glyph glyph-name="ampersand" unicode="&#x26;" 
d="M1125 662q5 -17 5 -28q0 -23 -20 -41t-56 -18q-38 0 -53 48q-7 20 -22 34t-36 14q-34 0 -56 -31.5t-40 -82t-35.5 -112.5t-41.5 -122q24 -33 48 -66.5t48 -60t48.5 -43.5t50.5 -17q25 5 44.5 29.5t34.5 65.5q16 44 55 44q35 0 54 -19.5t19 -40.5q0 -7 -1 -13.5t-4 -14.5
q-33 -91 -87 -136.5t-121 -45.5q-61 0 -118 37.5t-104 104.5q-9 13 -17 22.5t-13 17.5q-25 -41 -55.5 -75t-68.5 -59t-84.5 -38.5t-104.5 -13.5q-92 0 -155.5 23t-103.5 65.5t-57.5 102.5t-17.5 134q0 75 18.5 137t53 115t83.5 100t111 93q-98 181 -98 282q0 47 17.5 86
t49.5 67t76.5 43.5t99.5 15.5q57 0 102.5 -15t76.5 -43t47.5 -66.5t16.5 -86.5q0 -93 -54.5 -174t-159.5 -150q4 -9 9 -17t11 -17q36 -60 76 -120t82 -120q21 67 35.5 114.5t29.5 82t34.5 60.5t51.5 49q54 39 115 39q31 0 59.5 -10t52 -28.5t41.5 -44t28 -56.5zM406 131
q39 1 71 15.5t58.5 38.5t47.5 55.5t39 67.5q-60 85 -118.5 173t-112.5 176q-56 -42 -94 -82t-62 -80.5t-34.5 -82.5t-10.5 -89q0 -53 10 -90t33 -59.5t60.5 -32.5t92.5 -10h20zM436 843q77 52 112.5 105.5t35.5 113.5q-2 39 -31 56t-82 17q-54 0 -83 -19.5t-29 -64.5
q0 -65 77 -208z" />
    <glyph glyph-name="quotesingle" unicode="'" 
d="M724 1194l-43 -507q-6 -61 -60 -61q-67 0 -70 62l-43 506v8q0 38 28 66t80 28t80 -28t28 -66v-8z" />
    <glyph glyph-name="parenleft" unicode="(" 
d="M758 1459q23 20 44 20q11 0 23 -6.5t22 -17t16.5 -23t6.5 -24.5q0 -23 -26 -46q-83 -71 -148 -159t-110.5 -184t-69.5 -195t-24 -192q0 -97 22 -202t65.5 -204.5t108.5 -186t151 -146.5q15 -11 22.5 -24t7.5 -27t-6 -26.5t-16 -23t-21.5 -16.5t-21.5 -6q-21 0 -41 16
q-95 67 -166.5 155t-124.5 200q-58 121 -84 248t-26 242q0 112 27.5 225.5t79 221t125 205t164.5 176.5z" />
    <glyph glyph-name="parenright" unicode=")" 
d="M388 1362q-25 22 -25 47q0 12 6 24t16 22.5t21.5 17t22.5 6.5q20 0 45 -20q93 -83 166.5 -182.5t124.5 -207t78 -219t27 -219.5q0 -114 -27 -241.5t-83 -248.5q-52 -112 -124.5 -200t-166.5 -155q-22 -16 -43 -16q-11 0 -22 6.5t-20 16.5t-14.5 23t-5.5 26t7 26.5
t22 24.5q79 57 141 131.5t108 172.5q52 110 75 224t23 217q0 93 -25 191.5t-71 193.5t-111 182t-145 157z" />
    <glyph glyph-name="asterisk" unicode="*" 
d="M508 716l22 183l-149 -110l-2 -2q-16 -9 -36 0.5t-37 37.5q-16 29 -14 51t18 31l2 1l170 73l-171 74l-2 2q-16 9 -18.5 31t14.5 51q16 28 36.5 37t35.5 0l3 -1l149 -111l-21 185v3q0 18 18 31t51 13t51 -13t18 -31v-3l-22 -185l149 112l3 1q16 9 36 0t37 -38
q16 -28 14 -50t-18 -31l-2 -2l-172 -74l171 -73l3 -1q15 -9 17.5 -31t-14.5 -51q-16 -29 -36.5 -38t-35.5 0l-3 2l-148 110l21 -184v-3q0 -18 -18 -31t-51 -13t-51 13t-18 31v3z" />
    <glyph glyph-name="plus" unicode="+" 
d="M551 859q0 66 66 66q64 0 64 -66v-348h349q66 0 66 -66q0 -65 -66 -65h-349v-349q0 -65 -64 -65q-66 0 -66 65v349h-349q-65 0 -65 65q0 66 65 66h349v348z" />
    <glyph glyph-name="comma" unicode="," 
d="M762 281q14 -35 23.5 -72.5t9.5 -76.5q0 -67 -20.5 -127t-57 -108t-85.5 -81.5t-106 -47.5q-13 -4 -26 -4q-23 0 -40 18.5t-17 55.5q0 20 7.5 29.5t21 16t32.5 12.5t41 19q35 20 61 50.5t42 75.5q3 10 4 11q-30 -6 -46 -6q-34 0 -64.5 13t-54 35.5t-37 53.5t-13.5 67
q0 35 13 66t36 54t54 36t66 13q48 0 90 -26t66 -77z" />
    <glyph glyph-name="hyphen" unicode="-" 
d="M242 409q-65 0 -65 65t65 65h749q65 0 65 -65t-65 -65h-749z" />
    <glyph glyph-name="period" unicode="." 
d="M616 274q32 0 60 -12t49 -33t33 -49t12 -60q0 -34 -13 -62t-34 -48.5t-49 -32t-58 -11.5t-58 11.5t-49.5 32t-34 49t-12.5 61.5q0 32 12 60t33 49t49 33t60 12z" />
    <glyph glyph-name="slash" unicode="/" 
d="M930 1391q17 40 51 40q16 0 30 -6t24 -15.5t15.5 -20.5t5.5 -21q-1 -8 -2.5 -16.5t-6.5 -17.5l-743 -1520q-20 -39 -53 -39q-16 0 -29.5 5.5t-23.5 14.5t-15.5 19.5t-5.5 20.5q0 14 10 36z" />
    <glyph glyph-name="zero" unicode="0" 
d="M616 1265q204 0 345 -199q134 -190 134 -451q0 -134 -37.5 -252t-103 -206t-152.5 -139.5t-186 -51.5q-67 0 -128 23.5t-114.5 66t-97 101.5t-74.5 131.5t-48 155t-17 171.5q0 261 133 451q139 199 346 199zM855 991q-104 144 -239 144q-72 0 -135 -41.5t-110.5 -113
t-75 -166t-27.5 -199.5q0 -104 27 -198t74 -165t110.5 -113t136.5 -42q72 0 135.5 42t111 113.5t74.5 165t27 197.5q0 222 -109 376z" />
    <glyph glyph-name="one" unicode="1" 
d="M456 889q-17 -6 -31 -6q-21 0 -40.5 18.5t-19.5 53.5q0 39 43 55q105 40 189.5 97t156.5 137q22 24 47 24q12 0 23.5 -5.5t21.5 -15t16 -23t6 -28.5l-2 -1165q0 -64 -64 -64q-65 0 -65 64v1019q-36 -29 -69.5 -51.5t-67.5 -42t-69.5 -36t-74.5 -31.5z" />
    <glyph glyph-name="two" unicode="2" 
d="M345 919q0 -65 -67 -65q-36 0 -49.5 18t-13.5 56q0 84 36.5 147t95.5 105.5t133 63.5t148 21q73 0 147 -20.5t132.5 -63t95.5 -106.5t37 -151q-2 -157 -90.5 -261t-260.5 -166q-142 -51 -232 -154.5t-123 -246.5l617 -4q65 0 65 -65q0 -64 -65 -64l-700 4q-58 7 -58 63v8
q10 101 45.5 191t93.5 165t137 132.5t176 92.5q135 49 200 121.5t65 184.5q0 53 -24.5 92.5t-64.5 65.5t-90.5 39t-102.5 13q-53 -1 -104 -14.5t-90.5 -40t-64 -66.5t-24.5 -95z" />
    <glyph glyph-name="three" unicode="3" 
d="M387 950q-24 -21 -45 -21q-11 0 -23.5 7t-22.5 17.5t-16.5 23t-6.5 23.5q0 15 12 31t29.5 31t37.5 29t36 24q130 81 267 81q97 0 174 -42t130 -123q20 -32 29 -65t9 -67q0 -37 -12 -75t-34 -75t-53 -70.5t-69 -61.5q58 -24 100.5 -56.5t70 -72.5t41 -85t13.5 -93
q0 -76 -29.5 -147t-83 -132.5t-128.5 -111.5t-167 -83q-94 -34 -193.5 -52t-202.5 -31q-3 -1 -6.5 -1h-6.5q-27 0 -43 17t-16 51q0 58 58 62q97 12 190 29t175 47q76 28 136 67.5t101.5 86t63.5 97.5t22 101q0 51 -23.5 91t-66.5 67.5t-103.5 42t-133.5 14.5q-30 0 -48 18
t-18 54q0 48 56 57q52 8 102 31.5t89.5 57t63.5 74.5t24 85q0 20 -7.5 40t-34.5 52q-67 71 -174 71q-32 0 -67.5 -8.5t-70.5 -23.5t-67.5 -36.5t-57.5 -46.5z" />
    <glyph glyph-name="four" unicode="4" 
d="M801 -159q-1 -64 -65 -64q-66 0 -64 65l4 358h-458q-15 0 -27.5 5.5t-22 14t-14.5 19t-5 20.5q1 9 3.5 18.5t8.5 20.5l536 932q20 35 59 35q64 0 64 -66l-12 -868h209q66 0 66 -65q0 -66 -66 -66h-210zM678 331v619l-348 -619h348z" />
    <glyph glyph-name="five" unicode="5" 
d="M942 1265q65 0 65 -65t-65 -65h-560l-11 -394q134 61 269 61q88 0 160.5 -23.5t124 -67t79.5 -106t28 -140.5q0 -91 -33.5 -175.5t-88.5 -157.5t-125 -131t-143 -95q-78 -40 -174.5 -66t-201.5 -26q-65 0 -65 63q0 65 62 68q93 4 173.5 23t150 55t129 89.5t109.5 125.5
q35 51 55.5 109.5t20.5 115.5q0 103 -69.5 156t-192.5 53q-77 0 -154 -24.5t-145 -75.5q-19 -11 -39 -11q-33 0 -48 16.5t-15 50.5l15 572q0 65 66 65h623z" />
    <glyph glyph-name="six" unicode="6" 
d="M938 1434h8q29 0 45.5 -17t16.5 -51q0 -58 -60 -62q-114 -9 -213.5 -58t-187.5 -137q-98 -99 -153.5 -213t-67.5 -245q66 66 153 95.5t175 29.5q87 0 159 -32t124 -87t80.5 -127t28.5 -152q0 -93 -30.5 -169t-87 -130t-136 -83.5t-178.5 -29.5q-208 0 -318 137.5
t-110 393.5q0 103 14.5 199t47 183.5t83.5 168t124 154.5q96 96 218.5 157.5t264.5 74.5zM327 361q21 -136 92 -200t195 -64q146 0 223.5 73.5t77.5 207.5q0 59 -20 108.5t-56.5 85t-88 55t-113.5 19.5q-60 -2 -115.5 -25t-98 -59.5t-68 -82.5t-25.5 -95v-6q0 -8 -3 -17z
" />
    <glyph glyph-name="seven" unicode="7" 
d="M298 960q-11 -54 -60 -54q-35 0 -52.5 17t-17.5 44q0 5 0.5 9t1.5 9l44 227q11 53 64 53h721q66 0 66 -65q0 -21 -14 -41q-199 -281 -299 -582.5t-100 -618.5q0 -22 1 -43t1 -42q0 -61 -63 -65q-29 0 -43.5 11.5t-20.5 31.5t-6 46.5v56.5q0 309 88 603.5t268 577.5h-545z
" />
    <glyph glyph-name="eight" unicode="8" 
d="M616 1265q93 0 175.5 -26t144 -71t97.5 -105.5t36 -129.5q0 -76 -43 -147t-131 -115q119 -65 177.5 -142.5t58.5 -180.5q0 -81 -41.5 -151t-112 -121t-164 -80.5t-197.5 -29.5q-106 0 -200 29.5t-164 81t-110.5 121.5t-40.5 150q0 104 58 181t177 142q-88 50 -130.5 116
t-42.5 146q0 68 35 128.5t96 105.5t143.5 71.5t178.5 26.5zM616 97q77 0 147 20t122.5 54t83.5 79.5t31 97.5t-31.5 98.5t-85 80.5t-123 54t-144.5 20q-78 0 -147.5 -20t-122 -54.5t-83.5 -80.5t-31 -98q0 -51 30.5 -97t83 -80t122 -54t148.5 -20zM853 1068q-98 67 -237 67
q-63 0 -121 -16t-103 -43t-71.5 -64t-26.5 -79q0 -43 27 -80t71.5 -64t102.5 -42.5t121 -15.5q61 0 119 15.5t103 42.5t72.5 64t27.5 80q0 74 -85 135z" />
    <glyph glyph-name="nine" unicode="9" 
d="M294 -203h-8q-63 0 -63 70q0 56 60 61q85 7 162 36.5t143.5 76t122 108t96 131.5t66 146t32.5 153q-1 -2 -12 -10q-66 -57 -145 -86t-168 -29q-84 0 -156 30.5t-125 84t-83 126.5t-30 158q0 91 29.5 166.5t85 130t136 85t181.5 30.5q103 0 183 -35t134.5 -102.5
t82.5 -166.5t28 -227q0 -103 -15 -199t-47 -184t-83.5 -168.5t-123.5 -152.5q-97 -97 -219 -158.5t-264 -74.5zM905 871q-21 127 -92 195.5t-195 68.5q-72 0 -128.5 -19.5t-94.5 -56.5t-58 -89t-20 -117q0 -60 20 -109.5t56 -84.5t87.5 -54.5t114.5 -19.5q63 3 119 26
t97.5 59.5t66 82.5t24.5 94q0 2 -0.5 3t-0.5 3q0 5 1 9t3 9z" />
    <glyph glyph-name="colon" unicode=":" 
d="M616 274q32 0 60 -12t49 -33t33 -49t12 -60q0 -34 -13 -62t-34 -48.5t-49 -32t-58 -11.5t-58 11.5t-49.5 32t-34 49t-12.5 61.5q0 32 12 60t33 49t49 33t60 12zM616 857q30 0 57.5 -12t49 -33t34.5 -49.5t13 -60.5t-12 -60t-33 -49t-49 -33t-60 -12t-60 12t-49 33t-33 49
t-12 60q0 33 12.5 61t34 49t49.5 33t58 12z" />
    <glyph glyph-name="semicolon" unicode=";" 
d="M762 281q14 -35 23.5 -72.5t9.5 -76.5q0 -67 -20.5 -127t-57 -108t-85.5 -81.5t-106 -47.5q-13 -4 -26 -4q-23 0 -40 18.5t-17 55.5q0 20 7.5 29.5t21 16t32.5 12.5t41 19q35 20 61 50.5t42 75.5q3 10 4 11q-30 -6 -46 -6q-34 0 -64.5 13t-54 35.5t-37 53.5t-13.5 67
q0 35 13 66t36 54t54 36t66 13q48 0 90 -26t66 -77zM606 921q34 0 64.5 -13.5t54 -36.5t37 -54t13.5 -65q0 -36 -14 -66.5t-37 -53.5t-54 -36t-64 -13q-35 0 -66 13t-54 36t-36 54t-13 66t13.5 66t36.5 54t53.5 36t65.5 13z" />
    <glyph glyph-name="less" unicode="&#x3c;" 
d="M389 415q-19 19 -23 37q-8 29 22 59l322 322q46 46 92 0t0 -92l-278 -278l282 -281q46 -46 0 -92t-92 0z" />
    <glyph glyph-name="equal" unicode="=" 
d="M235 589q-65 0 -65 65t65 65h763q65 0 65 -65t-65 -65h-763zM235 260q-65 0 -65 66q0 65 65 65h763q65 0 65 -65q0 -66 -65 -66h-763z" />
    <glyph glyph-name="greater" unicode="&#x3e;" 
d="M821 508q19 -19 23 -37q8 -29 -22 -59l-322 -322q-46 -46 -92 0t0 92l278 278l-282 281q-46 46 0 92t92 0z" />
    <glyph glyph-name="question" unicode="?" 
d="M605 249q26 0 49 -10t40 -27.5t27 -40.5t10 -48q0 -24 -9.5 -46.5t-26 -39.5t-39.5 -27.5t-51 -10.5q-27 0 -49.5 10t-39.5 27.5t-26.5 40t-9.5 46.5q0 26 10 49t27 40t39.5 27t48.5 10zM676 448q0 -4 0.5 -7t0.5 -6q0 -60 -71 -60q-40 0 -51.5 30.5t-11.5 83.5
q0 228 213 341q24 13 45.5 30.5t38.5 37t27 40.5t10 40q0 36 -18.5 65t-52.5 49.5t-80.5 31.5t-101.5 11q-91 0 -158 -25t-93 -71q36 -3 59.5 -30t23.5 -69q0 -25 -8 -45t-21 -33.5t-29 -20.5t-32 -7q-63 0 -101.5 42.5t-38.5 113.5q0 61 29 112t81.5 87t126 56t161.5 20
q86 0 156.5 -21t121 -59t78 -90.5t27.5 -116.5q0 -38 -15 -76t-40.5 -72.5t-60.5 -64t-74 -50.5q-76 -40 -109.5 -94.5t-33.5 -132.5v-19.5t2 -20.5z" />
    <glyph glyph-name="A" unicode="A" 
d="M847 97l-55 205h-351l-56 -205h119q65 0 65 -66q0 -65 -65 -65h-382q-65 0 -65 65q0 66 65 66h128l303 1119q5 21 23 35.5t47 14.5q42 0 56 -49l304 -1120h128q64 0 64 -66q0 -65 -64 -65h-383q-65 0 -65 65q0 66 65 66h119zM756 432l-140 518l-140 -518h280z" />
    <glyph glyph-name="B" unicode="B" 
d="M193 1135q-65 0 -65 65t65 65h553q50 0 108.5 -24.5t108.5 -69.5t83 -109.5t33 -144.5q0 -79 -32 -146t-98 -121q96 -54 143 -135.5t47 -181.5q0 -83 -27.5 -150.5t-78.5 -115.5t-123.5 -74.5t-163.5 -26.5q-6 0 -7 1q-3 0 -4.5 -0.5t-2.5 -0.5h-574q-65 0 -65 65
q0 66 65 66h178v1038h-143zM740 96h6q125 0 194 61t69 176q0 49 -19.5 92.5t-54.5 75t-83.5 50t-105.5 18.5h-280v-472h266q2 0 3.5 -0.5t4.5 -0.5zM466 699h280q32 0 67.5 17t65.5 46.5t50 69t20 85.5q0 47 -19.5 87t-49.5 69t-65.5 45.5t-68.5 16.5h-280v-436z" />
    <glyph glyph-name="C" unicode="C" 
d="M955 387q15 47 55 47q35 0 54.5 -19t19.5 -41q0 -10 -5 -27q-30 -91 -76.5 -163.5t-105 -123t-126.5 -77.5t-139 -27q-107 0 -193.5 49.5t-158.5 149.5q-136 190 -136 455q0 89 17 172t48.5 156t75.5 133t98.5 103t117.5 67t131 24q83 0 152.5 -35t123.5 -105
q11 -14 15.5 -22t6.5 -9q5 27 10.5 57t15 56t24 43t36.5 17q35 0 54 -19.5t19 -42.5q0 -12 -3 -25q-23 -72 -35 -146.5t-12 -152.5q0 -34 4.5 -68.5t4.5 -70.5q0 -29 -18.5 -45t-53.5 -16q-49 0 -58 56l-1 3v1q-15 93 -40.5 166t-61.5 123.5t-82 77.5t-101 27
q-74 0 -139 -42.5t-113.5 -114.5t-76.5 -167t-28 -201t28 -201t76.5 -167t113.5 -114t139 -42q52 0 100.5 21.5t90.5 61t76 95t56 123.5z" />
    <glyph glyph-name="D" unicode="D" 
d="M169 1135q-65 0 -65 65t65 65h470q101 0 190 -47t156 -131t105.5 -199.5t38.5 -253.5q0 -159 -33.5 -283t-96.5 -209.5t-154 -130.5t-206 -45h-470q-65 0 -65 65q0 66 65 66h170v1038h-170zM639 1135h-170v-1038h170q1 -1 2 -1h3q87 1 153 37.5t111 105.5t68 168.5
t23 226.5q0 109 -28 200.5t-77 158.5t-114.5 104.5t-140.5 37.5z" />
    <glyph glyph-name="E" unicode="E" 
d="M174 1135q-65 0 -65 65t65 65h775q50 0 64 -51l107 -400q4 -12 4 -26q0 -23 -19 -40t-56 -17q-42 0 -55 50l-95 354h-425v-454h213v117q0 65 65 65q66 0 66 -65v-411q0 -66 -66 -66q-65 0 -65 66v163h-213v-453h423q9 0 26 21l67 269q12 50 58 50q36 0 54 -17.5t18 -40.5
q0 -12 -3 -24l-85 -340q-12 -50 -56 -50l-802 1q-65 0 -65 65q0 66 65 66h170v1038h-170z" />
    <glyph glyph-name="F" unicode="F" 
d="M192 1135q-66 0 -66 65t66 65h799q61 0 65 -61l75 -485q1 -5 1 -9v-8q0 -28 -18.5 -43.5t-55.5 -15.5q-46 0 -55 56l-68 436h-439v-423q2 1 9 1h222l-11 188v8q0 60 70 60q56 0 60 -61l33 -549v-6q0 -64 -70 -64q-57 0 -60 61l-14 232h-230q-7 0 -9 1v-486h223
q66 0 66 -66q0 -65 -66 -65h-289h-264q-65 0 -65 65q0 66 65 66h199v1038h-173z" />
    <glyph glyph-name="G" unicode="G" 
d="M888 1219q14 47 54 47q36 0 55 -18t19 -41q0 -14 -4 -26q-23 -74 -33.5 -150t-10.5 -151q0 -35 4 -68t4 -66q0 -31 -17.5 -48t-52.5 -17q-55 0 -60 59v1q-32 192 -99.5 293t-170.5 101q-69 0 -130.5 -42t-107 -114t-72.5 -167.5t-27 -201.5q0 -107 26.5 -202t72 -166.5
t107 -113.5t131.5 -42q43 0 81 32t66.5 84t46.5 118.5t21 134.5h-108q-64 0 -64 66t64 66h377q65 0 65 -66t-65 -66h-138q2 -51 8.5 -107.5t18.5 -107t28.5 -89.5t37.5 -54q32 -23 32 -50q0 -13 -6.5 -25.5t-16 -22.5t-21 -16.5t-21.5 -6.5q-21 0 -41 13.5t-38.5 36
t-34.5 53t-27 64.5q-6 -9 -11 -17.5t-10 -17.5q-98 -152 -244 -152q-65 0 -125 23.5t-112 66.5t-94.5 102.5t-73 132.5t-47 156t-16.5 173q0 136 37 255t100.5 208t148.5 140.5t182 51.5q85 0 157.5 -40.5t124.5 -123.5q11 58 30 118z" />
    <glyph glyph-name="H" unicode="H" 
d="M729 1135q-65 0 -65 65t65 65l395 -1q65 0 65 -65t-65 -65l-125 1v-1038l125 -1q65 0 65 -66q0 -65 -65 -65l-395 1q-65 0 -65 65q0 66 65 66h139v453h-503v-453h134q65 0 65 -66q0 -65 -65 -65l-393 -2q-65 0 -65 65q0 66 65 66l129 2v1038l-129 -2q-65 0 -65 65t65 65
l393 2q65 0 65 -65t-65 -65h-134v-454h503v454h-139z" />
    <glyph glyph-name="I" unicode="I" 
d="M252 1135q-65 0 -65 65t65 65h729q65 0 65 -65t-65 -65h-299v-1038h299q65 0 65 -66q0 -65 -65 -65h-729q-65 0 -65 65q0 66 65 66h299v1038h-299z" />
    <glyph glyph-name="J" unicode="J" 
d="M449 1135q-65 0 -65 65t65 65h603q65 0 65 -65t-65 -65h-236v-810q0 -81 -24 -147t-68.5 -113t-108.5 -73t-144 -26t-145.5 20t-112 56t-72 86.5t-25.5 111.5v3q-1 6 -1 12v12q0 93 36 144.5t99 58.5h1q1 1 7 1q19 0 36.5 -7t30.5 -20.5t21 -32.5t8 -44q0 -22 -8 -40
t-21.5 -31t-30 -20t-32.5 -7h-8t-8 1v-21q0 -73 59.5 -112.5t165.5 -39.5q109 0 161.5 60t52.5 168v810h-236z" />
    <glyph glyph-name="K" unicode="K" 
d="M95 1135q-65 0 -65 65t65 65h403q65 0 65 -65t-65 -65h-170v-577l165 208q2 4 6 8l286 361h-100q-65 0 -65 65t65 65h402q65 0 65 -65t-65 -65h-136l-326 -412l352 -626h160q66 0 66 -66q0 -65 -66 -65h-402q-66 0 -66 65q0 66 66 66h92l-290 515l-209 -263v-252h170
q65 0 65 -66q0 -65 -65 -65h-403q-65 0 -65 65q0 66 65 66h103v1038h-103z" />
    <glyph glyph-name="L" unicode="L" 
d="M155 1135q-65 0 -65 65t65 65h611q65 0 65 -65t-65 -65h-240v-1038h483l-23 379v8q0 60 70 60q57 0 61 -62l26 -447v-6q0 -58 -61 -62l-4 -1h-618h-305q-65 0 -65 65q0 66 65 66h240v1038h-240z" />
    <glyph glyph-name="M" unicode="M" 
d="M820 -34q-66 0 -66 65q0 66 66 66h94v1038h-12l-222 -1116q-5 -24 -23 -38.5t-47 -14.5q-48 0 -58 52l-222 1117h-12v-1038h94q65 0 65 -66q0 -65 -65 -65h-323q-65 0 -65 65q0 66 65 66h98v1038h-96q-66 0 -66 66t66 66h292q58 0 65 -58l168 -856l169 861q10 52 64 52
l292 1q65 0 65 -66t-65 -66h-96v-1038h97q66 0 66 -66q0 -65 -66 -65h-163h-159z" />
    <glyph glyph-name="N" unicode="N" 
d="M113 1135q-65 0 -65 65t65 65h313q47 0 61 -44l384 -878v792h-173q-66 0 -66 65t66 65h239h200q65 0 65 -65t-65 -65h-135v-1104q0 -26 -20 -46.5t-52 -20.5q-35 0 -53 41l-484 1107v-1026h150q65 0 65 -66q0 -64 -65 -64h-448q-65 0 -65 64q0 66 65 66h167v1049h-149z
" />
    <glyph glyph-name="O" unicode="O" 
d="M616 1265q208 0 352 -198q69 -95 102.5 -208t33.5 -244q0 -264 -136 -451q-144 -198 -352 -198q-68 0 -130 23t-116.5 65.5t-99 102t-76 131.5t-49 155t-17.5 172q0 262 136 452q142 198 352 198zM862 990q-105 145 -246 145q-74 0 -139 -42t-113.5 -113t-76.5 -165.5
t-28 -199.5t28 -199t76.5 -165t113.5 -112.5t139 -41.5q73 0 138 41.5t114 112t77 165t28 199.5q0 222 -111 375z" />
    <glyph glyph-name="P" unicode="P" 
d="M223 1135q-65 0 -65 65t65 65h553q50 0 108.5 -24.5t108.5 -69.5t83 -109.5t33 -144.5q0 -51 -15 -99t-43 -90t-68 -75.5t-89 -54.5q-69 -29 -118 -29h-280v-472h266q66 0 66 -66q0 -65 -66 -65h-574q-65 0 -65 65q0 66 65 66h178v1038h-143zM496 699h280q32 0 67.5 17
t65.5 46.5t50 69t20 85.5q0 47 -19.5 87t-49.5 69t-65.5 45.5t-68.5 16.5h-280v-436z" />
    <glyph glyph-name="Q" unicode="Q" 
d="M616 1265q208 0 352 -198q69 -95 102.5 -208t33.5 -244q0 -89 -17.5 -175t-51 -161.5t-82.5 -137t-112 -103.5q2 -29 8.5 -57t16.5 -50t22.5 -35.5t27.5 -13.5q17 0 29.5 27t15.5 65q4 58 62 58q69 0 69 -64q0 -51 -16.5 -91t-42 -67.5t-56.5 -42.5t-61 -15
q-38 0 -70 16.5t-57.5 46.5t-44 72t-27.5 93q-54 -14 -101 -14q-68 0 -130 23t-116.5 65.5t-99 102t-76 131.5t-49 155t-17.5 172q0 262 136 452q142 198 352 198zM347 274q29 55 83 88t124 33q47 -1 88.5 -17t75.5 -43t60 -64t41 -81q78 78 116 186.5t38 238.5
q0 106 -28.5 200.5t-77 165.5t-113.5 112.5t-138 41.5q-74 0 -139 -42t-113.5 -113t-76.5 -165.5t-28 -199.5q0 -195 88 -341zM704 113q-5 33 -18 60.5t-33.5 47.5t-47 31.5t-58.5 11.5q-42 0 -68.5 -28.5t-31.5 -76.5q80 -62 169 -62q49 0 88 16z" />
    <glyph glyph-name="R" unicode="R" 
d="M171 1135q-65 0 -65 65t65 65h553q50 0 108.5 -24.5t108.5 -69.5t83 -109.5t33 -144.5q0 -53 -16 -102t-45.5 -91.5t-71.5 -76t-94 -54.5l98 -496h168q65 0 65 -66q0 -65 -65 -65h-222q-54 0 -64 52l-108 551h-258v-472h211q64 0 64 -66q0 -65 -64 -65h-519q-65 0 -65 65
q0 66 65 66h178v1038h-143zM740 701q2 0 2 1h6q34 7 66.5 27t57.5 48.5t40 64.5t15 75q0 47 -19.5 87t-49.5 69t-65.5 45.5t-68.5 16.5h-280v-436h280q2 0 6 0.5t10 1.5z" />
    <glyph glyph-name="S" unicode="S" 
d="M924 1229q19 38 51 38q16 0 29.5 -5.5t23.5 -14.5t15.5 -19.5t5.5 -20.5q0 -17 -9 -36q-15 -30 -23 -64.5t-7 -72.5q0 -31 5.5 -69.5t16.5 -85.5q1 -5 1.5 -10t0.5 -10q0 -26 -18.5 -42.5t-54.5 -16.5q-15 0 -24.5 4t-15.5 12.5t-10.5 20.5t-9.5 29q-65 269 -299 269
q-116 0 -181.5 -45.5t-65.5 -127.5q0 -47 17 -81.5t53.5 -60.5t93.5 -44.5t137 -31.5q97 -16 174.5 -51.5t132.5 -86.5t84.5 -116t29.5 -140q0 -80 -29 -150t-81.5 -122t-124.5 -82t-158 -30q-119 0 -212.5 41.5t-153.5 126.5q-5 -30 -11.5 -63t-16.5 -60.5t-25 -45.5
t-37 -18q-35 0 -53.5 18.5t-18.5 41.5q0 14 4 27q20 57 29.5 123.5t9.5 147.5q0 30 -1 63t-3 69h1v8q0 29 18.5 45.5t54.5 16.5q46 0 55 -53q19 -93 49 -160.5t73.5 -111t102 -64.5t135.5 -21q58 0 106 18.5t82.5 51.5t54 79.5t19.5 103.5q0 50 -21.5 93.5t-61.5 77.5
t-98 58.5t-130 36.5q-95 14 -170.5 41t-129 69.5t-82 100.5t-28.5 135q0 68 26 124t75 95.5t119 61.5t157 22q88 0 162 -27.5t131 -84.5q7 32 29 76z" />
    <glyph glyph-name="T" unicode="T" 
d="M257 660q-8 -57 -60 -57q-35 0 -52 17t-17 48v9l70 531q7 57 65 57h705q61 0 66 -62l69 -526q1 -5 1 -15q0 -27 -17.5 -43t-52.5 -16q-53 0 -60 57l-63 475h-230v-1038h260q66 0 66 -66q0 -65 -66 -65h-325h-326q-65 0 -65 65q0 66 65 66h260v1038h-230z" />
    <glyph glyph-name="U" unicode="U" 
d="M341 1135v-810q0 -48 22 -89.5t59.5 -72t87.5 -48.5t106 -18q55 0 105 17.5t87.5 48.5t59.5 72.5t22 89.5v810h-166q-66 0 -66 65t66 65h395q66 0 66 -65t-66 -65h-99v-810q0 -74 -32 -139.5t-87 -114t-128.5 -77t-156.5 -28.5q-85 0 -159 29t-128.5 78t-86 114.5
t-31.5 137.5v810h-99q-65 0 -65 65t65 65h395q66 0 66 -65t-66 -65h-166z" />
    <glyph glyph-name="V" unicode="V" 
d="M983 1135l-304 -1121q-14 -49 -55 -49q-27 1 -46 14t-25 36l-303 1120h-128q-65 0 -65 65t65 65h382q65 0 65 -65t-65 -65h-119l231 -855l231 855h-119q-65 0 -65 65t65 65h383q64 0 64 -65t-64 -65h-128z" />
    <glyph glyph-name="W" unicode="W" 
d="M110 1135q-65 0 -65 65t65 65h213q66 0 66 -65t-66 -65h-42l104 -675l104 675q-64 0 -64 65t65 65h256q65 0 65 -65t-65 -65h-1l104 -675l104 675h-42q-66 0 -66 65t66 65h220q65 0 65 -65t-65 -65h-46l-172 -1114q-9 -55 -59 -55q-32 0 -49 15t-21 41l-168 1084
l-166 -1084q-4 -26 -21.5 -41t-48.5 -15q-50 0 -59 55l-172 1114h-39z" />
    <glyph glyph-name="X" unicode="X" 
d="M968 1135l-278 -506l292 -532h151q66 0 66 -66q0 -65 -66 -65h-410q-65 0 -65 65q0 66 65 66h110l-217 396l-218 -396h111q65 0 65 -66q0 -65 -65 -65h-411q-65 0 -65 65q0 66 65 66h151l292 532l-277 506h-129q-66 0 -66 65t66 65h398q65 0 65 -65t-65 -65h-121
l204 -371l203 371h-121q-65 0 -65 65t65 65h399q65 0 65 -65t-65 -65h-129z" />
    <glyph glyph-name="Y" unicode="Y" 
d="M714 1135q-66 0 -66 65t66 65h412q66 0 66 -65t-66 -65h-126l-319 -599v-439h235q66 0 66 -66q0 -65 -66 -65h-602q-65 0 -65 65q0 66 65 66h237v439l-319 599h-127q-65 0 -65 65t65 65h412q66 0 66 -65t-66 -65h-138l236 -444l237 444h-138z" />
    <glyph glyph-name="Z" unicode="Z" 
d="M319 784q-10 -52 -56 -52q-37 0 -55.5 15.5t-18.5 41.5q0 11 3 23l85 402q10 51 64 51h614q65 0 65 -65q1 -12 -3 -21t-9 -17l-663 -1065h561l36 338q6 59 63 59q34 0 51 -16.5t17 -44.5q0 -3 -0.5 -6t-0.5 -6l-43 -393q-2 -62 -65 -62l-736 1h-4q-14 0 -25.5 6t-20 15
t-13.5 19.5t-5 19.5q1 9 3.5 18.5t9.5 20.5l664 1069h-444z" />
    <glyph glyph-name="bracketleft" unicode="[" 
d="M758 1459q23 20 44 20q11 0 23 -6.5t22 -17t16.5 -23t6.5 -24.5q0 -23 -26 -46q-83 -71 -148 -159t-110.5 -184t-69.5 -195t-24 -192q0 -97 22 -202t65.5 -204.5t108.5 -186t151 -146.5q15 -11 22.5 -24t7.5 -27t-6 -26.5t-16 -23t-21.5 -16.5t-21.5 -6q-21 0 -41 16
q-95 67 -166.5 155t-124.5 200q-58 121 -84 248t-26 242q0 112 27.5 225.5t79 221t125 205t164.5 176.5z" />
    <glyph glyph-name="backslash" unicode="\" 
d="M1046 -129q10 -22 10 -36q0 -10 -5.5 -20.5t-15.5 -19.5t-23.5 -14.5t-29.5 -5.5q-33 0 -53 39l-743 1520q-5 9 -6.5 17.5t-2.5 16.5q0 10 5.5 21t15.5 20.5t24 15.5t30 6q34 0 51 -40z" />
    <glyph glyph-name="bracketright" unicode="]" 
d="M388 1362q-25 22 -25 47q0 12 6 24t16 22.5t21.5 17t22.5 6.5q20 0 45 -20q93 -83 166.5 -182.5t124.5 -207t78 -219t27 -219.5q0 -114 -27 -241.5t-83 -248.5q-52 -112 -124.5 -200t-166.5 -155q-22 -16 -43 -16q-11 0 -22 6.5t-20 16.5t-14.5 23t-5.5 26t7 26.5
t22 24.5q79 57 141 131.5t108 172.5q52 110 75 224t23 217q0 93 -25 191.5t-71 193.5t-111 182t-145 157z" />
    <glyph glyph-name="asciicircum" unicode="^" 
d="M247 1045l302 337q42 47 98 47h10h11q54 0 98 -47l302 -337q10 -11 15 -21t5 -22q0 -15 -6 -28t-15.5 -22.5t-20 -15t-19.5 -5.5t-18 3.5t-20 9.5l-331 190l-332 -190q-11 -6 -20 -9.5t-18 -3.5t-19.5 5t-19.5 14t-15 22t-6 28q0 25 19 45z" />
    <glyph glyph-name="underscore" unicode="_" 
d="M-3 -465q-65 0 -65 65q0 66 65 66h1239q66 0 66 -66q0 -65 -66 -65h-1239z" />
    <glyph glyph-name="grave" unicode="`" 
d="M583 1382l302 -337q10 -11 15 -21t5 -22q0 -15 -6 -28t-15.5 -22.5t-20 -15t-19.5 -5.5t-18 3.5t-20 9.5l-410 235q-69 39 -69 108q0 28 13 54t35 45.5t50.5 31t59.5 11.5q54 0 98 -47z" />
    <glyph glyph-name="a" unicode="a" 
d="M358 702q15 -23 15 -47q0 -44 -28 -69.5t-70 -25.5q-38 0 -64 28t-26 69q0 48 26 86.5t73 65t112.5 40.5t143.5 14q84 0 155 -18.5t122 -52t80 -80.5t29 -103v-405q0 -20 2 -39t6 -34t9.5 -24.5t13.5 -9.5q2 0 2 -1q11 4 17.5 35t6.5 70v14q0 66 68 66q29 0 45.5 -15.5
t16.5 -47.5v-17q0 -120 -41.5 -176.5t-116.5 -58.5h2q-52 0 -90.5 31t-56.5 97q-158 -128 -310 -128q-81 0 -151 20t-121 56.5t-80 87t-29 111.5q0 163 124 212q122 49 282 76q73 12 145 27.5t126 45.5v7q0 27 -21 50t-56.5 39.5t-82 25.5t-96.5 9q-61 0 -107.5 -8
t-74.5 -23zM796 257v202q-58 -23 -122 -35.5t-127 -23.5q-58 -11 -109.5 -23t-97.5 -26q-90 -29 -90 -110q0 -32 19 -58.5t52.5 -45.5t79.5 -29.5t99 -10.5q39 0 76.5 12.5t74 34t72.5 50.5t73 63zM957 96h2h-2z" />
    <glyph glyph-name="b" unicode="b" 
d="M176 1135q-65 0 -65 65t65 65h243q66 0 66 -65v-448q106 111 253 111q80 0 150 -36.5t122 -98t82 -142.5t30 -171q0 -92 -30.5 -174t-82.5 -143t-122 -96.5t-149 -35.5q-147 0 -253 111v-46q0 -65 -66 -65q-65 0 -65 65v1104h-178zM914 644q-75 89 -176 89
q-54 0 -100.5 -26t-80 -70t-53 -101.5t-19.5 -120.5q0 -64 19.5 -121.5t53 -101t80 -69.5t100.5 -26q53 0 99 25t80.5 68.5t54 101t19.5 123.5q0 134 -77 229z" />
    <glyph glyph-name="c" unicode="c" 
d="M921 253q20 35 50 35q15 0 28 -6t23.5 -15t16.5 -20t6 -21q0 -17 -12 -38q-30 -53 -73.5 -94t-96 -69.5t-111.5 -43.5t-118 -15q-102 0 -184 29t-140.5 83t-90 131t-31.5 173q0 102 34 189.5t93.5 152.5t141 102t177.5 37q79 0 144 -21t111 -57t71.5 -85t27.5 -106v-3v-1
q0 -31 -15 -60t-38.5 -52.5t-53 -37.5t-58.5 -15h-3q-24 0 -45 7.5t-36.5 21.5t-25 34.5t-9.5 46.5q0 21 8 39.5t22 32t32 21.5t39 8q11 0 23 -2t23 -7q-19 50 -75 78t-142 28q-71 0 -129 -27.5t-99 -75.5t-64 -112t-23 -136q0 -142 82.5 -213.5t232.5 -71.5q94 0 169 41.5
t118 114.5z" />
    <glyph glyph-name="d" unicode="d" 
d="M546 1135q-66 0 -66 65t66 65h285q66 0 66 -65v-1103h142q66 0 66 -66q0 -65 -66 -65h-194q-2 0 -3.5 0.5t-3.5 0.5q-1 -1 -7 -1q-65 0 -65 65v46q-108 -111 -254 -111q-78 0 -147.5 34.5t-122 95t-83.5 142.5t-31 177q0 92 30 173.5t82.5 142.5t122 96.5t149.5 35.5
q144 0 254 -111v383h-220zM512 733q-53 0 -99.5 -25.5t-80.5 -69t-53.5 -101.5t-19.5 -122q0 -66 19.5 -123.5t54 -101t80.5 -68.5t99 -25t99.5 25.5t81 69t54 101t19.5 122.5q0 64 -20 122t-54.5 101.5t-81 69t-98.5 25.5z" />
    <glyph glyph-name="e" unicode="e" 
d="M925 229q22 25 45 25q11 0 23.5 -6.5t23 -16t17.5 -21.5t7 -24q0 -22 -21 -47t-51 -49t-63 -44t-57 -32q-102 -48 -188 -48q-104 0 -194 35t-156.5 95.5t-105 142.5t-38.5 176q0 91 36.5 172.5t99.5 143t147 97t179 35.5q92 0 172 -34.5t139 -94.5t92.5 -142t33.5 -177
q0 -66 -65 -66h-696q13 -58 46 -104.5t80 -79.5t106 -50.5t124 -17.5q29 0 63 9t68.5 25.5t68.5 41t64 56.5zM393 639q-68 -68 -89 -159h626q-12 59 -39.5 106t-67.5 79.5t-89.5 50t-104.5 17.5q-139 0 -236 -94z" />
    <glyph glyph-name="f" unicode="f" 
d="M434 97v636h-230q-65 0 -65 65t65 65h230v11q0 91 26.5 163.5t74 123t111.5 77.5t139 27q62 0 118 -20.5t98 -55t67 -79.5t25 -95q0 -56 -29 -83t-76 -27q-20 0 -38 7t-32.5 20.5t-23 32t-8.5 42.5q0 23 10.5 43t29.5 34l2 -2q-28 26 -63.5 39.5t-79.5 13.5
q-102 0 -160.5 -68t-60.5 -193l1 -11h239q65 0 65 -65t-65 -65h-239v-636h332q65 0 65 -66q0 -65 -65 -65h-693q-65 0 -65 65q0 66 65 66h230z" />
    <glyph glyph-name="g" unicode="g" 
d="M555 863q122 0 217 -77q38 33 85 54t90 23h4q31 0 59 -11.5t49 -30.5t34.5 -44.5t15.5 -53.5v-3q0 -59 -29 -94t-74 -37h-7h-3h-1q-29 4 -52 27t-27 62q0 8 2 17.5t4.5 17t4.5 12l2 4.5q-17 -5 -34.5 -14.5t-40.5 -29.5q31 -63 31 -135q0 -66 -26.5 -123t-71.5 -99
t-105 -66t-127 -24q-111 0 -196 60q-23 -26 -35.5 -51t-12.5 -52q0 -26 12 -47q2 0 2 -3q129 56 287 56q101 0 190 -23.5t155.5 -64t105 -95.5t38.5 -117q0 -63 -38.5 -118t-105 -95.5t-155.5 -64t-190 -23.5q-102 0 -191 23.5t-155 64t-104 95.5t-38 118q0 99 90 176l-1 2
q-33 51 -33 114q0 53 23.5 106.5t65.5 92.5q-45 75 -45 158q0 64 26.5 121t71.5 99.5t105 67.5t128 25zM347 11l-2 -1q-90 -48 -90 -109q0 -34 29.5 -65t79 -54t114 -37t134.5 -14q69 0 133.5 13.5t114.5 37t80 54t30 65.5q0 34 -30.5 65t-80.5 54t-114.5 36.5t-132.5 13.5
q-158 0 -265 -59zM698 677q-61 56 -143 56q-40 0 -76.5 -14.5t-64 -39t-43.5 -58t-16 -71.5t16 -71t43 -57.5t63.5 -39t77.5 -14.5q40 0 76.5 14t64 39t43.5 58t16 71q0 74 -57 127z" />
    <glyph glyph-name="h" unicode="h" 
d="M105 1135q-65 0 -65 65t65 65h218q64 0 64 -65l-6 -542q101 101 193.5 153t182.5 52q55 0 100.5 -19t78 -55.5t51 -91t20.5 -125.5l13 -475h107q66 0 66 -66q0 -65 -66 -65h-361q-65 0 -65 65q0 66 65 66h123l-12 472q-2 79 -29.5 121.5t-90.5 42.5q-43 0 -89 -21
t-93.5 -57t-96.5 -85t-99 -105l-5 -368h122q66 0 66 -66q0 -65 -66 -65h-384q-65 0 -65 65q0 66 65 66h132v399v639h-139z" />
    <glyph glyph-name="i" unicode="i" 
d="M572 1203q26 0 48.5 -10t39 -26.5t25.5 -38.5t9 -46q0 -25 -10 -47.5t-26.5 -39t-38.5 -26.5t-47 -10t-47 10t-38.5 26.5t-26.5 39t-10 47.5q0 49 36 85v1q35 35 86 35zM987 97q65 0 65 -66q0 -65 -65 -65h-741q-65 0 -65 65q0 66 65 66h285v636h-285q-65 0 -65 65t65 65
h351q65 0 65 -65v-701h325z" />
    <glyph glyph-name="j" unicode="j" 
d="M811 1225q29 0 55 -10.5t45.5 -28.5t30.5 -42t11 -51q0 -29 -12 -53.5t-31.5 -42t-45.5 -27.5t-53 -10q-30 0 -56 10.5t-45.5 28.5t-30.5 42t-11 52q0 26 11 50t30 42t45 29t57 11zM437 733q-65 0 -65 65t65 65h427q66 0 66 -65l30 -761q3 -33 3 -60q0 -78 -22.5 -142.5
t-63 -111t-96 -72.5t-120.5 -26q-87 0 -159 19t-124 53t-80.5 82t-28.5 105q0 60 16.5 97t40 57t48 27t40.5 7q21 0 41 -9t35 -23.5t24.5 -33t9.5 -38.5v-12q-6 -39 -37 -64v-1q-30 -24 -65 -25q-17 0 -21 3q5 -26 28 -47t58 -36t80 -23t94 -8q38 0 69.5 15.5t54 44t35 70
t12.5 92.5q0 8 -0.5 19.5t-1.5 27.5l-28 709h-365z" />
    <glyph glyph-name="k" unicode="k" 
d="M156 1135q-65 0 -65 65t65 65h226q66 0 66 -65q0 -4 -1 -5l8 -679l224 217q-64 0 -64 65t65 65h380q65 0 65 -65t-65 -65h-194l-189 -184l279 -452h119q66 0 66 -66q0 -65 -66 -65h-324q-65 0 -65 65q0 66 65 66h52l-222 359l-123 -119v-240h96q65 0 65 -66
q0 -65 -65 -65h-332q-65 0 -65 65q0 66 65 66h108v270v768h-174z" />
    <glyph glyph-name="l" unicode="l" 
d="M225 1135q-65 0 -65 65t65 65h378q65 0 65 -65v-1103h339q66 0 66 -66q0 -65 -66 -65h-778q-65 0 -65 65q0 66 65 66h308v1038h-312z" />
    <glyph glyph-name="m" unicode="m" 
d="M109 733q-65 0 -65 65t65 65h170q65 0 65 -65v-5q76 70 171 70q61 0 104 -26.5t69 -83.5q87 110 209 110q91 0 142.5 -59.5t53.5 -183.5l8 -523h38q65 0 65 -66q0 -65 -65 -65h-216q-66 0 -66 65q0 66 66 66h47l-7 521q-1 62 -14.5 88.5t-51.5 26.5q-32 0 -61.5 -19
t-53.5 -53t-41 -80t-24 -100q-1 -5 -2 -9t-2 -6l6 -369h38q65 0 65 -66q0 -65 -65 -65h-216q-66 0 -66 65q0 66 66 66h47l-7 521q-1 62 -14.5 88.5t-51.5 26.5q-30 0 -58 -17t-51 -47.5t-40.5 -73t-26.5 -93.5l-8 -406h39q66 0 66 -65t-66 -65h-277q-65 0 -65 65t65 65h108
l7 375q-3 9 -3 18q0 7 1 13t3 15l3 216h-103z" />
    <glyph glyph-name="n" unicode="n" 
d="M148 733q-64 0 -64 65t64 65h170q32 0 49.5 -16.5t16.5 -48.5l-3 -135q54 52 102.5 89.5t93.5 62t88 36.5t88 12q114 0 180 -75.5t71 -215.5l11 -475h109q65 0 65 -66q0 -65 -65 -65h-362q-65 0 -65 65q0 66 65 66h124l-13 472q-5 83 -31 123.5t-89 40.5
q-42 0 -87.5 -20.5t-92.5 -56t-96.5 -84t-98.5 -104.5l-7 -371h121q66 0 66 -66q0 -65 -66 -65h-384q-65 0 -65 65q0 66 65 66h133l6 374q-2 5 -2 9.5v9.5q0 10 3 21l5 222h-105z" />
    <glyph glyph-name="o" unicode="o" 
d="M616 863q88 0 166 -35.5t136.5 -97t93 -143t34.5 -172.5q0 -93 -34 -174.5t-92.5 -142.5t-137 -96.5t-166.5 -35.5q-89 0 -167 35t-136.5 96t-92.5 143t-34 175q0 92 34.5 173.5t93 142.5t136.5 96.5t166 35.5zM827 640q-89 93 -211 93q-61 0 -115.5 -25t-95 -68.5
t-64.5 -101.5t-24 -123t23 -122.5t63 -101t94.5 -69t118.5 -25.5q63 0 117.5 25t95 68.5t64 101.5t23.5 123q0 131 -89 225z" />
    <glyph glyph-name="p" unicode="p" 
d="M469 -245h101q65 0 65 -65t-65 -65h-165h-7h-153q-66 0 -66 65t66 65h93l-7 978h-105q-65 0 -65 65t65 65h170q65 0 65 -65v-44q103 109 242 109q76 0 143 -35.5t117 -96.5t79 -142.5t29 -173.5t-29 -173.5t-78.5 -143t-117 -97t-143.5 -35.5q-136 0 -236 103zM703 97
q49 0 92.5 25t75.5 68.5t51 101t19 123.5q0 64 -18.5 121.5t-51 101t-76 69.5t-92.5 26q-50 0 -93 -25.5t-75.5 -69t-51 -101.5t-18.5 -122q0 -65 18.5 -123t51 -101.5t75.5 -68.5t93 -25z" />
    <glyph glyph-name="q" unicode="q" 
d="M532 863q143 0 249 -109v44q0 65 65 65h145q66 0 66 -65t-66 -65h-79v-978h101q65 0 65 -65t-65 -65h-325q-66 0 -66 65t66 65h93v320q-106 -109 -249 -109q-77 0 -146 35t-120.5 95.5t-81.5 142.5t-30 176q0 91 29.5 172t80.5 142.5t120 97.5t148 36zM704 644
q-74 89 -172 89q-52 0 -97 -26t-78.5 -69.5t-52.5 -101t-19 -121.5q0 -65 19 -122.5t52 -101t78 -69t98 -25.5q52 0 97 25.5t79 69t53.5 101t19.5 122.5q0 134 -77 229z" />
    <glyph glyph-name="r" unicode="r" 
d="M143 733q-66 0 -66 65t66 65h315q66 0 66 -65v-155q37 49 85 89.5t99 69.5t99.5 45t85.5 16q71 0 122.5 -20.5t84.5 -53.5t49 -75t16 -85q0 -50 -15.5 -88.5t-42 -64.5t-60 -39.5t-69.5 -13.5q-27 0 -52 9.5t-44.5 26.5t-31.5 42t-12 57q0 43 31 69.5t76 26.5
q34 0 56 -11t30 -40q3 13 3 24q0 53 -36.5 79.5t-104.5 26.5q-31 0 -70 -16.5t-80 -46t-80.5 -68.5t-70 -84.5t-49.5 -94.5t-19 -98v-228h256q66 0 66 -66q0 -65 -66 -65h-648q-65 0 -65 65q0 66 65 66h260v636h-249z" />
    <glyph glyph-name="s" unicode="s" 
d="M881 800q1 33 17.5 48t50.5 15q31 0 46.5 -16.5t15.5 -45.5v-5l-6 -212q-2 -33 -18.5 -48t-48.5 -15q-20 0 -33 9t-23 25q-33 54 -63 88.5t-62.5 54.5t-70 27.5t-85.5 7.5q-51 0 -98.5 -8.5t-84.5 -22.5t-59.5 -32t-22.5 -38q0 -38 27.5 -59t73 -33t104 -18t120 -13
t121.5 -18t108 -33q140 -65 140 -223q0 -61 -28 -110.5t-78.5 -85t-120.5 -54.5t-154 -19q-97 0 -181 32.5t-135 98.5v-66q0 -65 -66 -65q-65 0 -65 65v294q0 27 21 47.5t51 20.5q32 0 52 -40q28 -59 57 -106t65.5 -80.5t85 -51.5t115.5 -18q53 0 99 9t79.5 27t52.5 43.5
t19 58.5q0 49 -30 77t-78.5 43.5t-111 22.5t-127 14.5t-127 19.5t-111 37.5t-78.5 69t-30 113.5q0 51 29.5 93.5t82.5 73t125 47.5t158 17q88 0 155 -24t124 -72z" />
    <glyph glyph-name="t" unicode="t" 
d="M255 733q-65 0 -65 65t65 65h264v282q0 66 66 66q65 0 65 -66v-282h328q65 0 65 -65t-65 -65h-328v-484q0 -69 23 -111.5t68 -42.5q37 0 67.5 16t52 44t34 66.5t14.5 84.5q3 61 62 61q68 0 68 -64q0 -74 -23.5 -136t-64 -106.5t-94.5 -69.5t-116 -25q-50 0 -90.5 20.5
t-70 57.5t-45.5 89t-16 116v484h-264z" />
    <glyph glyph-name="u" unicode="u" 
d="M145 733q-65 0 -65 65t65 65h131q65 0 65 -65l-14 -529q2 -86 43.5 -129t119.5 -43q60 0 138.5 52t178.5 161l-10 423h-159q-66 0 -66 65t66 65h223q65 0 65 -65l16 -701h146q65 0 65 -66q0 -65 -65 -65l-210 1q-64 0 -65 63l-2 99q-93 -86 -173 -124.5t-148 -38.5
q-65 0 -119 21t-92 60t-59.5 95t-22.5 126l12 465h-64z" />
    <glyph glyph-name="v" unicode="v" 
d="M169 733q-65 0 -65 65t65 65h323q65 0 65 -65t-65 -65h-83l208 -524l207 524h-83q-65 0 -65 65t65 65h324q64 0 64 -65t-64 -65h-101l-287 -726q-17 -42 -54 -42q-22 -1 -40.5 10.5t-26.5 31.5l-287 726h-100z" />
    <glyph glyph-name="w" unicode="w" 
d="M23 733q-65 0 -65 65t65 65h289q66 0 66 -65t-66 -65h-36l108 -433l109 433q-63 1 -63 65q0 65 66 65h241q65 0 65 -65q0 -63 -62 -65l108 -433l109 433h-36q-66 0 -66 65t66 65h288q66 0 66 -65t-66 -65h-118l-179 -717q-6 -23 -24.5 -37t-47.5 -14q-43 0 -55 50
l-169 673l-168 -673q-12 -50 -56 -50q-29 0 -47.5 13.5t-23.5 37.5l-179 717h-119z" />
    <glyph glyph-name="x" unicode="x" 
d="M105 -34q-65 0 -65 65q0 66 65 66h194l234 300l-261 336h-120q-65 0 -65 65t65 65h373q65 0 65 -65t-65 -65h-87l177 -230l179 230h-87q-66 0 -66 65t66 65h372q65 0 65 -65t-65 -65h-120l-260 -336l233 -300h195q65 0 65 -66q0 -65 -65 -65h-382q-65 0 -65 65
q0 66 65 66h22l-152 194l-150 -194h21q65 0 65 -66q0 -65 -65 -65h-381z" />
    <glyph glyph-name="y" unicode="y" 
d="M962 733q-30 -90 -63 -179.5t-65 -178.5t-62 -178t-55 -179l-2 -8q-29 -104 -65.5 -177t-81.5 -119t-100 -67.5t-122 -21.5q-50 0 -93.5 17.5t-75.5 49.5t-51 76.5t-19 98.5q0 96 41.5 143t108.5 47q19 0 38 -7.5t34 -21.5t24.5 -35.5t9.5 -48.5q-2 -43 -32 -68.5
t-74 -25.5h-9.5t-9.5 1q5 -48 35.5 -72t72.5 -24q43 0 77.5 15.5t63 48.5t52.5 84.5t46 123.5l-296 706h-141q-65 0 -65 65t65 65h369q65 0 65 -65t-65 -65h-87l213 -509q21 64 42.5 125t44 122.5t46 126t48.5 135.5h-87q-65 0 -65 65t65 65h346q66 0 66 -65t-66 -65h-121z
" />
    <glyph glyph-name="z" unicode="z" 
d="M322 488q-15 -48 -55 -48q-35 0 -54.5 18t-19.5 43q0 5 1 11.5t3 13.5l89 291q13 46 62 46h602q66 0 66 -65q0 -29 -21 -48l-585 -653h484l17 238q3 60 61 60q34 0 51 -16.5t17 -45.5v-8l-20 -295q-1 -64 -66 -64l-690 1q-16 0 -28.5 6.5t-21.5 16t-13.5 20.5t-4.5 20
q0 23 19 45l589 658h-408z" />
    <glyph glyph-name="braceleft" unicode="{" 
d="M758 1459q23 20 44 20q11 0 23 -6.5t22 -17t16.5 -23t6.5 -24.5q0 -23 -26 -46q-83 -71 -148 -159t-110.5 -184t-69.5 -195t-24 -192q0 -97 22 -202t65.5 -204.5t108.5 -186t151 -146.5q15 -11 22.5 -24t7.5 -27t-6 -26.5t-16 -23t-21.5 -16.5t-21.5 -6q-21 0 -41 16
q-95 67 -166.5 155t-124.5 200q-58 121 -84 248t-26 242q0 112 27.5 225.5t79 221t125 205t164.5 176.5z" />
    <glyph glyph-name="bar" unicode="|" 
d="M660 16q0 -65 -65 -65q-66 0 -66 65v1239q0 66 66 66q65 0 65 -66v-1239z" />
    <glyph glyph-name="braceright" unicode="}" 
d="M388 1362q-25 22 -25 47q0 12 6 24t16 22.5t21.5 17t22.5 6.5q20 0 45 -20q93 -83 166.5 -182.5t124.5 -207t78 -219t27 -219.5q0 -114 -27 -241.5t-83 -248.5q-52 -112 -124.5 -200t-166.5 -155q-22 -16 -43 -16q-11 0 -22 6.5t-20 16.5t-14.5 23t-5.5 26t7 26.5
t22 24.5q79 57 141 131.5t108 172.5q52 110 75 224t23 217q0 93 -25 191.5t-71 193.5t-111 182t-145 157z" />
    <glyph glyph-name="asciitilde" unicode="~" 
d="M837 562q35 55 91 20q54 -35 19 -90q-102 -158 -191.5 -132t-176.5 89q-47 32 -92.5 47.5t-90.5 -55.5q-36 -56 -90 -19q-55 33 -20 90q101 157 190.5 131t177.5 -88q45 -33 91 -48.5t92 55.5z" />
    <glyph glyph-name="nonbreakingspace" unicode="&#xa0;" 
 />
    <glyph glyph-name="exclamdown" unicode="&#xa1;" 
d="M724 1183l-43 -727q-5 -62 -58 -62q-35 0 -52.5 14t-19.5 48l-42 727v9q0 20 7 39t20.5 33.5t33.5 23t46 8.5t46 -8.5t34 -23t21 -33t7 -39.5v-9zM616 249q26 0 49 -10t40 -27t27 -40t10 -49q0 -24 -9.5 -46.5t-26 -39.5t-39.5 -27.5t-51 -10.5q-27 0 -49.5 10
t-39.5 27.5t-26.5 40t-9.5 46.5q0 53 37 89l5 5q35 32 83 32z" />
    <glyph glyph-name="cent" unicode="&#xa2;" 
d="M682 -204q0 -65 -65 -65q-66 0 -66 65v175q-54 8 -101 24q-82 29 -140.5 83t-90 131t-31.5 173q0 102 34 189.5t93.5 152.5t140.5 102q45 20 95 29v180q0 66 66 66q65 0 65 -66v-174q51 -5 96 -19q65 -21 111 -57t71.5 -85t27.5 -106v-4q0 -31 -15 -60t-38.5 -52.5
t-53 -37.5t-58.5 -15h-3q-24 0 -45 7.5t-36.5 21.5t-25 34.5t-9.5 46.5q0 21 8 39.5t22 32t32 21.5t39 8q11 0 23 -2t23 -7q-19 50 -75 78q-40 19 -94 25v-630q65 8 121 38q75 42 118 115q20 35 50 35q15 0 28 -6t23.5 -15t16.5 -20t6 -21q0 -17 -12 -38q-30 -53 -73.5 -94
t-96 -69.5t-111.5 -43.5q-35 -9 -70 -12v-173zM505 705q-58 -27 -99 -75t-64 -112t-23 -136q0 -142 82 -214q58 -50 150 -65v619q-24 -6 -46 -17z" />
    <glyph glyph-name="sterling" unicode="&#xa3;" 
d="M242 811q-65 0 -65 65t65 65h153v194h-240q-65 0 -65 65t65 65h611q65 0 65 -65t-65 -65h-240v-194h465q65 0 65 -65t-65 -65h-465v-714h483l-23 379v8q0 60 70 60q57 0 61 -62l26 -447v-6q0 -58 -61 -62l-4 -1h-923q-65 0 -65 65q0 66 65 66h240v714h-153z" />
    <glyph glyph-name="currency" unicode="&#xa4;" 
d="M616 863q88 0 166 -36q43 -19 80 -47l27 27q58 58 115 0q58 -57 0 -115l-31 -31q22 -35 38 -74q35 -81 35 -172q0 -93 -34 -175q-15 -35 -34 -66l28 -28q57 -57 0 -115q-58 -57 -115 0l-22 22q-40 -31 -87 -52q-78 -35 -166 -35q-89 0 -167 35q-46 20 -86 50l-20 -20
q-57 -57 -115 0q-57 58 0 115l26 26q-19 32 -34 68q-34 82 -34 175q0 92 34 173q17 40 39 74l-29 30q-58 58 0 115q57 58 115 0l26 -26q36 27 79 46q78 36 166 36zM827 640q-89 93 -211 93q-61 0 -115.5 -25t-95 -68.5t-64.5 -101.5t-24 -123t23 -122.5t63 -101t94.5 -69
t118.5 -25.5q63 0 117.5 25t95 68.5t64 101.5t23.5 123q0 131 -89 225z" />
    <glyph glyph-name="yen" unicode="&#xa5;" 
d="M235 260q-65 0 -65 66q0 65 65 65h316v145l-28 53h-288q-65 0 -65 65t65 65h218l-221 416h-127q-65 0 -65 65t65 65h412q66 0 66 -65t-66 -65h-138l221 -416h30l222 416h-138q-66 0 -66 65t66 65h412q66 0 66 -65t-66 -65h-126l-222 -416h220q65 0 65 -65t-65 -65h-289
l-28 -53v-145h317q65 0 65 -65q0 -66 -65 -66h-317v-163h235q66 0 66 -66q0 -65 -66 -65h-602q-65 0 -65 65q0 66 65 66h237v163h-316z" />
    <glyph glyph-name="brokenbar" unicode="&#xa6;" 
d="M660 16q0 -65 -65 -65q-66 0 -66 65v1239q0 66 66 66q65 0 65 -66v-1239z" />
    <glyph glyph-name="section" unicode="&#xa7;" 
d="M718 262l8 8q48 51 74 109t26 120q0 52 -21 102t-63 85l-227 211l-8 -8q-100 -108 -100 -233q0 -52 21 -100t63 -83zM439 1006q-23 39 -33.5 86t-10.5 89q0 52 16 96.5t46 77.5t73 53t97 23h20q55 0 99 -16.5t75 -45t48.5 -68.5t19.5 -86v-14q0 -42 -17.5 -70.5
t-56.5 -44.5h1q-25 -11 -50 -11q-26 0 -47.5 8t-37.5 22t-24.5 32.5t-8.5 39.5q0 41 17.5 65.5t44.5 24.5q7 0 19.5 -2.5t15.5 -5.5q-14 19 -38.5 30.5t-62.5 11.5h-14q-49 0 -77 -34t-28 -86q0 -50 22 -101t56 -87l228 -212q63 -63 94 -130t31 -149q0 -91 -35.5 -171.5
t-99.5 -149.5q-9 -10 -15.5 -17t-11.5 -10q43 -92 43 -177q0 -58 -19 -104t-52.5 -78t-79.5 -49t-100 -17q-54 1 -98 17t-75.5 44.5t-49 67.5t-19.5 87v15q0 22 7.5 44.5t22.5 40t38 28.5t55 11q28 0 50 -9t37 -24t22.5 -33.5t7.5 -37.5q0 -40 -18 -63.5t-44 -23.5
q-8 0 -19 4t-16 4q10 -17 37 -29.5t65 -12.5h13q51 0 77.5 33.5t26.5 87.5q0 51 -20.5 99t-55.5 87l-228 212q-125 116 -125 278q0 89 34 169.5t100 152.5q6 6 13 13.5t15 14.5z" />
    <glyph glyph-name="dieresis" unicode="&#xa8;" 
d="M381 1222q22 0 41 -8.5t33.5 -23t23 -33.5t8.5 -41t-8.5 -41.5t-23 -34t-34 -23t-40.5 -8.5t-40.5 8t-34 22.5t-23 34t-8.5 42.5q0 22 8.5 41t23 33.5t33.5 23t41 8.5zM852 1222q22 0 41 -8.5t33.5 -23t23 -33.5t8.5 -41t-8.5 -41.5t-23 -34t-34 -23t-40.5 -8.5
q-23 0 -42.5 9t-34 23.5t-22.5 34t-8 40.5t8.5 40t22.5 34t33.5 23.5t42.5 8.5z" />
    <glyph glyph-name="ordfeminine" unicode="&#xaa;" 
d="M358 1164q15 -23 15 -47q0 -44 -28 -69.5t-70 -25.5q-38 0 -64 28t-26 69q0 48 26 86.5t73 65t112.5 40.5t143.5 14q84 0 155 -18.5t122 -52t80 -80.5t29 -103v-405q0 -20 2 -39t6 -34t9.5 -24.5t13.5 -9.5q2 0 2 -1q11 4 17.5 35t6.5 70v14q0 66 68 66q29 0 45.5 -15.5
t16.5 -47.5v-17q0 -120 -41.5 -176.5t-116.5 -58.5h2q-52 0 -90.5 31t-56.5 97q-158 -128 -310 -128q-81 0 -151 20t-121 56.5t-80 87t-29 111.5q0 163 124 212q122 49 282 76q73 12 145 27.5t126 45.5v7q0 27 -21 50t-56.5 39.5t-82 25.5t-96.5 9q-61 0 -107.5 -8
t-74.5 -23zM796 719v202q-58 -23 -122 -35.5t-127 -23.5q-58 -11 -109.5 -23t-97.5 -26q-90 -29 -90 -110q0 -32 19 -58.5t52.5 -45.5t79.5 -29.5t99 -10.5q39 0 76.5 12.5t74 34t72.5 50.5t73 63zM957 558h2h-2zM242 16q-65 0 -65 65t65 65h749q65 0 65 -65t-65 -65h-749z
" />
    <glyph glyph-name="guillemotleft" unicode="&#xab;" 
d="M517 1194l-43 -507q-6 -61 -60 -61q-67 0 -70 62l-43 506v8q0 38 28 66t80 28t80 -28t28 -66v-8zM932 1194l-44 -507q-6 -61 -60 -61q-65 0 -70 62l-42 506q-1 4 -1 12q0 18 7 34t21 28.5t34 20t46 7.5q52 0 80.5 -28t28.5 -66v-8z" />
    <glyph glyph-name="logicalnot" unicode="&#xac;" 
d="M242 409q-65 0 -65 65t65 65h749q65 0 65 -65t-65 -65h-749z" />
    <glyph glyph-name="uni00AD" unicode="&#xad;" 
d="M242 409q-65 0 -65 65t65 65h749q65 0 65 -65t-65 -65h-749z" />
    <glyph glyph-name="degree" unicode="&#xb0;" 
d="M616 1349q88 0 166 -35.5t136.5 -97t93 -143t34.5 -172.5q0 -93 -34 -174.5t-92.5 -142.5t-137 -96.5t-166.5 -35.5q-89 0 -167 35t-136.5 96t-92.5 143t-34 175q0 92 34.5 173.5t93 142.5t136.5 96.5t166 35.5zM827 1126q-89 93 -211 93q-61 0 -115.5 -25t-95 -68.5
t-64.5 -101.5t-24 -123t23 -122.5t63 -101t94.5 -69t118.5 -25.5q63 0 117.5 25t95 68.5t64 101.5t23.5 123q0 131 -89 225z" />
    <glyph glyph-name="plusminus" unicode="&#xb1;" 
d="M551 859q0 66 66 66q64 0 64 -66v-348h349q66 0 66 -66q0 -65 -66 -65h-349v-349q0 -65 -64 -65q-66 0 -66 65v349h-349q-65 0 -65 65q0 66 65 66h349v348zM-3 -465q-65 0 -65 65q0 66 65 66h1239q66 0 66 -66q0 -65 -66 -65h-1239z" />
    <glyph glyph-name="acute" unicode="&#xb4;" 
d="M347 1045l302 337q42 47 98 47q29 0 57 -11.5t50.5 -31t36.5 -46.5t14 -57q0 -65 -68 -104l-411 -235q-11 -6 -20 -9.5t-18 -3.5t-19.5 5t-19.5 14t-15 22t-6 28q0 25 19 45z" />
    <glyph glyph-name="mu" unicode="&#xb5;" 
d="M329 -280q0 -65 -65 -65q-66 0 -66 65q-1 534 -1 548l12 465h-64q-65 0 -65 65t65 65h131q65 0 65 -65l-14 -503l2 -59q8 -62 41 -96q42 -43 120 -43q60 0 138.5 52t178.5 161l-10 423h-159q-66 0 -66 65t66 65h223q65 0 65 -65l16 -701h146q65 0 65 -66q0 -65 -65 -65
l-210 1q-64 0 -65 63l-2 99q-93 -86 -173 -124.5t-148 -38.5q-65 0 -119 21q-23 9 -42 20v-287z" />
    <glyph glyph-name="paragraph" unicode="&#xb6;" 
d="M1011 1265q65 0 65 -65t-65 -65h-116v-1038h116q65 0 65 -66q0 -65 -65 -65h-263q-65 0 -65 65q0 66 65 66h16v1038h-190v-1038h12q65 0 65 -66q0 -65 -65 -65h-241q-65 0 -65 65q0 66 65 66h98v254q-122 3 -197 151q-65 130 -65 304q0 175 65 304q61 120 152 145
q15 10 40 10h573zM375 1045q-49 -98 -49 -239q0 -140 49 -238q33 -67 68 -72v621q-35 -5 -68 -72z" />
    <glyph glyph-name="periodcentered" unicode="&#xb7;" 
d="M616 857q30 0 57.5 -12t49 -33t34.5 -49.5t13 -60.5t-12 -60t-33 -49t-49 -33t-60 -12t-60 12t-49 33t-33 49t-12 60q0 33 12.5 61t34 49t49.5 33t58 12z" />
    <glyph glyph-name="cedilla" unicode="&#xb8;" 
d="M762 62q14 -35 23.5 -72.5t9.5 -76.5q0 -67 -20.5 -127t-57 -108t-85.5 -81.5t-106 -47.5q-13 -4 -26 -4q-23 0 -40 18.5t-17 55.5q0 20 7.5 29.5t21 16t32.5 12.5t41 19q35 20 61 50.5t42 75.5q3 10 4 11q-30 -6 -46 -6q-34 0 -64.5 13t-54 35.5t-37 53.5t-13.5 67
q0 35 13 66t36 54t54 36t66 13q48 0 90 -26t66 -77z" />
    <glyph glyph-name="ordmasculine" unicode="&#xba;" 
d="M616 1349q88 0 166 -35.5t136.5 -97t93 -143t34.5 -172.5q0 -93 -34 -174.5t-92.5 -142.5t-137 -96.5t-166.5 -35.5q-89 0 -167 35t-136.5 96t-92.5 143t-34 175q0 92 34.5 173.5t93 142.5t136.5 96.5t166 35.5zM827 1126q-89 93 -211 93q-61 0 -115.5 -25t-95 -68.5
t-64.5 -101.5t-24 -123t23 -122.5t63 -101t94.5 -69t118.5 -25.5q63 0 117.5 25t95 68.5t64 101.5t23.5 123q0 131 -89 225zM242 16q-65 0 -65 65t65 65h749q65 0 65 -65t-65 -65h-749z" />
    <glyph glyph-name="guillemotright" unicode="&#xbb;" 
d="M517 1194l-43 -507q-6 -61 -60 -61q-67 0 -70 62l-43 506v8q0 38 28 66t80 28t80 -28t28 -66v-8zM932 1194l-44 -507q-6 -61 -60 -61q-65 0 -70 62l-42 506q-1 4 -1 12q0 18 7 34t21 28.5t34 20t46 7.5q52 0 80.5 -28t28.5 -66v-8z" />
    <glyph glyph-name="questiondown" unicode="&#xbf;" 
d="M605 249q26 0 49 -10t40 -27.5t27 -40.5t10 -48q0 -24 -9.5 -46.5t-26 -39.5t-39.5 -27.5t-51 -10.5q-27 0 -49.5 10t-39.5 27.5t-26.5 40t-9.5 46.5q0 26 10 49t27 40t39.5 27t48.5 10zM676 448q0 -4 0.5 -7t0.5 -6q0 -60 -71 -60q-40 0 -51.5 30.5t-11.5 83.5
q0 228 213 341q24 13 45.5 30.5t38.5 37t27 40.5t10 40q0 36 -18.5 65t-52.5 49.5t-80.5 31.5t-101.5 11q-91 0 -158 -25t-93 -71q36 -3 59.5 -30t23.5 -69q0 -25 -8 -45t-21 -33.5t-29 -20.5t-32 -7q-63 0 -101.5 42.5t-38.5 113.5q0 61 29 112t81.5 87t126 56t161.5 20
q86 0 156.5 -21t121 -59t78 -90.5t27.5 -116.5q0 -38 -15 -76t-40.5 -72.5t-60.5 -64t-74 -50.5q-76 -40 -109.5 -94.5t-33.5 -132.5v-19.5t2 -20.5z" />
    <glyph glyph-name="Agrave" unicode="&#xc0;" 
d="M847 97l-55 205h-351l-56 -205h119q65 0 65 -66q0 -65 -65 -65h-382q-65 0 -65 65q0 66 65 66h128l303 1119q5 21 23 35.5t47 14.5q42 0 56 -49l304 -1120h128q64 0 64 -66q0 -65 -64 -65h-383q-65 0 -65 65q0 66 65 66h119zM756 432l-140 518l-140 -518h280zM583 1784
l302 -337q10 -11 15 -21t5 -22q0 -15 -6 -28t-15.5 -22.5t-20 -15t-19.5 -5.5t-18 3.5t-20 9.5l-410 235q-69 39 -69 108q0 28 13 54t35 45.5t50.5 31t59.5 11.5q54 0 98 -47z" />
    <glyph glyph-name="Aacute" unicode="&#xc1;" 
d="M847 97l-55 205h-351l-56 -205h119q65 0 65 -66q0 -65 -65 -65h-382q-65 0 -65 65q0 66 65 66h128l303 1119q5 21 23 35.5t47 14.5q42 0 56 -49l304 -1120h128q64 0 64 -66q0 -65 -64 -65h-383q-65 0 -65 65q0 66 65 66h119zM756 432l-140 518l-140 -518h280zM347 1447
l302 337q42 47 98 47q29 0 57 -11.5t50.5 -31t36.5 -46.5t14 -57q0 -65 -68 -104l-411 -235q-11 -6 -20 -9.5t-18 -3.5t-19.5 5t-19.5 14t-15 22t-6 28q0 25 19 45z" />
    <glyph glyph-name="Acircumflex" unicode="&#xc2;" 
d="M847 97l-55 205h-351l-56 -205h119q65 0 65 -66q0 -65 -65 -65h-382q-65 0 -65 65q0 66 65 66h128l303 1119q5 21 23 35.5t47 14.5q42 0 56 -49l304 -1120h128q64 0 64 -66q0 -65 -64 -65h-383q-65 0 -65 65q0 66 65 66h119zM756 432l-140 518l-140 -518h280zM206 1447
l302 337q42 47 107.5 47t109.5 -47l302 -337q10 -11 15 -21t5 -22q0 -15 -6 -28t-15.5 -22.5t-20 -15t-19.5 -5.5t-18 3.5t-20 9.5l-331 190l-332 -190q-11 -6 -20 -9.5t-18 -3.5t-19.5 5t-19.5 14t-15 22t-6 28q0 25 19 45z" />
    <glyph glyph-name="Atilde" unicode="&#xc3;" 
d="M847 97l-55 205h-351l-56 -205h119q65 0 65 -66q0 -65 -65 -65h-382q-65 0 -65 65q0 66 65 66h128l303 1119q5 21 23 35.5t47 14.5q42 0 56 -49l304 -1120h128q64 0 64 -66q0 -65 -64 -65h-383q-65 0 -65 65q0 66 65 66h119zM756 432l-140 518l-140 -518h280zM837 1700
q35 55 91 20q54 -35 19 -90q-102 -158 -191.5 -132t-176.5 89q-47 32 -92.5 47.5t-90.5 -55.5q-36 -56 -90 -19q-55 33 -20 90q101 157 190.5 131t177.5 -88q45 -33 91 -48.5t92 55.5z" />
    <glyph glyph-name="Adieresis" unicode="&#xc4;" 
d="M847 97l-55 205h-351l-56 -205h119q65 0 65 -66q0 -65 -65 -65h-382q-65 0 -65 65q0 66 65 66h128l303 1119q5 21 23 35.5t47 14.5q42 0 56 -49l304 -1120h128q64 0 64 -66q0 -65 -64 -65h-383q-65 0 -65 65q0 66 65 66h119zM756 432l-140 518l-140 -518h280zM381 1624
q22 0 41 -8.5t33.5 -23t23 -33.5t8.5 -41t-8.5 -41.5t-23 -34t-34 -23t-40.5 -8.5t-40.5 8t-34 22.5t-23 34t-8.5 42.5q0 22 8.5 41t23 33.5t33.5 23t41 8.5zM852 1624q22 0 41 -8.5t33.5 -23t23 -33.5t8.5 -41t-8.5 -41.5t-23 -34t-34 -23t-40.5 -8.5q-23 0 -42.5 9
t-34 23.5t-22.5 34t-8 40.5t8.5 40t22.5 34t33.5 23.5t42.5 8.5z" />
    <glyph glyph-name="Aring" unicode="&#xc5;" 
d="M847 97l-55 205h-351l-56 -205h119q65 0 65 -66q0 -65 -65 -65h-382q-65 0 -65 65q0 66 65 66h128l280 1036q-44 8 -87 24q-71 28 -116 77q-51 55 -51 127q-2 3 1 5v1q-1 85 68 149q101 92 264 96h5q85 0 159.5 -25.5t124.5 -80.5q51 -55 54 -129l-1 -4h2l-1 -2
q-1 -86 -71 -150q-56 -51 -133 -74q-23 -7 -47 -12l282 -1038h128q64 0 64 -66q0 -65 -64 -65h-383q-65 0 -65 65q0 66 65 66h119zM756 432l-140 518l-140 -518h280zM822 1371q0 12 -5.5 24.5t-15.5 23.5q-29 31 -77 46.5t-101 15.5t-103.5 -14.5t-82.5 -44.5
q-24 -23 -29 -50t17 -52q31 -33 82 -49q37 -12 77 -14q16 9 39 9q15 0 27 -7q36 5 67 15q45 16 76 44q27 25 29 53z" />
    <glyph glyph-name="AE" unicode="&#xc6;" 
d="M428 1135q-65 0 -65 65t65 65h542q50 0 64 -51l107 -400q4 -12 4 -26q0 -23 -19 -40t-56 -17q-42 0 -55 50l-95 354h-192v-454h100v117q0 65 65 65q66 0 66 -65v-411q0 -66 -66 -66q-65 0 -65 66v163h-100v-453h199q9 0 28 27l65 263q12 50 58 50q36 0 54 -17.5t18 -40.5
q0 -12 -3 -24l-85 -340q-12 -50 -56 -50q-10 0 -438 1q-65 0 -65 65q0 66 65 66h30v205h-248l-56 -205h25q65 0 65 -66q0 -65 -65 -65h-188q-65 0 -65 65q0 66 65 66h28l281 1038h-12zM598 1135h-19l-194 -703h213v703z" />
    <glyph glyph-name="Ccedilla" unicode="&#xc7;" 
d="M955 387q15 47 55 47q35 0 54.5 -19t19.5 -41q0 -10 -5 -27q-30 -91 -76.5 -163.5t-105.5 -123.5q-52 -45 -112 -71q10 -37 10 -76q0 -67 -20.5 -127t-57 -108t-85.5 -81.5t-106 -47.5q-13 -4 -26 -4q-23 0 -40 18.5t-17 55.5q0 20 7.5 29.5t21 16t32.5 12.5t41 19
q35 20 61 50.5t42 75.5q2 9 3 11q-29 -6 -45 -6q-34 0 -64.5 13t-54 35.5t-37 53.5t-13.5 67v10q-86 50 -157 149q-136 190 -136 455q0 89 17 172t48.5 156t75.5 133t98.5 103t117.5 67t131 24q83 0 152.5 -35t123.5 -105q11 -14 15.5 -22t6.5 -9q5 27 10.5 57t15 56t24 43
t36.5 17q35 0 54 -19.5t19 -42.5q0 -12 -3 -25q-23 -72 -35 -146.5t-12 -152.5q0 -34 4.5 -68.5t4.5 -70.5q0 -29 -18.5 -45t-53.5 -16q-49 0 -58 56l-1 3v1q-15 93 -40.5 166t-61.5 123.5t-82 77.5t-101 27q-74 0 -139 -42.5t-113.5 -114.5t-76.5 -167t-28 -201t28 -201
t76.5 -167t113.5 -114q2 -1 3 -3q20 17 44 27q31 13 66 13q48 0 90 -26q20 -13 37 -32q48 22 90 61.5t76 95t56 123.5z" />
    <glyph glyph-name="Egrave" unicode="&#xc8;" 
d="M174 1135q-65 0 -65 65t65 65h775q50 0 64 -51l107 -400q4 -12 4 -26q0 -23 -19 -40t-56 -17q-42 0 -55 50l-95 354h-425v-454h213v117q0 65 65 65q66 0 66 -65v-411q0 -66 -66 -66q-65 0 -65 66v163h-213v-453h423q9 0 26 21l67 269q12 50 58 50q36 0 54 -17.5t18 -40.5
q0 -12 -3 -24l-85 -340q-12 -50 -56 -50l-802 1q-65 0 -65 65q0 66 65 66h170v1038h-170zM583 1784l302 -337q10 -11 15 -21t5 -22q0 -15 -6 -28t-15.5 -22.5t-20 -15t-19.5 -5.5t-18 3.5t-20 9.5l-410 235q-69 39 -69 108q0 28 13 54t35 45.5t50.5 31t59.5 11.5
q54 0 98 -47z" />
    <glyph glyph-name="Eacute" unicode="&#xc9;" 
d="M174 1135q-65 0 -65 65t65 65h775q50 0 64 -51l107 -400q4 -12 4 -26q0 -23 -19 -40t-56 -17q-42 0 -55 50l-95 354h-425v-454h213v117q0 65 65 65q66 0 66 -65v-411q0 -66 -66 -66q-65 0 -65 66v163h-213v-453h423q9 0 26 21l67 269q12 50 58 50q36 0 54 -17.5t18 -40.5
q0 -12 -3 -24l-85 -340q-12 -50 -56 -50l-802 1q-65 0 -65 65q0 66 65 66h170v1038h-170zM347 1447l302 337q42 47 98 47q29 0 57 -11.5t50.5 -31t36.5 -46.5t14 -57q0 -65 -68 -104l-411 -235q-11 -6 -20 -9.5t-18 -3.5t-19.5 5t-19.5 14t-15 22t-6 28q0 25 19 45z" />
    <glyph glyph-name="Ecircumflex" unicode="&#xca;" 
d="M174 1135q-65 0 -65 65t65 65h775q50 0 64 -51l107 -400q4 -12 4 -26q0 -23 -19 -40t-56 -17q-42 0 -55 50l-95 354h-425v-454h213v117q0 65 65 65q66 0 66 -65v-411q0 -66 -66 -66q-65 0 -65 66v163h-213v-453h423q9 0 26 21l67 269q12 50 58 50q36 0 54 -17.5t18 -40.5
q0 -12 -3 -24l-85 -340q-12 -50 -56 -50l-802 1q-65 0 -65 65q0 66 65 66h170v1038h-170zM206 1447l302 337q42 47 107.5 47t109.5 -47l302 -337q10 -11 15 -21t5 -22q0 -15 -6 -28t-15.5 -22.5t-20 -15t-19.5 -5.5t-18 3.5t-20 9.5l-331 190l-332 -190q-11 -6 -20 -9.5
t-18 -3.5t-19.5 5t-19.5 14t-15 22t-6 28q0 25 19 45z" />
    <glyph glyph-name="Edieresis" unicode="&#xcb;" 
d="M174 1135q-65 0 -65 65t65 65h775q50 0 64 -51l107 -400q4 -12 4 -26q0 -23 -19 -40t-56 -17q-42 0 -55 50l-95 354h-425v-454h213v117q0 65 65 65q66 0 66 -65v-411q0 -66 -66 -66q-65 0 -65 66v163h-213v-453h423q9 0 26 21l67 269q12 50 58 50q36 0 54 -17.5t18 -40.5
q0 -12 -3 -24l-85 -340q-12 -50 -56 -50l-802 1q-65 0 -65 65q0 66 65 66h170v1038h-170zM381 1624q22 0 41 -8.5t33.5 -23t23 -33.5t8.5 -41t-8.5 -41.5t-23 -34t-34 -23t-40.5 -8.5t-40.5 8t-34 22.5t-23 34t-8.5 42.5q0 22 8.5 41t23 33.5t33.5 23t41 8.5zM852 1624
q22 0 41 -8.5t33.5 -23t23 -33.5t8.5 -41t-8.5 -41.5t-23 -34t-34 -23t-40.5 -8.5q-23 0 -42.5 9t-34 23.5t-22.5 34t-8 40.5t8.5 40t22.5 34t33.5 23.5t42.5 8.5z" />
    <glyph glyph-name="Igrave" unicode="&#xcc;" 
d="M252 1135q-65 0 -65 65t65 65h729q65 0 65 -65t-65 -65h-299v-1038h299q65 0 65 -66q0 -65 -65 -65h-729q-65 0 -65 65q0 66 65 66h299v1038h-299zM583 1784l302 -337q10 -11 15 -21t5 -22q0 -15 -6 -28t-15.5 -22.5t-20 -15t-19.5 -5.5t-18 3.5t-20 9.5l-410 235
q-69 39 -69 108q0 28 13 54t35 45.5t50.5 31t59.5 11.5q54 0 98 -47z" />
    <glyph glyph-name="Iacute" unicode="&#xcd;" 
d="M252 1135q-65 0 -65 65t65 65h729q65 0 65 -65t-65 -65h-299v-1038h299q65 0 65 -66q0 -65 -65 -65h-729q-65 0 -65 65q0 66 65 66h299v1038h-299zM347 1447l302 337q42 47 98 47q29 0 57 -11.5t50.5 -31t36.5 -46.5t14 -57q0 -65 -68 -104l-411 -235q-11 -6 -20 -9.5
t-18 -3.5t-19.5 5t-19.5 14t-15 22t-6 28q0 25 19 45z" />
    <glyph glyph-name="Icircumflex" unicode="&#xce;" 
d="M252 1135q-65 0 -65 65t65 65h729q65 0 65 -65t-65 -65h-299v-1038h299q65 0 65 -66q0 -65 -65 -65h-729q-65 0 -65 65q0 66 65 66h299v1038h-299zM206 1447l302 337q42 47 107.5 47t109.5 -47l302 -337q10 -11 15 -21t5 -22q0 -15 -6 -28t-15.5 -22.5t-20 -15
t-19.5 -5.5t-18 3.5t-20 9.5l-331 190l-332 -190q-11 -6 -20 -9.5t-18 -3.5t-19.5 5t-19.5 14t-15 22t-6 28q0 25 19 45z" />
    <glyph glyph-name="Idieresis" unicode="&#xcf;" 
d="M252 1135q-65 0 -65 65t65 65h729q65 0 65 -65t-65 -65h-299v-1038h299q65 0 65 -66q0 -65 -65 -65h-729q-65 0 -65 65q0 66 65 66h299v1038h-299zM381 1624q22 0 41 -8.5t33.5 -23t23 -33.5t8.5 -41t-8.5 -41.5t-23 -34t-34 -23t-40.5 -8.5t-40.5 8t-34 22.5t-23 34
t-8.5 42.5q0 22 8.5 41t23 33.5t33.5 23t41 8.5zM852 1624q22 0 41 -8.5t33.5 -23t23 -33.5t8.5 -41t-8.5 -41.5t-23 -34t-34 -23t-40.5 -8.5q-23 0 -42.5 9t-34 23.5t-22.5 34t-8 40.5t8.5 40t22.5 34t33.5 23.5t42.5 8.5z" />
    <glyph glyph-name="Eth" unicode="&#xd0;" 
d="M174 409q-65 0 -65 65t65 65h165v596h-170q-65 0 -65 65t65 65h470q101 0 190 -47t156 -131t105.5 -199.5t38.5 -253.5q0 -159 -33.5 -283t-96.5 -209.5t-154 -130.5t-206 -45h-470q-65 0 -65 65q0 66 65 66h170v312h-165zM639 1135h-170v-596h251q65 0 65 -65t-65 -65
h-251v-312h170q1 -1 2 -1h3q87 1 153 37.5t111 105.5t68 168.5t23 226.5q0 109 -28 200.5t-77 158.5t-114.5 104.5t-140.5 37.5z" />
    <glyph glyph-name="Ntilde" unicode="&#xd1;" 
d="M113 1135q-65 0 -65 65t65 65h313q47 0 61 -44l384 -878v792h-173q-66 0 -66 65t66 65h439q65 0 65 -65t-65 -65h-135v-1104q0 -26 -20 -46.5t-52 -20.5q-35 0 -53 41l-484 1107v-1026h150q65 0 65 -66q0 -64 -65 -64h-448q-65 0 -65 64q0 66 65 66h167v1049h-149z
M837 1700q35 55 91 20q54 -35 19 -90q-102 -158 -191.5 -132t-176.5 89q-47 32 -92.5 47.5t-90.5 -55.5q-36 -56 -90 -19q-55 33 -20 90q101 157 190.5 131t177.5 -88q45 -33 91 -48.5t92 55.5z" />
    <glyph glyph-name="Ograve" unicode="&#xd2;" 
d="M616 1265q208 0 352 -198q69 -95 102.5 -208t33.5 -244q0 -264 -136 -451q-144 -198 -352 -198q-68 0 -130 23t-116.5 65.5t-99 102t-76 131.5t-49 155t-17.5 172q0 262 136 452q142 198 352 198zM862 990q-105 145 -246 145q-74 0 -139 -42t-113.5 -113t-76.5 -165.5
t-28 -199.5t28 -199t76.5 -165t113.5 -112.5t139 -41.5q73 0 138 41.5t114 112t77 165t28 199.5q0 222 -111 375zM583 1784l302 -337q10 -11 15 -21t5 -22q0 -15 -6 -28t-15.5 -22.5t-20 -15t-19.5 -5.5t-18 3.5t-20 9.5l-410 235q-69 39 -69 108q0 28 13 54t35 45.5
t50.5 31t59.5 11.5q54 0 98 -47z" />
    <glyph glyph-name="Oacute" unicode="&#xd3;" 
d="M616 1265q208 0 352 -198q69 -95 102.5 -208t33.5 -244q0 -264 -136 -451q-144 -198 -352 -198q-68 0 -130 23t-116.5 65.5t-99 102t-76 131.5t-49 155t-17.5 172q0 262 136 452q142 198 352 198zM862 990q-105 145 -246 145q-74 0 -139 -42t-113.5 -113t-76.5 -165.5
t-28 -199.5t28 -199t76.5 -165t113.5 -112.5t139 -41.5q73 0 138 41.5t114 112t77 165t28 199.5q0 222 -111 375zM347 1447l302 337q42 47 98 47q29 0 57 -11.5t50.5 -31t36.5 -46.5t14 -57q0 -65 -68 -104l-411 -235q-11 -6 -20 -9.5t-18 -3.5t-19.5 5t-19.5 14t-15 22
t-6 28q0 25 19 45z" />
    <glyph glyph-name="Ocircumflex" unicode="&#xd4;" 
d="M616 1265q208 0 352 -198q69 -95 102.5 -208t33.5 -244q0 -264 -136 -451q-144 -198 -352 -198q-68 0 -130 23t-116.5 65.5t-99 102t-76 131.5t-49 155t-17.5 172q0 262 136 452q142 198 352 198zM862 990q-105 145 -246 145q-74 0 -139 -42t-113.5 -113t-76.5 -165.5
t-28 -199.5t28 -199t76.5 -165t113.5 -112.5t139 -41.5q73 0 138 41.5t114 112t77 165t28 199.5q0 222 -111 375zM206 1447l302 337q42 47 107.5 47t109.5 -47l302 -337q10 -11 15 -21t5 -22q0 -15 -6 -28t-15.5 -22.5t-20 -15t-19.5 -5.5t-18 3.5t-20 9.5l-331 190
l-332 -190q-11 -6 -20 -9.5t-18 -3.5t-19.5 5t-19.5 14t-15 22t-6 28q0 25 19 45z" />
    <glyph glyph-name="Otilde" unicode="&#xd5;" 
d="M616 1265q208 0 352 -198q69 -95 102.5 -208t33.5 -244q0 -264 -136 -451q-144 -198 -352 -198q-68 0 -130 23t-116.5 65.5t-99 102t-76 131.5t-49 155t-17.5 172q0 262 136 452q142 198 352 198zM862 990q-105 145 -246 145q-74 0 -139 -42t-113.5 -113t-76.5 -165.5
t-28 -199.5t28 -199t76.5 -165t113.5 -112.5t139 -41.5q73 0 138 41.5t114 112t77 165t28 199.5q0 222 -111 375zM837 1700q35 55 91 20q54 -35 19 -90q-102 -158 -191.5 -132t-176.5 89q-47 32 -92.5 47.5t-90.5 -55.5q-36 -56 -90 -19q-55 33 -20 90q101 157 190.5 131
t177.5 -88q45 -33 91 -48.5t92 55.5z" />
    <glyph glyph-name="Odieresis" unicode="&#xd6;" 
d="M616 1265q208 0 352 -198q69 -95 102.5 -208t33.5 -244q0 -264 -136 -451q-144 -198 -352 -198q-68 0 -130 23t-116.5 65.5t-99 102t-76 131.5t-49 155t-17.5 172q0 262 136 452q142 198 352 198zM862 990q-105 145 -246 145q-74 0 -139 -42t-113.5 -113t-76.5 -165.5
t-28 -199.5t28 -199t76.5 -165t113.5 -112.5t139 -41.5q73 0 138 41.5t114 112t77 165t28 199.5q0 222 -111 375zM381 1624q22 0 41 -8.5t33.5 -23t23 -33.5t8.5 -41t-8.5 -41.5t-23 -34t-34 -23t-40.5 -8.5t-40.5 8t-34 22.5t-23 34t-8.5 42.5q0 22 8.5 41t23 33.5t33.5 23
t41 8.5zM852 1624q22 0 41 -8.5t33.5 -23t23 -33.5t8.5 -41t-8.5 -41.5t-23 -34t-34 -23t-40.5 -8.5q-23 0 -42.5 9t-34 23.5t-22.5 34t-8 40.5t8.5 40t22.5 34t33.5 23.5t42.5 8.5z" />
    <glyph glyph-name="multiply" unicode="&#xd7;" 
d="M306 692q-46 46 0 92t92 0l218 -218l218 218q46 46 92 0t0 -92l-218 -218l219 -219q46 -46 0 -92t-92 0l-219 219l-219 -219q-46 -46 -92 0t0 92l219 219z" />
    <glyph glyph-name="Oslash" unicode="&#xd8;" 
d="M930 1391q17 40 51 40q16 0 30 -6t24 -15.5t15.5 -20.5t5.5 -21q-1 -8 -2.5 -16.5t-6.5 -17.5l-111 -227q16 -19 32 -40q69 -95 102.5 -208t33.5 -244q0 -264 -136 -451q-144 -198 -352 -198q-68 0 -130 23q-41 15 -78 38l-104 -213q-20 -39 -53 -39q-16 0 -29.5 5.5
t-23.5 14.5t-15.5 19.5t-5.5 20.5q0 14 10 36l118 242q-18 21 -35 43q-44 60 -75.5 132t-49 155t-17.5 172q0 262 136 452q142 198 352 198q121 0 220 -67zM616 1135q-74 0 -139 -42t-113.5 -113t-76.5 -165.5t-28 -199.5t28 -199t76 -165l6 -8l408 836q-73 56 -161 56z
M477 138q65 -41 139 -41q73 0 138 41.5t114 112t77 165t28 199.5q0 212 -101 361l-406 -831z" />
    <glyph glyph-name="Ugrave" unicode="&#xd9;" 
d="M341 1135v-810q0 -48 22 -89.5t59.5 -72t87.5 -48.5t106 -18q55 0 105 17.5t87.5 48.5t59.5 72.5t22 89.5v810h-166q-66 0 -66 65t66 65h395q66 0 66 -65t-66 -65h-99v-810q0 -74 -32 -139.5t-87 -114t-128.5 -77t-156.5 -28.5q-85 0 -159 29t-128.5 78t-86 114.5
t-31.5 137.5v810h-99q-65 0 -65 65t65 65h395q66 0 66 -65t-66 -65h-166zM583 1784l302 -337q10 -11 15 -21t5 -22q0 -15 -6 -28t-15.5 -22.5t-20 -15t-19.5 -5.5t-18 3.5t-20 9.5l-410 235q-69 39 -69 108q0 28 13 54t35 45.5t50.5 31t59.5 11.5q54 0 98 -47z" />
    <glyph glyph-name="Uacute" unicode="&#xda;" 
d="M341 1135v-810q0 -48 22 -89.5t59.5 -72t87.5 -48.5t106 -18q55 0 105 17.5t87.5 48.5t59.5 72.5t22 89.5v810h-166q-66 0 -66 65t66 65h395q66 0 66 -65t-66 -65h-99v-810q0 -74 -32 -139.5t-87 -114t-128.5 -77t-156.5 -28.5q-85 0 -159 29t-128.5 78t-86 114.5
t-31.5 137.5v810h-99q-65 0 -65 65t65 65h395q66 0 66 -65t-66 -65h-166zM347 1447l302 337q42 47 98 47q29 0 57 -11.5t50.5 -31t36.5 -46.5t14 -57q0 -65 -68 -104l-411 -235q-11 -6 -20 -9.5t-18 -3.5t-19.5 5t-19.5 14t-15 22t-6 28q0 25 19 45z" />
    <glyph glyph-name="Ucircumflex" unicode="&#xdb;" 
d="M341 1135v-810q0 -48 22 -89.5t59.5 -72t87.5 -48.5t106 -18q55 0 105 17.5t87.5 48.5t59.5 72.5t22 89.5v810h-166q-66 0 -66 65t66 65h395q66 0 66 -65t-66 -65h-99v-810q0 -74 -32 -139.5t-87 -114t-128.5 -77t-156.5 -28.5q-85 0 -159 29t-128.5 78t-86 114.5
t-31.5 137.5v810h-99q-65 0 -65 65t65 65h395q66 0 66 -65t-66 -65h-166zM206 1447l302 337q42 47 107.5 47t109.5 -47l302 -337q10 -11 15 -21t5 -22q0 -15 -6 -28t-15.5 -22.5t-20 -15t-19.5 -5.5t-18 3.5t-20 9.5l-331 190l-332 -190q-11 -6 -20 -9.5t-18 -3.5t-19.5 5
t-19.5 14t-15 22t-6 28q0 25 19 45z" />
    <glyph glyph-name="Udieresis" unicode="&#xdc;" 
d="M341 1135v-810q0 -48 22 -89.5t59.5 -72t87.5 -48.5t106 -18q55 0 105 17.5t87.5 48.5t59.5 72.5t22 89.5v810h-166q-66 0 -66 65t66 65h395q66 0 66 -65t-66 -65h-99v-810q0 -74 -32 -139.5t-87 -114t-128.5 -77t-156.5 -28.5q-85 0 -159 29t-128.5 78t-86 114.5
t-31.5 137.5v810h-99q-65 0 -65 65t65 65h395q66 0 66 -65t-66 -65h-166zM381 1624q22 0 41 -8.5t33.5 -23t23 -33.5t8.5 -41t-8.5 -41.5t-23 -34t-34 -23t-40.5 -8.5t-40.5 8t-34 22.5t-23 34t-8.5 42.5q0 22 8.5 41t23 33.5t33.5 23t41 8.5zM852 1624q22 0 41 -8.5
t33.5 -23t23 -33.5t8.5 -41t-8.5 -41.5t-23 -34t-34 -23t-40.5 -8.5q-23 0 -42.5 9t-34 23.5t-22.5 34t-8 40.5t8.5 40t22.5 34t33.5 23.5t42.5 8.5z" />
    <glyph glyph-name="Yacute" unicode="&#xdd;" 
d="M714 1135q-66 0 -66 65t66 65h412q66 0 66 -65t-66 -65h-126l-319 -599v-439h235q66 0 66 -66q0 -65 -66 -65h-602q-65 0 -65 65q0 66 65 66h237v439l-319 599h-127q-65 0 -65 65t65 65h412q66 0 66 -65t-66 -65h-138l236 -444l237 444h-138zM347 1447l302 337
q42 47 98 47q29 0 57 -11.5t50.5 -31t36.5 -46.5t14 -57q0 -65 -68 -104l-411 -235q-11 -6 -20 -9.5t-18 -3.5t-19.5 5t-19.5 14t-15 22t-6 28q0 25 19 45z" />
    <glyph glyph-name="Thorn" unicode="&#xde;" 
d="M365 1135h-175q-65 0 -65 65t65 65h570q65 0 65 -65t-65 -65h-264v-160h280q50 0 108.5 -24.5t108.5 -69.5t83 -109.5t33 -144.5q0 -51 -15 -99t-43 -90t-68 -75.5t-89 -54.5q-69 -29 -118 -29h-280v-182h266q66 0 66 -66q0 -65 -66 -65h-574q-65 0 -65 65q0 66 65 66
h178zM496 409h280q32 0 67.5 17t65.5 46.5t50 69t20 85.5q0 47 -19.5 87t-49.5 69t-65.5 45.5t-68.5 16.5h-280v-436z" />
    <glyph glyph-name="germandbls" unicode="&#xdf;" 
d="M191 -34q-65 0 -65 65q0 66 65 66h94v747q11 194 112.5 293t284.5 99q82 0 149 -23.5t115 -63.5t74.5 -93t26.5 -113q0 -31 -7 -65.5t-23.5 -68.5t-45 -64.5t-70.5 -53.5q46 -31 84 -72.5t65 -90.5t41.5 -103.5t14.5 -109.5q0 -69 -22.5 -132.5t-67.5 -111.5t-112 -76.5
t-155 -28.5q-29 0 -54.5 9.5t-44 29t-29.5 48t-11 66.5q0 33 10.5 60.5t27.5 47t40 30.5t48 11q79 0 79 -59q0 -36 -16 -54t-45 -18q-2 0 -5 0.5t-5 0.5q-4 -7 -4 -23q0 -7 2.5 -12.5t6.5 -5.5q51 0 93 14t71.5 42t46 69t16.5 94q0 52 -21 107.5t-62.5 102t-104 76.5
t-146.5 30h-24q-59 0 -59 65q0 30 15.5 47t47.5 17h22q87 3 140.5 20.5t83 44.5t40 60.5t10.5 67.5q-3 33 -22.5 61t-52 48t-75 31.5t-90.5 11.5q-66 -2 -114 -18t-79.5 -48.5t-48 -82t-20.5 -117.5v-743h109q66 0 66 -66q0 -65 -66 -65h-334z" />
    <glyph glyph-name="agrave" unicode="&#xe0;" 
d="M358 702q15 -23 15 -47q0 -44 -28 -69.5t-70 -25.5q-38 0 -64 28t-26 69q0 48 26 86.5t73 65t112.5 40.5t143.5 14q84 0 155 -18.5t122 -52t80 -80.5t29 -103v-405q0 -20 2 -39t6 -34t9.5 -24.5t13.5 -9.5q2 0 2 -1q11 4 17.5 35t6.5 70v14q0 66 68 66q29 0 45.5 -15.5
t16.5 -47.5v-17q0 -120 -41.5 -176.5t-116.5 -58.5q-51 1 -89 31q-38 31 -56 97q-158 -128 -310 -128q-81 0 -151 20t-121 56.5t-80 87t-29 111.5q0 163 124 212q122 49 282 76q73 12 145 27.5t126 45.5v7q0 27 -21 50t-56.5 39.5t-82 25.5t-96.5 9q-61 0 -107.5 -8
t-74.5 -23zM796 257v202q-58 -23 -122 -35.5t-127 -23.5q-58 -11 -109.5 -23t-97.5 -26q-90 -29 -90 -110q0 -32 19 -58.5t52.5 -45.5t79.5 -29.5t99 -10.5q39 0 76.5 12.5t74 34t72.5 50.5t73 63zM583 1382l302 -337q10 -11 15 -21t5 -22q0 -15 -6 -28t-15.5 -22.5t-20 -15
t-19.5 -5.5t-18 3.5t-20 9.5l-410 235q-69 39 -69 108q0 28 13 54t35 45.5t50.5 31t59.5 11.5q54 0 98 -47z" />
    <glyph glyph-name="aacute" unicode="&#xe1;" 
d="M959 96q11 4 17.5 35t6.5 70v14q0 66 68 66q29 0 45.5 -15.5t16.5 -47.5v-17q0 -120 -41.5 -176.5t-116.5 -58.5q-51 1 -89 31q-38 31 -56 97q-158 -128 -310 -128q-81 0 -151 20t-121 56.5t-80 87t-29 111.5q0 163 124 212q122 49 282 76q73 12 145 27.5t126 45.5v7
q0 27 -21 50t-56.5 39.5t-82 25.5t-96.5 9q-61 0 -107.5 -8t-74.5 -23q15 -23 15 -47q0 -44 -28 -69.5t-70 -25.5q-38 0 -64 28t-26 69q0 48 26 86.5t73 65t112.5 40.5t143.5 14q84 0 155 -18.5t122 -52t80 -80.5t29 -103v-405q0 -20 2 -39t6 -34t9.5 -24.5t13.5 -9.5
q2 0 2 -1zM796 257v202q-58 -23 -122 -35.5t-127 -23.5q-58 -11 -109.5 -23t-97.5 -26q-90 -29 -90 -110q0 -32 19 -58.5t52.5 -45.5t79.5 -29.5t99 -10.5q39 0 76.5 12.5t74 34t72.5 50.5t73 63zM347 1045l302 337q42 47 98 47q29 0 57 -11.5t50.5 -31t36.5 -46.5t14 -57
q0 -65 -68 -104l-411 -235q-11 -6 -20 -9.5t-18 -3.5t-19.5 5t-19.5 14t-15 22t-6 28q0 25 19 45z" />
    <glyph glyph-name="acircumflex" unicode="&#xe2;" 
d="M959 96q11 4 17.5 35t6.5 70v14q0 66 68 66q29 0 45.5 -15.5t16.5 -47.5v-17q0 -120 -41.5 -176.5t-116.5 -58.5q-51 1 -89 31q-38 31 -56 97q-158 -128 -310 -128q-81 0 -151 20t-121 56.5t-80 87t-29 111.5q0 163 124 212q122 49 282 76q73 12 145 27.5t126 45.5v7
q0 27 -21 50t-56.5 39.5t-82 25.5t-96.5 9q-61 0 -107.5 -8t-74.5 -23q15 -23 15 -47q0 -44 -28 -69.5t-70 -25.5q-38 0 -64 28t-26 69q0 48 26 86.5t73 65t112.5 40.5t143.5 14q84 0 155 -18.5t122 -52t80 -80.5t29 -103v-405q0 -20 2 -39t6 -34t9.5 -24.5t13.5 -9.5
q2 0 2 -1zM206 1045l302 337q42 47 107.5 47t109.5 -47l302 -337q10 -11 15 -21t5 -22q0 -15 -6 -28t-15.5 -22.5t-20 -15t-19.5 -5.5t-18 3.5t-20 9.5l-331 190l-332 -190q-11 -6 -20 -9.5t-18 -3.5t-19.5 5t-19.5 14t-15 22t-6 28q0 25 19 45zM796 257v202
q-58 -23 -122 -35.5t-127 -23.5q-58 -11 -109.5 -23t-97.5 -26q-90 -29 -90 -110q0 -32 19 -58.5t52.5 -45.5t79.5 -29.5t99 -10.5q39 0 76.5 12.5t74 34t72.5 50.5t73 63z" />
    <glyph glyph-name="atilde" unicode="&#xe3;" 
d="M959 96q11 4 17.5 35t6.5 70v14q0 66 68 66q29 0 45.5 -15.5t16.5 -47.5v-17q0 -120 -42 -177q-41 -55 -114 -58q-52 0 -90.5 31t-56.5 97q-158 -128 -310 -128q-81 0 -151 20t-121 56.5t-80 87t-29 111.5q0 163 124 212q122 49 282 76q73 12 145 27.5t126 45.5v7
q0 27 -21 50t-56.5 39.5t-82 25.5t-96.5 9q-61 0 -107.5 -8t-74.5 -23q15 -23 15 -47q0 -44 -28 -69.5t-70 -25.5q-38 0 -64 28t-26 69q0 48 26 86.5t73 65t112.5 40.5t143.5 14q84 0 155 -18.5t122 -52t80 -80.5t29 -103v-405q0 -20 2 -39t6 -34t9.5 -24.5t13.5 -9.5
q2 0 2 -1zM796 257v202q-58 -23 -122 -35.5t-127 -23.5q-58 -11 -109.5 -23t-97.5 -26q-90 -29 -90 -110q0 -32 19 -58.5t52.5 -45.5t79.5 -29.5t99 -10.5q39 0 76.5 12.5t74 34t72.5 50.5t73 63zM837 1298q35 55 91 20q54 -35 19 -90q-102 -158 -191.5 -132t-176.5 89
q-47 32 -92.5 47.5t-90.5 -55.5q-36 -56 -90 -19q-55 33 -20 90q101 157 190.5 131t177.5 -88q45 -33 91 -48.5t92 55.5z" />
    <glyph glyph-name="adieresis" unicode="&#xe4;" 
d="M358 702q15 -23 15 -47q0 -44 -28 -69.5t-70 -25.5q-38 0 -64 28t-26 69q0 48 26 86.5t73 65t112.5 40.5t143.5 14q84 0 155 -18.5t122 -52t80 -80.5t29 -103v-405q0 -20 2 -39t6 -34t9.5 -24.5t13.5 -9.5q2 0 2 -1q11 4 17.5 35t6.5 70v14q0 66 68 66q29 0 45.5 -15.5
t16.5 -47.5v-17q0 -120 -41.5 -176.5t-116.5 -58.5q-51 1 -89 31q-38 31 -56 97q-158 -128 -310 -128q-81 0 -151 20t-121 56.5t-80 87t-29 111.5q0 163 124 212q122 49 282 76q73 12 145 27.5t126 45.5v7q0 27 -21 50t-56.5 39.5t-82 25.5t-96.5 9q-61 0 -107.5 -8
t-74.5 -23zM796 257v202q-58 -23 -122 -35.5t-127 -23.5q-58 -11 -109.5 -23t-97.5 -26q-90 -29 -90 -110q0 -32 19 -58.5t52.5 -45.5t79.5 -29.5t99 -10.5q39 0 76.5 12.5t74 34t72.5 50.5t73 63zM852 1222q22 0 41 -8.5t33.5 -23t23 -33.5t8.5 -41t-8.5 -41.5t-23 -34
t-34 -23t-40.5 -8.5q-23 0 -42.5 9t-34 23.5t-22.5 34t-8 40.5t8.5 40t22.5 34t33.5 23.5t42.5 8.5zM381 1222q22 0 41 -8.5t33.5 -23t23 -33.5t8.5 -41t-8.5 -41.5t-23 -34t-34 -23t-40.5 -8.5t-40.5 8t-34 22.5t-23 34t-8.5 42.5q0 22 8.5 41t23 33.5t33.5 23t41 8.5z" />
    <glyph glyph-name="aring" unicode="&#xe5;" 
d="M358 702q15 -23 15 -47q0 -44 -28 -69.5t-70 -25.5q-38 0 -64 28t-26 69q0 48 26 86.5t73 65t112.5 40.5t143.5 14q84 0 155 -18.5t122 -52t80 -80.5t29 -103v-405q0 -20 2 -39t6 -34t9.5 -24.5t13.5 -9.5q2 0 2 -1q11 4 17.5 35t6.5 70v14q0 66 68 66q29 0 45.5 -15.5
t16.5 -47.5v-17q0 -120 -41.5 -176.5t-116.5 -58.5q-51 1 -89 31q-38 31 -56 97q-158 -128 -310 -128q-81 0 -151 20t-121 56.5t-80 87t-29 111.5q0 163 124 212q122 49 282 76q73 12 145 27.5t126 45.5v7q0 27 -21 50t-56.5 39.5t-82 25.5t-96.5 9q-61 0 -107.5 -8
t-74.5 -23zM861 1142l-1 -2q-1 -86 -71 -150q-56 -51 -132.5 -74t-155 -20t-150 30.5t-116.5 76.5q-51 55 -51 127q-2 3 1 5v1q-1 85 68 149q101 92 264 96h5q85 0 159.5 -25.5t124.5 -80.5q51 -55 54 -129l-1 -4h2zM796 257v202q-58 -23 -122 -35.5t-127 -23.5
q-58 -11 -109.5 -23t-97.5 -26q-90 -29 -90 -110q0 -32 19 -58.5t52.5 -45.5t79.5 -29.5t99 -10.5q39 0 76.5 12.5t74 34t72.5 50.5t73 63zM730 1140q0 12 -5.5 24.5t-15.5 23.5q-29 31 -77 46.5t-101 15.5t-103.5 -14.5t-82.5 -44.5q-24 -23 -29 -50t17 -52
q31 -33 82.5 -49t109.5 -14v-1q55 3 100 18.5t76 43.5q27 25 29 53z" />
    <glyph glyph-name="ae" unicode="&#xe6;" 
d="M1021 224q15 25 59 25q8 0 16 -6.5t15 -16t11.5 -21.5t4.5 -24q0 -22 -13.5 -47t-33.5 -49t-42 -44t-38 -32q-68 -48 -125 -48q-69 0 -128.5 35t-104.5 95q-20 28 -36 60q-25 -49 -89 -117q-67 -73 -168 -73q-54 0 -100.5 20t-80.5 56.5t-53 87t-19 111.5q0 163 82 212
q81 49 187 76q49 12 88.5 27.5t75.5 45.5v7q0 27 -14 50t-29.5 39.5t-46 25.5t-64.5 9q-40 0 -56.5 -8t-34.5 -23q10 -23 10 -47q0 -44 -19 -69.5t-46 -25.5q-55 0 -72 28t-17 69q0 48 17 86.5t48.5 65t75 40.5t94.5 14q56 0 103 -18.5t81 -52t53 -80.5q3 -7 5 -14
q10 17 21 32q41 62 97 97.5t119 35.5q61 0 114 -34.5t92.5 -94.5t61.5 -142t22 -177q0 -66 -43 -66h-431q9 -58 46.5 -137.5t76.5 -97t82 -17.5q19 0 42 9t45.5 25.5t31 41t27.5 56.5zM545 252v202q-38 -23 -80.5 -35.5t-84.5 -23.5q-38 -11 -57 -23t-49 -26
q-60 -29 -60 -110q0 -32 12.5 -58.5t35 -45.5t37.5 -29.5t50 -10.5q26 0 51 12.5t49 34t48 50.5t48 63zM683 566l-14 -91h356q-8 59 -20 103t-30.5 79.5t-51.5 53t-69 17.5q-92 0 -171 -162z" />
    <glyph glyph-name="ccedilla" unicode="&#xe7;" 
d="M921 253q20 35 50 35q15 0 28 -6t23.5 -15t16.5 -20t6 -21q0 -17 -12 -38q-30 -53 -73.5 -94t-96.5 -70q-37 -20 -78 -33v-1q10 -38 10 -77q0 -67 -20.5 -127t-57 -108t-85.5 -81.5t-106 -47.5q-13 -4 -26 -4q-23 0 -40 18.5t-17 55.5q0 20 7.5 29.5t21 16t32.5 12.5
t41 19q35 20 61 50.5t42 75.5q2 9 3 11q-29 -6 -45 -6q-34 0 -64.5 13t-54 35.5t-37 53.5t-13.5 67v4q-74 28 -128 78q-58 54 -89.5 131t-31.5 173q0 102 34 189.5t93.5 152.5t141 102t177.5 37q79 0 144 -21t111 -57t71.5 -85t27.5 -106v-4q0 -31 -15 -60t-38.5 -52.5
t-53 -37.5t-58.5 -15h-3q-24 0 -45 7.5t-36.5 21.5t-25 34.5t-9.5 46.5q0 21 8 39.5t22 32t32 21.5t39 8q11 0 23 -2t23 -7q-19 50 -75 78t-142 28q-71 0 -129 -27.5t-99 -75.5t-64 -112t-23 -136q0 -142 82 -214q37 -32 88 -49q22 21 51 33q31 13 66 13q48 0 90 -26
q19 -12 35 -30q38 11 72 29q75 42 118 115z" />
    <glyph glyph-name="egrave" unicode="&#xe8;" 
d="M925 229q22 25 45 25q11 0 23.5 -6.5t23 -16t17.5 -21.5t7 -24q0 -22 -21 -47t-51 -49t-63 -44t-57 -32q-102 -48 -188 -48q-104 0 -194 35t-156.5 95.5t-105 142.5t-38.5 176q0 91 36.5 172.5t99.5 143t147 97t179 35.5q92 0 172 -34.5t139 -94.5t92.5 -142t33.5 -177
q0 -66 -65 -66h-696q13 -58 46 -104.5t80 -79.5t106 -50.5t124 -17.5q29 0 63 9t68.5 25.5t68.5 41t64 56.5zM393 639q-68 -68 -89 -159h626q-12 59 -39.5 106t-67.5 79.5t-89.5 50t-104.5 17.5q-139 0 -236 -94zM583 1382l302 -337q10 -11 15 -21t5 -22q0 -15 -6 -28
t-15.5 -22.5t-20 -15t-19.5 -5.5t-18 3.5t-20 9.5l-410 235q-69 39 -69 108q0 28 13 54t35 45.5t50.5 31t59.5 11.5q54 0 98 -47z" />
    <glyph glyph-name="eacute" unicode="&#xe9;" 
d="M925 229q22 25 45 25q11 0 23.5 -6.5t23 -16t17.5 -21.5t7 -24q0 -22 -21 -47t-51 -49t-63 -44t-57 -32q-102 -48 -188 -48q-104 0 -194 35t-156.5 95.5t-105 142.5t-38.5 176q0 91 36.5 172.5t99.5 143t147 97t179 35.5q92 0 172 -34.5t139 -94.5t92.5 -142t33.5 -177
q0 -66 -65 -66h-696q13 -58 46 -104.5t80 -79.5t106 -50.5t124 -17.5q29 0 63 9t68.5 25.5t68.5 41t64 56.5zM393 639q-68 -68 -89 -159h626q-12 59 -39.5 106t-67.5 79.5t-89.5 50t-104.5 17.5q-139 0 -236 -94zM347 1045l302 337q42 47 98 47q29 0 57 -11.5t50.5 -31
t36.5 -46.5t14 -57q0 -65 -68 -104l-411 -235q-11 -6 -20 -9.5t-18 -3.5t-19.5 5t-19.5 14t-15 22t-6 28q0 25 19 45z" />
    <glyph glyph-name="ecircumflex" unicode="&#xea;" 
d="M925 229q22 25 45 25q11 0 23.5 -6.5t23 -16t17.5 -21.5t7 -24q0 -22 -21 -47t-51 -49t-63 -44t-57 -32q-102 -48 -188 -48q-104 0 -194 35t-156.5 95.5t-105 142.5t-38.5 176q0 91 36.5 172.5t99.5 143t147 97t179 35.5q92 0 172 -34.5t139 -94.5t92.5 -142t33.5 -177
q0 -66 -65 -66h-696q13 -58 46 -104.5t80 -79.5t106 -50.5t124 -17.5q29 0 63 9t68.5 25.5t68.5 41t64 56.5zM393 639q-68 -68 -89 -159h626q-12 59 -39.5 106t-67.5 79.5t-89.5 50t-104.5 17.5q-139 0 -236 -94zM206 1045l302 337q42 47 107.5 47t109.5 -47l302 -337
q10 -11 15 -21t5 -22q0 -15 -6 -28t-15.5 -22.5t-20 -15t-19.5 -5.5t-18 3.5t-20 9.5l-331 190l-332 -190q-11 -6 -20 -9.5t-18 -3.5t-19.5 5t-19.5 14t-15 22t-6 28q0 25 19 45z" />
    <glyph glyph-name="edieresis" unicode="&#xeb;" 
d="M925 229q22 25 45 25q11 0 23.5 -6.5t23 -16t17.5 -21.5t7 -24q0 -22 -21 -47t-51 -49t-63 -44t-57 -32q-102 -48 -188 -48q-104 0 -194 35t-156.5 95.5t-105 142.5t-38.5 176q0 91 36.5 172.5t99.5 143t147 97t179 35.5q92 0 172 -34.5t139 -94.5t92.5 -142t33.5 -177
q0 -66 -65 -66h-696q13 -58 46 -104.5t80 -79.5t106 -50.5t124 -17.5q29 0 63 9t68.5 25.5t68.5 41t64 56.5zM393 639q-68 -68 -89 -159h626q-12 59 -39.5 106t-67.5 79.5t-89.5 50t-104.5 17.5q-139 0 -236 -94zM381 1222q22 0 41 -8.5t33.5 -23t23 -33.5t8.5 -41
t-8.5 -41.5t-23 -34t-34 -23t-40.5 -8.5t-40.5 8t-34 22.5t-23 34t-8.5 42.5q0 22 8.5 41t23 33.5t33.5 23t41 8.5zM852 1222q22 0 41 -8.5t33.5 -23t23 -33.5t8.5 -41t-8.5 -41.5t-23 -34t-34 -23t-40.5 -8.5q-23 0 -42.5 9t-34 23.5t-22.5 34t-8 40.5t8.5 40t22.5 34
t33.5 23.5t42.5 8.5z" />
    <glyph glyph-name="igrave" unicode="&#xec;" 
d="M987 97q65 0 65 -66q0 -65 -65 -65h-741q-65 0 -65 65q0 66 65 66h285v636h-285q-65 0 -65 65t65 65h351q65 0 65 -65v-701h325zM583 1382l302 -337q10 -11 15 -21t5 -22q0 -15 -6 -28t-15.5 -22.5t-20 -15t-19.5 -5.5t-18 3.5t-20 9.5l-410 235q-69 39 -69 108
q0 28 13 54t35 45.5t50.5 31t59.5 11.5q54 0 98 -47z" />
    <glyph glyph-name="iacute" unicode="&#xed;" 
d="M987 97q65 0 65 -66q0 -65 -65 -65h-741q-65 0 -65 65q0 66 65 66h285v636h-285q-65 0 -65 65t65 65h351q65 0 65 -65v-701h325zM347 1045l302 337q42 47 98 47q29 0 57 -11.5t50.5 -31t36.5 -46.5t14 -57q0 -65 -68 -104l-411 -235q-11 -6 -20 -9.5t-18 -3.5t-19.5 5
t-19.5 14t-15 22t-6 28q0 25 19 45z" />
    <glyph glyph-name="icircumflex" unicode="&#xee;" 
d="M987 97q65 0 65 -66q0 -65 -65 -65h-741q-65 0 -65 65q0 66 65 66h285v636h-285q-65 0 -65 65t65 65h351q65 0 65 -65v-701h325zM206 1045l302 337q42 47 98 47h21q54 0 98 -47l302 -337q10 -11 15 -21t5 -22q0 -15 -6 -28t-15.5 -22.5t-20 -15t-19.5 -5.5t-18 3.5
t-20 9.5l-331 190l-332 -190q-11 -6 -20 -9.5t-18 -3.5t-19.5 5t-19.5 14t-15 22t-6 28q0 25 19 45z" />
    <glyph glyph-name="idieresis" unicode="&#xef;" 
d="M987 97q65 0 65 -66q0 -65 -65 -65h-741q-65 0 -65 65q0 66 65 66h285v636h-285q-65 0 -65 65t65 65h351q65 0 65 -65v-701h325zM381 1222q22 0 41 -8.5t33.5 -23t23 -33.5t8.5 -41t-8.5 -41.5t-23 -34t-34 -23t-40.5 -8.5t-40.5 8t-34 22.5t-23 34t-8.5 42.5
q0 22 8.5 41t23 33.5t33.5 23t41 8.5zM852 1222q22 0 41 -8.5t33.5 -23t23 -33.5t8.5 -41t-8.5 -41.5t-23 -34t-34 -23t-40.5 -8.5q-23 0 -42.5 9t-34 23.5t-22.5 34t-8 40.5t8.5 40t22.5 34t33.5 23.5t42.5 8.5z" />
    <glyph glyph-name="eth" unicode="&#xf0;" 
d="M347 1045l171 190q-10 6 -21 11q-99 49 -213 58q-60 4 -60 62q0 34 16.5 51t45.5 17h8q142 -13 264 -75q24 -12 48 -25l43 48q42 47 98 47q29 0 57 -11.5t50.5 -31t36.5 -46.5t14 -57q0 -65 -68 -104l-25 -15q50 -56 89 -117q51 -80 83.5 -167.5t47 -183.5t14.5 -199
q0 -256 -110 -393.5t-318 -137.5q-99 0 -178.5 29.5t-136 83.5t-87 130t-30.5 169q0 80 28.5 152t80.5 127t124 87t159 32q88 0 175 -29.5t153 -95.5q-12 131 -68 245q-52 108 -143 202l-269 -154q-11 -6 -20 -9.5t-18 -3.5t-19.5 5t-19.5 14t-15 22t-6 28q0 25 19 45z
M905 361q-3 9 -3 17v6q0 49 -25.5 95t-68 82.5t-98 59.5t-115.5 25q-62 0 -113.5 -19.5t-88 -55t-56.5 -85t-20 -108.5q0 -134 77.5 -207.5t223.5 -73.5q124 0 195 64t92 200z" />
    <glyph glyph-name="ntilde" unicode="&#xf1;" 
d="M148 733q-64 0 -64 65t64 65h170q32 0 49.5 -16.5t16.5 -48.5l-3 -135q54 52 102.5 89.5t93.5 62t88 36.5t88 12q114 0 180 -75.5t71 -215.5l11 -475h109q65 0 65 -66q0 -65 -65 -65h-362q-65 0 -65 65q0 66 65 66h124l-13 472q-5 83 -31 123.5t-89 40.5
q-42 0 -87.5 -20.5t-92.5 -56t-96.5 -84t-98.5 -104.5l-7 -371h121q66 0 66 -66q0 -65 -66 -65h-384q-65 0 -65 65q0 66 65 66h133l6 374q-2 5 -2 9v10q0 10 3 21l5 222h-105zM837 1298q35 55 91 20q54 -35 19 -90q-102 -158 -191.5 -132t-176.5 89q-47 32 -92.5 47.5
t-90.5 -55.5q-36 -56 -90 -19q-55 33 -20 90q101 157 190.5 131t177.5 -88q45 -33 91 -48.5t92 55.5z" />
    <glyph glyph-name="ograve" unicode="&#xf2;" 
d="M616 863q88 0 166 -35.5t136.5 -97t93 -143t34.5 -172.5q0 -93 -34 -174.5t-92.5 -142.5t-137 -96.5t-166.5 -35.5q-89 0 -167 35t-136.5 96t-92.5 143t-34 175q0 92 34.5 173.5t93 142.5t136.5 96.5t166 35.5zM827 640q-89 93 -211 93q-61 0 -115.5 -25t-95 -68.5
t-64.5 -101.5t-24 -123t23 -122.5t63 -101t94.5 -69t118.5 -25.5q63 0 117.5 25t95 68.5t64 101.5t23.5 123q0 131 -89 225zM583 1382l302 -337q10 -11 15 -21t5 -22q0 -15 -6 -28t-15.5 -22.5t-20 -15t-19.5 -5.5t-18 3.5t-20 9.5l-410 235q-69 39 -69 108q0 28 13 54
t35 45.5t50.5 31t59.5 11.5q54 0 98 -47z" />
    <glyph glyph-name="oacute" unicode="&#xf3;" 
d="M616 863q88 0 166 -35.5t136.5 -97t93 -143t34.5 -172.5q0 -93 -34 -174.5t-92.5 -142.5t-137 -96.5t-166.5 -35.5q-89 0 -167 35t-136.5 96t-92.5 143t-34 175q0 92 34.5 173.5t93 142.5t136.5 96.5t166 35.5zM827 640q-89 93 -211 93q-61 0 -115.5 -25t-95 -68.5
t-64.5 -101.5t-24 -123t23 -122.5t63 -101t94.5 -69t118.5 -25.5q63 0 117.5 25t95 68.5t64 101.5t23.5 123q0 131 -89 225zM347 1045l302 337q42 47 98 47q29 0 57 -11.5t50.5 -31t36.5 -46.5t14 -57q0 -65 -68 -104l-411 -235q-11 -6 -20 -9.5t-18 -3.5t-19.5 5t-19.5 14
t-15 22t-6 28q0 25 19 45z" />
    <glyph glyph-name="ocircumflex" unicode="&#xf4;" 
d="M616 863q88 0 166 -35.5t136.5 -97t93 -143t34.5 -172.5q0 -93 -34 -174.5t-92.5 -142.5t-137 -96.5t-166.5 -35.5q-89 0 -167 35t-136.5 96t-92.5 143t-34 175q0 92 34.5 173.5t93 142.5t136.5 96.5t166 35.5zM827 640q-89 93 -211 93q-61 0 -115.5 -25t-95 -68.5
t-64.5 -101.5t-24 -123t23 -122.5t63 -101t94.5 -69t118.5 -25.5q63 0 117.5 25t95 68.5t64 101.5t23.5 123q0 131 -89 225zM206 1045l302 337q42 47 107.5 47t109.5 -47l302 -337q10 -11 15 -21t5 -22q0 -15 -6 -28t-15.5 -22.5t-20 -15t-19.5 -5.5t-18 3.5t-20 9.5
l-331 190l-332 -190q-11 -6 -20 -9.5t-18 -3.5t-19.5 5t-19.5 14t-15 22t-6 28q0 25 19 45z" />
    <glyph glyph-name="otilde" unicode="&#xf5;" 
d="M616 863q88 0 166 -35.5t136.5 -97t93 -143t34.5 -172.5q0 -93 -34 -174.5t-92.5 -142.5t-137 -96.5t-166.5 -35.5q-89 0 -167 35t-136.5 96t-92.5 143t-34 175q0 92 34.5 173.5t93 142.5t136.5 96.5t166 35.5zM827 640q-89 93 -211 93q-61 0 -115.5 -25t-95 -68.5
t-64.5 -101.5t-24 -123t23 -122.5t63 -101t94.5 -69t118.5 -25.5q63 0 117.5 25t95 68.5t64 101.5t23.5 123q0 131 -89 225zM837 1298q35 55 91 20q54 -35 19 -90q-102 -158 -191.5 -132t-176.5 89q-47 32 -92.5 47.5t-90.5 -55.5q-36 -56 -90 -19q-55 33 -20 90
q101 157 190.5 131t177.5 -88q45 -33 91 -48.5t92 55.5z" />
    <glyph glyph-name="odieresis" unicode="&#xf6;" 
d="M616 863q88 0 166 -35.5t136.5 -97t93 -143t34.5 -172.5q0 -93 -34 -174.5t-92.5 -142.5t-137 -96.5t-166.5 -35.5q-89 0 -167 35t-136.5 96t-92.5 143t-34 175q0 92 34.5 173.5t93 142.5t136.5 96.5t166 35.5zM827 640q-89 93 -211 93q-61 0 -115.5 -25t-95 -68.5
t-64.5 -101.5t-24 -123t23 -122.5t63 -101t94.5 -69t118.5 -25.5q63 0 117.5 25t95 68.5t64 101.5t23.5 123q0 131 -89 225zM381 1222q22 0 41 -8.5t33.5 -23t23 -33.5t8.5 -41t-8.5 -41.5t-23 -34t-34 -23t-40.5 -8.5t-40.5 8t-34 22.5t-23 34t-8.5 42.5q0 22 8.5 41
t23 33.5t33.5 23t41 8.5zM852 1222q22 0 41 -8.5t33.5 -23t23 -33.5t8.5 -41t-8.5 -41.5t-23 -34t-34 -23t-40.5 -8.5q-23 0 -42.5 9t-34 23.5t-22.5 34t-8 40.5t8.5 40t22.5 34t33.5 23.5t42.5 8.5z" />
    <glyph glyph-name="divide" unicode="&#xf7;" 
d="M616 274q32 0 60 -12t49 -33t33 -49t12 -60q0 -34 -13 -62t-34 -48.5t-49 -32t-58 -11.5t-58 11.5t-49.5 32t-34 49t-12.5 61.5q0 32 12 60t33 49t49 33t60 12zM616 857q30 0 57.5 -12t49 -33t34.5 -49.5t13 -60.5t-12 -60t-33 -49t-49 -33t-60 -12t-60 12t-49 33t-33 49
t-12 60q0 33 12.5 61t34 49t49.5 33t58 12z" />
    <glyph glyph-name="oslash" unicode="&#xf8;" 
d="M616 863q65 0 125 -20l36 75q17 40 51 40q16 0 30 -6t24 -15.5t15.5 -20.5t5.5 -21q-1 -8 -2.5 -16.5t-6.5 -17.5l-37 -77q33 -24 61 -54q59 -61 93.5 -142.5t34.5 -172.5q0 -93 -34 -174.5t-92.5 -142.5t-137 -96.5t-166.5 -35.5q-74 0 -141 25l-37 -77q-20 -39 -53 -39
q-16 0 -29.5 5.5t-23.5 14.5t-15.5 19.5t-5.5 20.5q0 14 10 36l39 82q-25 20 -48 44q-58 61 -92 143t-34 175q0 92 34.5 173.5t93 142.5t136.5 96.5t166 35.5zM827 640q-13 13 -27 25l-268 -556q40 -12 84 -12q63 0 117.5 25t95 68.5t64 101.5t23.5 123q0 131 -89 225z
M616 733q-61 0 -115.5 -25t-95 -68.5t-64.5 -101.5t-24 -123t23 -122.5t63 -101.5l16 -16l265 550q-33 8 -68 8z" />
    <glyph glyph-name="ugrave" unicode="&#xf9;" 
d="M145 733q-65 0 -65 65t65 65h131q65 0 65 -65l-14 -529q2 -86 43.5 -129t119.5 -43q60 0 138.5 52t178.5 161l-10 423h-159q-66 0 -66 65t66 65h223q65 0 65 -65l16 -701h146q65 0 65 -66q0 -65 -65 -65l-210 1q-64 0 -65 63l-2 99q-93 -86 -173 -124.5t-148 -38.5
q-65 0 -119 21t-92 60t-59.5 95t-22.5 126l12 465h-64zM583 1382l302 -337q10 -11 15 -21t5 -22q0 -15 -6 -28t-15.5 -22.5t-20 -15t-19.5 -5.5t-18 3.5t-20 9.5l-410 235q-69 39 -69 108q0 28 13 54t35 45.5t50.5 31t59.5 11.5q54 0 98 -47z" />
    <glyph glyph-name="uacute" unicode="&#xfa;" 
d="M145 733q-65 0 -65 65t65 65h131q65 0 65 -65l-14 -529q2 -86 43.5 -129t119.5 -43q60 0 138.5 52t178.5 161l-10 423h-159q-66 0 -66 65t66 65h223q65 0 65 -65l16 -701h146q65 0 65 -66q0 -65 -65 -65l-210 1q-64 0 -65 63l-2 99q-93 -86 -173 -124.5t-148 -38.5
q-65 0 -119 21t-92 60t-59.5 95t-22.5 126l12 465h-64zM347 1045l302 337q42 47 98 47q29 0 57 -11.5t50.5 -31t36.5 -46.5t14 -57q0 -65 -68 -104l-411 -235q-11 -6 -20 -9.5t-18 -3.5t-19.5 5t-19.5 14t-15 22t-6 28q0 25 19 45z" />
    <glyph glyph-name="ucircumflex" unicode="&#xfb;" 
d="M145 733q-65 0 -65 65t65 65h131q65 0 65 -65l-14 -529q2 -86 43.5 -129t119.5 -43q60 0 138.5 52t178.5 161l-10 423h-159q-66 0 -66 65t66 65h223q65 0 65 -65l16 -701h146q65 0 65 -66q0 -65 -65 -65l-210 1q-64 0 -65 63l-2 99q-93 -86 -173 -124.5t-148 -38.5
q-65 0 -119 21t-92 60t-59.5 95t-22.5 126l12 465h-64zM206 1045l302 337q42 47 107.5 47t109.5 -47l302 -337q10 -11 15 -21t5 -22q0 -15 -6 -28t-15.5 -22.5t-20 -15t-19.5 -5.5t-18 3.5t-20 9.5l-331 190l-332 -190q-11 -6 -20 -9.5t-18 -3.5t-19.5 5t-19.5 14t-15 22
t-6 28q0 25 19 45z" />
    <glyph glyph-name="udieresis" unicode="&#xfc;" 
d="M145 733q-65 0 -65 65t65 65h131q65 0 65 -65l-14 -529q2 -86 43.5 -129t119.5 -43q60 0 138.5 52t178.5 161l-10 423h-159q-66 0 -66 65t66 65h223q65 0 65 -65l16 -701h146q65 0 65 -66q0 -65 -65 -65l-210 1q-64 0 -65 63l-2 99q-93 -86 -173 -124.5t-148 -38.5
q-65 0 -119 21t-92 60t-59.5 95t-22.5 126l12 465h-64zM381 1222q22 0 41 -8.5t33.5 -23t23 -33.5t8.5 -41t-8.5 -41.5t-23 -34t-34 -23t-40.5 -8.5t-40.5 8t-34 22.5t-23 34t-8.5 42.5q0 22 8.5 41t23 33.5t33.5 23t41 8.5zM852 1222q22 0 41 -8.5t33.5 -23t23 -33.5
t8.5 -41t-8.5 -41.5t-23 -34t-34 -23t-40.5 -8.5q-23 0 -42.5 9t-34 23.5t-22.5 34t-8 40.5t8.5 40t22.5 34t33.5 23.5t42.5 8.5z" />
    <glyph glyph-name="yacute" unicode="&#xfd;" 
d="M962 733q-30 -90 -63 -179.5t-65 -178.5t-62 -178t-55 -179l-2 -8q-29 -104 -65.5 -177t-81.5 -119t-100 -67.5t-122 -21.5q-50 0 -93.5 17.5t-75.5 49.5t-51 76.5t-19 98.5q0 96 41.5 143t108.5 47q19 0 38 -7.5t34 -21.5t24.5 -35.5t9.5 -48.5q-2 -43 -32 -68.5
t-74 -25.5h-10q-4 0 -9 1q5 -48 35.5 -72t72.5 -24q43 0 77.5 15.5t63 48.5t52.5 84.5t46 123.5l-296 706h-141q-65 0 -65 65t65 65h369q65 0 65 -65t-65 -65h-87l213 -509q21 64 42.5 125t44 122.5t46 126t48.5 135.5h-87q-65 0 -65 65t65 65h346q66 0 66 -65t-66 -65h-121
zM347 1045l302 337q42 47 98 47q29 0 57 -11.5t50.5 -31t36.5 -46.5t14 -57q0 -65 -68 -104l-411 -235q-11 -6 -20 -9.5t-18 -3.5t-19.5 5t-19.5 14t-15 22t-6 28q0 25 19 45z" />
    <glyph glyph-name="thorn" unicode="&#xfe;" 
d="M330 1135h-112q-65 0 -65 65t65 65h178q65 0 65 -65v-446q103 109 242 109q76 0 143 -35.5t117 -96.5t79 -142.5t29 -173.5t-29 -173.5t-78.5 -143t-117 -97t-143.5 -35.5q-136 0 -236 103l2 -314h101q65 0 65 -65t-65 -65h-325q-66 0 -66 65t66 65h93zM703 97
q49 0 92.5 25t75.5 68.5t51 101t19 123.5q0 64 -18.5 121.5t-51 101t-76 69.5t-92.5 26q-50 0 -93 -25.5t-75.5 -69t-51 -101.5t-18.5 -122q0 -65 18.5 -123t51 -101.5t75.5 -68.5t93 -25z" />
    <glyph glyph-name="ydieresis" unicode="&#xff;" 
d="M962 733q-30 -90 -63 -179.5t-65 -178.5t-62 -178t-55 -179l-2 -8q-29 -104 -65.5 -177t-81.5 -119t-100 -67.5t-122 -21.5q-50 0 -93.5 17.5t-75.5 49.5t-51 76.5t-19 98.5q0 96 41.5 143t108.5 47q19 0 38 -7.5t34 -21.5t24.5 -35.5t9.5 -48.5q-2 -43 -32 -68.5
t-74 -25.5h-10q-4 0 -9 1q5 -48 35.5 -72t72.5 -24q43 0 77.5 15.5t63 48.5t52.5 84.5t46 123.5l-296 706h-141q-65 0 -65 65t65 65h369q65 0 65 -65t-65 -65h-87l213 -509q21 64 42.5 125t44 122.5t46 126t48.5 135.5h-87q-65 0 -65 65t65 65h346q66 0 66 -65t-66 -65h-121
zM852 1222q22 0 41 -8.5t33.5 -23t23 -33.5t8.5 -41t-8.5 -41.5t-23 -34t-34 -23t-40.5 -8.5q-23 0 -42.5 9t-34 23.5t-22.5 34t-8 40.5t8.5 40t22.5 34t33.5 23.5t42.5 8.5zM381 1222q22 0 41 -8.5t33.5 -23t23 -33.5t8.5 -41t-8.5 -41.5t-23 -34t-34 -23t-40.5 -8.5
t-40.5 8t-34 22.5t-23 34t-8.5 42.5q0 22 8.5 41t23 33.5t33.5 23t41 8.5z" />
    <glyph glyph-name="OE" unicode="&#x152;" 
d="M586 1265h390q50 0 64 -51l107 -400q4 -12 4 -26q0 -23 -19 -40t-56 -17q-42 0 -55 50l-95 354h-190v-454h103v117q0 65 65 65q66 0 66 -65v-411q0 -66 -66 -66q-65 0 -65 66v163h-103v-453h188q9 0 26 21l67 269q12 50 58 50q36 0 54 -17.5t18 -40.5q0 -12 -3 -24
l-85 -340q-12 -50 -56 -50l-417 1q-66 11 -100 23q-62 23 -116.5 65.5t-99 102t-76 131.5t-49 155t-17.5 172q0 262 136 452q122 170 322 198zM606 1135q-69 -3 -129 -42q-65 -42 -113.5 -113t-76.5 -165.5t-28 -199.5t28 -199t76.5 -165t113.5 -113q60 -38 129 -41v1038z
" />
    <glyph glyph-name="oe" unicode="&#x153;" 
d="M408 868q118 0 196 -141q82 141 208 141q129 0 205 -148q65 -127 65 -308q0 -72 -72 -72h-331q10 -96 51 -164q43 -74 99 -74q12 0 35 21q35 32 65 92q32 65 98 33q64 -33 32 -97q-40 -81 -96 -134q-67 -60 -134 -60q-138 0 -223 145q-78 -145 -198 -145q-125 0 -202 151
q-65 130 -65 304q0 175 65 304q77 152 202 152zM727 648q-39 -70 -49 -163h255q-11 102 -45 169q-37 69 -76 69q-46 0 -85 -75zM480 651q-37 72 -72 72q-37 0 -73 -72q-49 -98 -49 -239q0 -140 49 -238q36 -72 73 -72q35 0 72 72q49 98 49 238q0 141 -49 239z" />
    <glyph glyph-name="Scaron" unicode="&#x160;" 
d="M1069 1557l-292 -325q66 -27 118 -79q7 32 29 76q19 38 51 38q16 0 29.5 -5.5t23.5 -14.5t15.5 -19.5t5.5 -20.5q0 -17 -9 -36q-15 -30 -23 -64.5t-7 -72.5q0 -31 5.5 -69.5t16.5 -85.5q1 -5 1.5 -10t0.5 -10q0 -26 -18.5 -42.5t-54.5 -16.5q-15 0 -24.5 4t-15.5 12.5
t-10.5 20.5t-9.5 29q-65 269 -299 269q-116 0 -181.5 -45.5t-65.5 -127.5q0 -47 17 -81.5t53.5 -60.5t93.5 -44.5t137 -31.5q97 -16 174.5 -51.5t132.5 -86.5t84.5 -116t29.5 -140q0 -80 -29 -150t-81.5 -122t-124.5 -82t-158 -30q-119 0 -212.5 41.5t-153.5 126.5
q-5 -30 -11.5 -63t-16.5 -60.5t-25 -45.5t-37 -18q-35 0 -53.5 18.5t-18.5 41.5q0 14 4 27q20 57 29.5 123.5t9.5 147.5q0 30 -1 63t-3 69h1v8q0 29 18.5 45.5t54.5 16.5q46 0 55 -53q19 -93 49 -160.5t73.5 -111t102 -64.5t135.5 -21q58 0 106 18.5t82.5 51.5t54 79.5
t19.5 103.5q0 50 -21.5 93.5t-61.5 77.5t-98 58.5t-130 36.5q-95 14 -170.5 41t-129 69.5t-82 100.5t-28.5 135q0 68 26 124t75 95.5t119 61.5q33 10 70 16l-267 298q-10 11 -15 21t-5 22q0 15 6 28t15.5 22.5t20 15t19.5 5.5t18 -3.5t20 -9.5l331 -190l332 190q11 6 20 9.5
t18 3.5t19.5 -5t19.5 -14t15 -22t6 -28q0 -25 -19 -45z" />
    <glyph glyph-name="scaron" unicode="&#x161;" 
d="M881 800q1 33 17.5 48t50.5 15q31 0 46.5 -16.5t15.5 -45.5v-5l-6 -212q-2 -33 -18.5 -48t-48.5 -15q-20 0 -33 9t-23 25q-33 54 -63 88.5t-62.5 54.5t-70 27.5t-85.5 7.5q-51 0 -98.5 -8.5t-84.5 -22.5t-59.5 -32t-22.5 -38q0 -38 27.5 -59t73 -33t104 -18t120 -13
t121.5 -18t108 -33q140 -65 140 -223q0 -61 -28 -110.5t-78.5 -85t-120.5 -54.5t-154 -19q-97 0 -181 32.5t-135 98.5v-66q0 -65 -66 -65q-65 0 -65 65v294q0 27 21 47.5t51 20.5q32 0 52 -40q28 -59 57 -106t65.5 -80.5t85 -51.5t115.5 -18q53 0 99 9t79.5 27t52.5 43.5
t19 58.5q0 49 -30 77t-78.5 43.5t-111 22.5t-127 14.5t-127 19.5t-111 37.5t-78.5 69t-30 113.5q0 51 29.5 93.5t82.5 73t125 47.5t158 17q88 0 155 -24t124 -72zM1069 1310l-302 -337q-42 -47 -107.5 -47t-109.5 47l-302 337q-10 11 -15 21t-5 22q0 15 6 28t15.5 22.5
t20 15t19.5 5.5t18 -3.5t20 -9.5l331 -190l332 190q11 6 20 9.5t18 3.5t19.5 -5t19.5 -14t15 -22t6 -28q0 -25 -19 -45z" />
    <glyph glyph-name="Zcaron" unicode="&#x17d;" 
d="M1069 1557l-262 -292h148q65 0 65 -65q1 -12 -3 -21t-9 -17l-663 -1065h561l36 338q6 59 63 59q34 0 51 -16.5t17 -44.5q0 -3 -0.5 -6t-0.5 -6l-43 -393q-2 -62 -65 -62l-736 1h-4q-14 0 -25.5 6t-20 15t-13.5 19.5t-5 19.5q1 9 3.5 18.5t9.5 20.5l664 1069h-444
l-74 -351q-10 -52 -56 -52q-37 0 -55.5 15.5t-18.5 41.5q0 11 3 23l85 402q10 51 64 51h168l-261 292q-10 11 -15 21t-5 22q0 15 6 28t15.5 22.5t20 15t19.5 5.5t18 -3.5t20 -9.5l331 -190l332 190q11 6 20 9.5t18 3.5t19.5 -5t19.5 -14t15 -22t6 -28q0 -25 -19 -45z" />
    <glyph glyph-name="zcaron" unicode="&#x17e;" 
d="M322 488q-15 -48 -55 -48q-35 0 -54.5 18t-19.5 43q0 5 1 11.5t3 13.5l89 291q13 46 62 46h602q66 0 66 -65q0 -29 -21 -48l-585 -653h484l17 238q3 60 61 60q34 0 51 -16.5t17 -45.5v-8l-20 -295q-1 -64 -66 -64l-690 1q-16 0 -28.5 6.5t-21.5 16t-13.5 20.5t-4.5 20
q0 23 19 45l589 658h-408zM1069 1310l-302 -337q-42 -47 -107.5 -47t-109.5 47l-302 337q-10 11 -15 21t-5 22q0 15 6 28t15.5 22.5t20 15t19.5 5.5t18 -3.5t20 -9.5l331 -190l332 190q11 6 20 9.5t18 3.5t19.5 -5t19.5 -14t15 -22t6 -28q0 -25 -19 -45z" />
    <glyph glyph-name="florin" unicode="&#x192;" 
d="M549 97v636h-230q-65 0 -65 65t65 65h230v11q0 91 26.5 163.5t74 123t111.5 77.5t139 27q62 0 118 -20.5t98 -55t67 -79.5t25 -95q0 -56 -29 -83t-76 -27q-20 0 -38 7t-32.5 20.5t-23 32t-8.5 42.5q0 23 10.5 43t29.5 34q-27 24 -62 37q-35 14 -79 14q-102 0 -160.5 -68
t-60.5 -193l1 -11h239q65 0 65 -65t-65 -65h-239v-785q0 -91 -26.5 -163.5t-74 -123t-111.5 -77.5t-139 -27q-62 0 -118 20.5t-98 55t-67 79.5t-25 95q0 56 29 83t76 27q20 0 38 -7t32.5 -20.5t23 -32t8.5 -42.5q0 -23 -10.5 -43t-29.5 -34q27 -24 61 -37q36 -14 80 -14
q102 0 160.5 68t60.5 193v149h-1z" />
    <glyph glyph-name="circumflex" unicode="&#x2c6;" 
d="M247 1045l302 337q42 47 107.5 47t109.5 -47l302 -337q10 -11 15 -21t5 -22q0 -15 -6 -28t-15.5 -22.5t-20 -15t-19.5 -5.5t-18 3.5t-20 9.5l-331 190l-332 -190q-11 -6 -20 -9.5t-18 -3.5t-19.5 5t-19.5 14t-15 22t-6 28q0 25 19 45z" />
    <glyph glyph-name="tilde" unicode="&#x2dc;" 
d="M837 1298q35 55 91 20q54 -35 19 -90q-102 -158 -191.5 -132t-176.5 89q-47 32 -92.5 47.5t-90.5 -55.5q-36 -56 -90 -19q-55 33 -20 90q101 157 190.5 131t177.5 -88q45 -33 91 -48.5t92 55.5z" />
    <glyph glyph-name="endash" unicode="&#x2013;" 
d="M242 409q-65 0 -65 65t65 65h749q65 0 65 -65t-65 -65h-749z" />
    <glyph glyph-name="emdash" unicode="&#x2014;" 
d="M242 409q-65 0 -65 65t65 65h749q65 0 65 -65t-65 -65h-749z" />
    <glyph glyph-name="quoteleft" unicode="&#x2018;" 
d="M724 1194l-43 -507q-6 -61 -60 -61q-67 0 -70 62l-43 506v8q0 38 28 66t80 28t80 -28t28 -66v-8z" />
    <glyph glyph-name="quoteright" unicode="&#x2019;" 
d="M724 1194l-43 -507q-6 -61 -60 -61q-67 0 -70 62l-43 506v8q0 38 28 66t80 28t80 -28t28 -66v-8z" />
    <glyph glyph-name="quotesinglbase" unicode="&#x201a;" 
d="M724 1194l-43 -507q-6 -61 -60 -61q-67 0 -70 62l-43 506v8q0 38 28 66t80 28t80 -28t28 -66v-8z" />
    <glyph glyph-name="quotedblleft" unicode="&#x201c;" 
d="M517 1194l-43 -507q-6 -61 -60 -61q-67 0 -70 62l-43 506v8q0 38 28 66t80 28t80 -28t28 -66v-8zM932 1194l-44 -507q-6 -61 -60 -61q-65 0 -70 62l-42 506q-1 4 -1 12q0 18 7 34t21 28.5t34 20t46 7.5q52 0 80.5 -28t28.5 -66v-8z" />
    <glyph glyph-name="quotedblright" unicode="&#x201d;" 
d="M517 1194l-43 -507q-6 -61 -60 -61q-67 0 -70 62l-43 506v8q0 38 28 66t80 28t80 -28t28 -66v-8zM932 1194l-44 -507q-6 -61 -60 -61q-65 0 -70 62l-42 506q-1 4 -1 12q0 18 7 34t21 28.5t34 20t46 7.5q52 0 80.5 -28t28.5 -66v-8z" />
    <glyph glyph-name="quotedblbase" unicode="&#x201e;" 
d="M517 1194l-43 -507q-6 -61 -60 -61q-67 0 -70 62l-43 506v8q0 38 28 66t80 28t80 -28t28 -66v-8zM932 1194l-44 -507q-6 -61 -60 -61q-65 0 -70 62l-42 506q-1 4 -1 12q0 18 7 34t21 28.5t34 20t46 7.5q52 0 80.5 -28t28.5 -66v-8z" />
    <glyph glyph-name="dagger" unicode="&#x2020;" 
d="M242 409q-65 0 -65 65t65 65h287v716q0 66 66 66q65 0 65 -66v-716h331q65 0 65 -65t-65 -65h-331v-393q0 -65 -65 -65q-66 0 -66 65v393h-287z" />
    <glyph glyph-name="daggerdbl" unicode="&#x2021;" 
d="M235 260q-65 0 -65 66q0 65 65 65h294v198h-294q-65 0 -65 65t65 65h294v536q0 66 66 66q65 0 65 -66v-536h338q65 0 65 -65t-65 -65h-338v-198h338q65 0 65 -65q0 -66 -65 -66h-338v-244q0 -65 -65 -65q-66 0 -66 65v244h-294z" />
    <glyph glyph-name="bullet" unicode="&#x2022;" 
d="M616 857q30 0 57.5 -12t49 -33t34.5 -49.5t13 -60.5t-12 -60t-33 -49t-49 -33t-60 -12t-60 12t-49 33t-33 49t-12 60q0 33 12.5 61t34 49t49.5 33t58 12z" />
    <glyph glyph-name="ellipsis" unicode="&#x2026;" horiz-adv-x="3699" 
d="M616 274q32 0 60 -12t49 -33t33 -49t12 -60q0 -34 -13 -62t-34 -48.5t-49 -32t-58 -11.5t-58 11.5t-49.5 32t-34 49t-12.5 61.5q0 32 12 60t33 49t49 33t60 12zM1849 274q32 0 60 -12t49 -33t33 -49t12 -60q0 -34 -13 -62t-34 -48.5t-49 -32t-58 -11.5t-58 11.5t-49.5 32
t-34 49t-12.5 61.5q0 32 12 60t33 49t49 33t60 12zM3082 274q32 0 60 -12t49 -33t33 -49t12 -60q0 -34 -13 -62t-34 -48.5t-49 -32t-58 -11.5t-58 11.5t-49.5 32t-34 49t-12.5 61.5q0 32 12 60t33 49t49 33t60 12z" />
    <glyph glyph-name="guilsinglleft" unicode="&#x2039;" 
d="M724 1194l-43 -507q-6 -61 -60 -61q-67 0 -70 62l-43 506v8q0 38 28 66t80 28t80 -28t28 -66v-8z" />
    <glyph glyph-name="guilsinglright" unicode="&#x203a;" 
d="M724 1194l-43 -507q-6 -61 -60 -61q-67 0 -70 62l-43 506v8q0 38 28 66t80 28t80 -28t28 -66v-8z" />
    <glyph glyph-name="Euro" unicode="&#x20ac;" 
d="M147 347q-65 0 -65 66q0 65 65 65h78q-9 63 -9 132q0 33 2 66h-71q-65 0 -65 65t65 65h91q16 69 43 132q32 73 76 133t98.5 103t117.5 67t131 24q83 0 152.5 -35t123.5 -105q11 -14 15.5 -22t6.5 -9q5 27 10.5 57t15 56t24 43t36.5 17q35 0 54 -19.5t19 -42.5
q0 -12 -3 -25q-23 -72 -35 -146.5t-12 -152.5q0 -34 4.5 -68.5t4.5 -70.5q0 -29 -18.5 -45t-53.5 -16q-49 0 -58 56l-1 3v1q-15 93 -40.5 166t-61.5 123.5t-82 77.5t-101 27q-74 0 -139 -42.5t-113.5 -114.5t-76.5 -167q-1 -3 -2 -5h384q65 0 65 -65t-65 -65h-407
q-3 -33 -3 -66q0 -68 11 -132h399q65 0 65 -65q0 -66 -65 -66h-361q23 -58 55 -105q49 -72 114 -114t139 -42q52 0 100.5 21.5t90.5 61t76 95t56 123.5q15 47 55 47q35 0 54.5 -19t19.5 -41q0 -10 -5 -27q-30 -91 -76.5 -163.5t-105 -123t-126.5 -77.5t-139 -27
q-107 0 -193.5 49.5t-158.5 149.5q-63 88 -97 192h-108z" />
    <glyph glyph-name="NULL" horiz-adv-x="0" 
 />
  </font>
</defs>
</svg>
