<?xml version="1.0" standalone="no"?>
<!DOCTYPE svg PUBLIC "-//W3C//DTD SVG 1.1//EN" "http://www.w3.org/Graphics/SVG/1.1/DTD/svg11.dtd" >
<svg>
<metadata>
Created by FontForge 20120731 at Fri Nov  7 18:51:08 2014
 By Orthosie Webhosting
OFL Open Font License
</metadata>
<defs>
<font id="FabrikNormal" horiz-adv-x="405" >
  <font-face 
    font-family="FabrikNormal"
    font-weight="400"
    font-stretch="normal"
    units-per-em="1000"
    panose-1="2 0 5 3 0 0 0 0 0 0"
    ascent="800"
    descent="-200"
    x-height="410"
    cap-height="696"
    bbox="-70 -215 924 1119"
    underline-thickness="50"
    underline-position="-125"
    unicode-range="U+000C-FB05"
  />
<missing-glyph horiz-adv-x="342" 
d="M39 0v666h265v-666h-265v0zM72 33h199v600h-199v-600v0z" />
    <glyph glyph-name=".notdef" horiz-adv-x="342" 
d="M39 0v666h265v-666h-265v0zM72 33h199v600h-199v-600v0z" />
    <glyph glyph-name="uni0000" horiz-adv-x="0" 
 />
    <glyph glyph-name="uni0000" horiz-adv-x="0" 
 />
    <glyph glyph-name="nonmarkingreturn" horiz-adv-x="333" 
 />
    <glyph glyph-name="space" unicode=" " horiz-adv-x="222" 
 />
    <glyph glyph-name="exclam" unicode="!" horiz-adv-x="163" 
d="M44 693h81v-441h-80zM22 60q0 26 16.5 42t42.5 16q24 0 40.5 -15.5t16.5 -40.5q0 -26 -16 -43.5t-42 -17.5t-42 16.5t-16 42.5z" />
    <glyph glyph-name="quotedbl" unicode="&#x22;" horiz-adv-x="347" 
d="M252 558q-3 14 -11 33t-16.5 38.5t-14.5 38t-6 31.5q0 25 16.5 41t40.5 16q26 0 41.5 -17t15.5 -43q0 -16 -7 -35t-17.5 -37.5t-21.5 -36t-20 -29.5zM78 558q-3 14 -11 33t-16.5 38.5t-14.5 38t-6 31.5q0 25 16.5 41t40.5 16q26 0 41.5 -17t15.5 -43q0 -16 -7 -35
t-17.5 -37.5t-21.5 -36t-20 -29.5z" />
    <glyph glyph-name="numbersign" unicode="#" horiz-adv-x="411" 
d="M83 620h77v-140h90v140h78v-140h58v-91h-58v-83h58v-87h-58v-149h-78v149h-90v-149h-77v149h-58v87h58v84h-58v90h58v140v0zM160 389v-83h90v83h-90v0z" />
    <glyph glyph-name="dollar" unicode="$" horiz-adv-x="430" 
d="M178 750h75l-12 -68q32 0 61 -10.5t52 -31.5l-40 -62q-20 14 -44.5 23t-49.5 9q-14 0 -31.5 -5.5t-32.5 -16t-25.5 -24.5t-10.5 -30q0 -39 22 -62.5t54.5 -40t71 -30.5t71 -34t54.5 -50.5t22 -79.5q0 -81 -43.5 -134t-121.5 -72l8 -61h-75l7 57q-50 3 -93.5 27.5
t-80.5 56.5l40 69q29 -29 66.5 -50t79.5 -21q24 0 47 9t41 25t28.5 37.5t10.5 47.5q0 27 -12.5 45t-33.5 31t-47 22.5t-54 20.5t-54 25t-47 36t-33.5 53t-12.5 76q0 32 13.5 57.5t35.5 43.5t50 29t57 15z" />
    <glyph glyph-name="percent" unicode="%" horiz-adv-x="554" 
d="M109 468q0 -17 13 -27.5t29 -10.5q17 0 29 11t12 28q0 20 -9.5 32.5t-31.5 12.5q-21 0 -31.5 -13t-10.5 -33zM42 472q0 46 29.5 73t74.5 27q22 0 43 -7t37 -20.5t25.5 -32.5t9.5 -43q0 -48 -32.5 -76.5t-79.5 -28.5q-48 0 -77.5 30t-29.5 78zM414 119q17 0 29.5 10.5
t12.5 27.5q0 20 -9 33t-32 13q-15 0 -28.5 -10t-13.5 -27q0 -20 9 -33.5t32 -13.5zM306 160q0 47 29 74t74 27q22 0 43.5 -7.5t37.5 -21t26 -32.5t10 -43t-9 -43t-24.5 -33t-36 -21.5t-43.5 -7.5q-48 0 -77.5 30t-29.5 78zM464 559l57 -59l-433 -448l-57 59z" />
    <glyph glyph-name="ampersand" unicode="&#x26;" horiz-adv-x="540" 
d="M524 411v-85h-54v-117q0 -46 -18.5 -85.5t-50 -69t-72.5 -46t-86 -16.5q-44 0 -84 17.5t-70 47.5t-48 69.5t-18 83.5q0 28 7 56t19.5 53.5t31.5 47t43 36.5q-6 14 -10.5 28.5t-4.5 29.5q0 33 12 64t33 55t50 38t64 14q38 0 73 -16.5t58 -46.5l-62 -62q-11 16 -26 27
t-35 11q-15 0 -29 -4.5t-25 -12.5t-18 -20.5t-7 -28.5q0 -34 12.5 -51t49.5 -17h265zM241 326l-77 -1q-14 0 -24.5 -14t-18 -32.5t-11.5 -38t-4 -30.5q0 -29 11.5 -53.5t31 -43t45 -29t53.5 -10.5q25 0 50 10.5t45 28t32.5 41t12.5 49.5v123h-146z" />
    <glyph glyph-name="quotesingle" unicode="'" horiz-adv-x="151" 
d="M74 504q-21 31 -37.5 67t-16.5 74q0 25 16 41t41 16q26 0 40.5 -16.5t14.5 -40.5q0 -18 -5.5 -36.5t-13.5 -37t-18.5 -36t-20.5 -31.5z" />
    <glyph glyph-name="parenleft" unicode="(" horiz-adv-x="243" 
d="M21 148v354q0 45 14.5 86.5t39.5 77t59.5 63.5t75.5 46v-103q-45 -29 -70 -71t-25 -96v-357q0 -56 23 -99.5t71 -72.5v-112q-86 43 -137 115t-51 169z" />
    <glyph glyph-name="parenright" unicode=")" horiz-adv-x="245" 
d="M224 150q0 -47 -14 -89.5t-39 -79.5t-59.5 -66t-76.5 -49v112q94 60 94 172v357q0 54 -24.5 96.5t-69.5 71.5v103q85 -38 137 -108t52 -165v-355z" />
    <glyph glyph-name="asterisk" unicode="*" horiz-adv-x="213" 
d="M85 768h43v-60l56 18l13 -40l-57 -19l35 -48l-34 -25l-35 48l-35 -48l-34 25l35 48l-57 19l13 40l57 -19v61v0z" />
    <glyph glyph-name="plus" unicode="+" horiz-adv-x="382" 
d="M374 321h-141v-161h-81v160h-145v78h145v151h80v-148h142v-80v0z" />
    <glyph glyph-name="comma" unicode="," horiz-adv-x="148" 
d="M19 69q0 25 16.5 41t40.5 16q26 0 41.5 -17t15.5 -43q0 -21 -8.5 -39t-22.5 -33t-31 -27t-33 -21q10 12 21.5 35t11.5 39q0 8 -6.5 7.5t-11.5 -0.5q-16 0 -25 14t-9 28z" />
    <glyph glyph-name="hyphen" unicode="-" horiz-adv-x="367" 
d="M328 222h-289v81h289v-81v0z" />
    <glyph glyph-name="period" unicode="." horiz-adv-x="166" 
d="M25 60q0 26 16.5 42t42.5 16q24 0 40.5 -15.5t16.5 -40.5q0 -26 -16 -43.5t-42 -17.5t-42 16.5t-16 42.5z" />
    <glyph glyph-name="slash" unicode="/" horiz-adv-x="362" 
d="M89 0h-85l274 704h80l-269 -704v0z" />
    <glyph glyph-name="zero" unicode="0" horiz-adv-x="575" 
d="M288 638q-59 0 -93 -27.5t-51.5 -69.5t-22.5 -91.5t-5 -94.5t5 -94.5t22.5 -91.5t51.5 -69.5t93 -27.5t93 27.5t51 69.5t21.5 91.5t4.5 94.5q0 44 -4.5 94t-21.5 92t-51 69.5t-93 27.5zM288 -10q-81 0 -131.5 32.5t-79 84.5t-38.5 117.5t-10 130.5t10.5 130t39 117.5
t79 85t130.5 32.5q79 0 129.5 -33t79 -85.5t39 -117.5t10.5 -129q0 -65 -10.5 -130t-39 -117t-79 -85t-129.5 -33z" />
    <glyph glyph-name="one" unicode="1" horiz-adv-x="207" 
d="M90 510l-25 -26l-64 57l169 184v-725h-80v510v0z" />
    <glyph glyph-name="two" unicode="2" horiz-adv-x="477" 
d="M260 626q-20 0 -36.5 -7.5t-31 -19t-26.5 -26.5t-22 -30l-49 58q17 21 34.5 40.5t37.5 34.5t43.5 23.5t52.5 8.5q82 0 130 -49t48 -131q0 -29 -10 -57t-25 -54.5t-32.5 -51t-33.5 -47.5l-165 -237h277v-81h-435l281 397q11 16 23.5 32t22.5 33t16.5 35.5t6.5 38.5
q0 22 -9 39t-24 28.5t-34 17t-40 5.5z" />
    <glyph glyph-name="three" unicode="3" horiz-adv-x="478" 
d="M348 207q0 57 -18.5 88.5t-49 46t-71.5 17t-86 2.5l186 254h-262v77h407l-196 -272q89 -14 131 -68.5t42 -142.5q0 -59 -16.5 -101t-48 -69t-76.5 -39.5t-101 -12.5q-46 0 -88.5 15t-79.5 41l48 68q29 -17 60.5 -28.5t65.5 -11.5t62.5 7.5t48.5 24t31 42t11 62.5z" />
    <glyph glyph-name="four" unicode="4" horiz-adv-x="497" 
d="M372 720l61 -44l-286 -439h165v125l79 128v-252h85v-81h-84v-157h-82v158h-309l371 562v0z" />
    <glyph glyph-name="five" unicode="5" horiz-adv-x="420" 
d="M318 211q0 43 -13.5 70.5t-36 43.5t-52 23.5t-61.5 9.5t-65 1t-62 -1l41 338h279v-79h-208l-25 -186q57 0 108.5 -9t90.5 -33.5t62.5 -67.5t23.5 -110q0 -50 -15.5 -91t-44.5 -70t-69.5 -45t-90.5 -16q-42 0 -80.5 13.5t-70.5 40.5l62 63q19 -14 41.5 -24.5t46.5 -10.5
q30 0 55.5 10.5t44 29t29 44.5t10.5 56z" />
    <glyph glyph-name="six" unicode="6" horiz-adv-x="474" 
d="M17 211q0 27 8.5 53t20.5 50l196 399h84l-147 -292q14 6 28.5 8.5t29.5 2.5q46 0 86 -17t70 -47t47 -70.5t17 -86.5t-17 -86t-47 -70t-70 -47t-86 -17t-86 17t-70 47t-47 70t-17 86zM236 351q-62 0 -101.5 -38t-39.5 -101q0 -30 10.5 -56t29.5 -45t45 -29.5t56 -10.5
t55.5 10.5t45 28.5t30.5 43.5t11 55.5q0 31 -10.5 57t-29.5 45t-45 29.5t-57 10.5z" />
    <glyph glyph-name="seven" unicode="7" horiz-adv-x="439" 
d="M50 690h385l-323 -690h-88l282 609h-256v81v0z" />
    <glyph glyph-name="eight" unicode="8" horiz-adv-x="486" 
d="M385 376q35 -31 54.5 -71t19.5 -88q0 -46 -16.5 -86t-45 -70t-68.5 -47t-86 -17t-85 17t-68 46.5t-45.5 69.5t-16.5 85q0 94 70 158q-54 57 -54 136q0 40 15.5 76t42 62t62 41.5t76.5 15.5q40 0 75.5 -15.5t62 -41.5t42 -61.5t15.5 -75.5q0 -37 -12.5 -71.5t-37.5 -62.5z
M242 623q-23 0 -43.5 -9t-35.5 -24.5t-24 -36t-9 -43.5t9 -43.5t24 -36.5t35.5 -25t43.5 -9q24 0 44.5 9t35.5 25t24 36.5t9 43.5t-9 43.5t-24.5 36t-36 24.5t-43.5 9zM244 342q-28 0 -52 -10.5t-42 -28.5t-28.5 -42.5t-10.5 -52.5t10.5 -52t28.5 -42t42 -28.5t52 -10.5
t52.5 10.5t42.5 28.5t28.5 42t10.5 52t-10.5 52.5t-28.5 42.5t-42.5 28.5t-52.5 10.5z" />
    <glyph glyph-name="nine" unicode="9" horiz-adv-x="441" 
d="M424 509q0 -16 -1.5 -32t-7.5 -30l-199 -447h-84l143 314q-13 -6 -27 -8t-28 -2q-43 0 -80 16t-64.5 43.5t-43 65t-15.5 80.5q0 42 15.5 79.5t43 65t64.5 43.5t80 16t80 -16t64.5 -43.5t43.5 -64.5t16 -80zM345 508q0 26 -9.5 49t-26 39.5t-39.5 26t-49 9.5t-48.5 -9
t-39.5 -25.5t-26.5 -39t-9.5 -48.5t9.5 -49t26 -39.5t39.5 -26t49 -9.5q54 0 89 33.5t35 88.5z" />
    <glyph glyph-name="colon" unicode=":" horiz-adv-x="175" 
d="M30 409q0 25 18 39.5t41 14.5q24 0 41 -14t17 -39q0 -26 -17 -42t-42 -16t-41.5 15.5t-16.5 41.5zM29 75q0 26 16.5 42t42.5 16q25 0 41 -15.5t16 -40.5q0 -26 -16 -43.5t-42 -17.5t-42 16.5t-16 42.5z" />
    <glyph glyph-name="semicolon" unicode=";" horiz-adv-x="154" 
d="M133 416q0 -26 -16.5 -42t-41.5 -16t-41.5 15.5t-16.5 40.5q0 26 17 40.5t42 14.5q23 0 40 -14t17 -39zM22 92q0 25 16.5 40t40.5 15q26 0 41.5 -16.5t15.5 -42.5q0 -21 -8.5 -39t-22 -33t-30.5 -27t-34 -21q5 5 11 14.5t11 20.5t8.5 21.5t3.5 17.5q0 8 -6 7.5t-11 -0.5
q-17 0 -26.5 14t-9.5 29z" />
    <glyph glyph-name="less" unicode="&#x3c;" horiz-adv-x="483" 
d="M446 596v-80l-293 -145l288 -155v-80l-440 238l445 222v0z" />
    <glyph glyph-name="equal" unicode="=" horiz-adv-x="523" 
d="M43 288h442v-88h-444l2 88v0zM39 526h442v-88h-440l-2 88v0z" />
    <glyph glyph-name="greater" unicode="&#x3e;" horiz-adv-x="482" 
d="M37 596l445 -222l-440 -238v80l288 155l-293 145v80v0z" />
    <glyph glyph-name="question" unicode="?" horiz-adv-x="380" 
d="M17 679q32 38 75.5 54t92.5 16q40 0 73.5 -13t58 -37t38.5 -57.5t14 -73.5q0 -49 -20.5 -82t-48 -60.5t-54.5 -54t-39 -61.5q-8 -22 -6.5 -44.5t-2.5 -45.5h-86v28q0 42 13 75t32.5 59.5t42 48t42 42t32.5 41t13 44.5q0 114 -115 114q-24 0 -39 -4t-26.5 -11.5t-22 -19
t-25.5 -27.5zM155 0q-24 0 -41 17.5t-17 41.5q0 25 16.5 42t41.5 17t41.5 -16t16.5 -41q0 -24 -16.5 -42.5t-41.5 -18.5z" />
    <glyph glyph-name="at" unicode="@" horiz-adv-x="632" 
d="M505 -88q-27 -18 -50.5 -30t-47 -19t-49.5 -9.5t-58 -2.5q-57 0 -106.5 21t-86.5 58.5t-58.5 88t-21.5 110.5q0 67 22 123t61 96t93 62t118 22t117 -18.5t90.5 -54.5t58 -89t20.5 -122q0 -33 -9 -63.5t-26 -54t-43.5 -37t-60.5 -13.5q-25 0 -51.5 10t-37.5 36
q-16 -14 -34 -19t-38 -5q-60 0 -99.5 36.5t-39.5 101.5t35.5 107t98.5 42q18 0 41.5 -6.5t34.5 -23.5v26h59v-57q0 -26 -4 -49.5t-4 -49.5q0 -16 0.5 -32t5 -28.5t15.5 -20.5t32 -8q20 0 33.5 10t21 25.5t10.5 33.5t3 35q0 55 -16.5 97.5t-46.5 71.5t-72 43.5t-93 14.5
q-109 0 -171 -64t-62 -178q0 -40 17.5 -79.5t46 -71t65.5 -51t76 -19.5q30 0 51 0.5t39.5 5t37.5 13.5t45 27zM227 144q0 -37 23.5 -62t57.5 -25q42 0 56 25.5t14 62.5q0 18 -3.5 34t-11.5 29t-21.5 20.5t-33.5 7.5q-36 0 -58.5 -28t-22.5 -64z" />
    <glyph glyph-name="A" unicode="A" horiz-adv-x="658" 
d="M321 731q82 -183 162.5 -365t161.5 -366l-85 -37l-96 212h-275l-94 -212l-82 37q78 183 158 364t150 367zM426 266l-104 248l-97 -248h201z" />
    <glyph glyph-name="B" unicode="B" horiz-adv-x="491" 
d="M39 688h200l3 -2q36 0 67 -12t54.5 -33.5t37 -51.5t13.5 -67q0 -45 -19 -80.5t-61 -55.5l-1 -2l1 -1q37 0 62 -19.5t41 -49t23 -64t7 -64.5q0 -42 -16 -76.5t-43.5 -59t-64 -37.5t-77.5 -13h-227v688zM126 319v-239h153q24 0 41.5 9t29.5 24t18 34.5t6 41.5q0 23 -7 46
t-20.5 41.5t-33 30t-45.5 11.5v1h-142zM126 619v-209h112q19 0 35.5 9t28 23.5t18 32.5t6.5 36q0 45 -28.5 76t-74.5 31v1h-97z" />
    <glyph glyph-name="C" unicode="C" horiz-adv-x="657" 
d="M631 82q-51 -48 -114 -74t-133 -26q-75 0 -140.5 29.5t-114 79.5t-76.5 116.5t-28 141.5q0 82 28 149.5t78.5 115.5t119 74t149.5 26q63 0 118 -23t103 -64l-60 -63q-30 36 -74.5 50.5t-90.5 14.5q-58 0 -108 -22.5t-87 -60.5t-58 -89.5t-21 -108.5q0 -56 20.5 -107
t57 -89.5t86 -61t106.5 -22.5q54 0 100.5 19.5t80.5 62.5z" />
    <glyph glyph-name="D" unicode="D" horiz-adv-x="565" 
d="M36 691q68 -1 132.5 0.5t120.5 -3.5t102.5 -20.5t79.5 -51t51.5 -95t18.5 -152.5q0 -66 -10.5 -132t-39 -118.5t-79 -85.5t-130.5 -33h-246v691zM276 610h-151v-526l58 -1h46.5t46.5 1q55 1 88.5 26t52 63t25 84.5t6.5 91.5q0 44 -6 90.5t-24.5 84.5t-52.5 62t-89 24z
" />
    <glyph glyph-name="E" unicode="E" horiz-adv-x="433" 
d="M39 693h366v-85h-274v-196h196v-83h-196v-247h283v-82h-375v693v0z" />
    <glyph glyph-name="F" unicode="F" horiz-adv-x="394" 
d="M39 691h353v-82h-260v-197h195v-83h-195v-329h-93v691v0z" />
    <glyph glyph-name="G" unicode="G" horiz-adv-x="686" 
d="M658 363v-247q-27 -38 -59.5 -63t-69.5 -39.5t-78.5 -20.5t-86.5 -6q-79 0 -142 28t-106.5 77t-67 115.5t-23.5 142.5q0 70 30 136t80.5 117t115.5 81.5t136 30.5q63 0 123.5 -19t108.5 -63l-62 -62h-1v1q-32 33 -76 44.5t-89 11.5q-57 0 -107 -22.5t-87.5 -61
t-59.5 -89.5t-22 -107q0 -57 17.5 -106.5t49.5 -86t78.5 -58t105.5 -21.5q37 0 61 2.5t44 9t41.5 18t53.5 29.5l-1 139h-134l-2 2v87l4 1q57 0 112.5 -0.5t112.5 -0.5z" />
    <glyph glyph-name="H" unicode="H" horiz-adv-x="592" 
d="M462 696h91v-696h-91v311h-330v-311h-93v690h92v-296h331v302v0z" />
    <glyph glyph-name="I" unicode="I" horiz-adv-x="164" 
d="M38 696h90v-696h-90v696v0z" />
    <glyph glyph-name="J" unicode="J" horiz-adv-x="378" 
d="M44 72q36 -28 80 -28q39 0 64.5 16.5t40 43t20 59.5t5.5 65v472h91v-478q0 -54 -11.5 -102t-38 -83.5t-68.5 -56.5t-102 -21q-66 0 -122 34z" />
    <glyph glyph-name="K" unicode="K" horiz-adv-x="597" 
d="M403 686h113l-278 -324l338 -362h-115l-330 358v-358h-93v686h93v-325l272 325v0z" />
    <glyph glyph-name="L" unicode="L" horiz-adv-x="415" 
d="M131 690v-605h283v-85h-376v691l93 -1v0z" />
    <glyph glyph-name="M" unicode="M" horiz-adv-x="677" 
d="M341 337l285 389l15 -727l-92 -4l-12 462l-196 -267l-203 270l-9 -464l-93 4l16 730l289 -393v0z" />
    <glyph glyph-name="N" unicode="N" horiz-adv-x="604" 
d="M124 467v-464h-87v697l442 -496v492h88v-724l-443 495v0z" />
    <glyph glyph-name="O" unicode="O" horiz-adv-x="761" 
d="M364 620q-57 0 -101.5 -21t-75 -57t-46 -84.5t-15.5 -102.5q0 -56 17 -106t49 -88t78 -60.5t105 -22.5q58 0 105.5 21t81 58t52 86.5t18.5 105.5q0 60 -19.5 109.5t-54.5 85.5t-84.5 56t-109.5 20zM370 704q78 0 145 -26.5t115.5 -74t76.5 -113.5t28 -145
q0 -78 -27.5 -143t-76 -112.5t-114.5 -73.5t-143 -26q-78 0 -142 27t-109.5 74.5t-70.5 113t-25 142.5t24 142.5t69 113t108.5 74.5t141.5 27z" />
    <glyph glyph-name="P" unicode="P" horiz-adv-x="421" 
d="M38 692h183q43 0 78.5 -14t61.5 -39t40.5 -60.5t14.5 -78.5q0 -70 -26.5 -109.5t-68.5 -58.5t-95 -23.5t-107 -4.5v-303h-81v691zM119 618v-230h111q25 0 45 10t34 26.5t21.5 38t7.5 45.5q0 47 -27 78.5t-75 31.5h-117z" />
    <glyph glyph-name="Q" unicode="Q" horiz-adv-x="770" 
d="M741 347q0 -63 -20.5 -121t-60.5 -106l65 -72l-79 -65l-61 69q-44 -29 -93 -45.5t-102 -16.5q-78 0 -144.5 27t-115.5 75.5t-77 114.5t-28 144q0 73 28.5 137.5t77.5 112t114 75t138 27.5q74 0 139 -28t114 -76t77 -113t28 -139zM383 78q79 0 144 41l-73 82l77 62l69 -77
q26 35 39.5 76t13.5 85q0 56 -21 105t-58 85.5t-86 57.5t-105 21q-57 0 -106 -21t-85.5 -57.5t-57.5 -85.5t-21 -106q0 -56 21 -105t57.5 -85t86 -57t105.5 -21z" />
    <glyph glyph-name="R" unicode="R" horiz-adv-x="532" 
d="M37 701h207q43 0 78.5 -13.5t61.5 -38.5t40.5 -60.5t14.5 -78.5q0 -51 -23.5 -97t-67.5 -72l164 -341h-101l-151 314q-32 -4 -65.5 -2.5t-65.5 1.5v-313h-89zM129 618v-224h109q24 0 43.5 9.5t33 26t20.5 37.5t7 44q0 45 -26 76t-73 31h-114z" />
    <glyph glyph-name="S" unicode="S" horiz-adv-x="502" 
d="M244 705q49 0 89 -7.5t80 -38.5l-46 -67q-29 20 -62.5 27t-67.5 7q-17 0 -33 -7.5t-28 -19.5t-19.5 -28t-7.5 -33q0 -38 24.5 -60.5t61.5 -39.5t80 -33t80 -40t61.5 -61t24.5 -97q0 -52 -20 -91.5t-53 -66.5t-77 -40.5t-92 -13.5q-59 0 -110.5 15t-103.5 42l18 97
q22 -10 46.5 -20.5t50 -19.5t51 -14.5t49.5 -5.5q25 0 51 8t47 23t34 37t13 50q0 40 -24.5 64.5t-61.5 41.5t-80.5 32t-80.5 37.5t-61.5 57.5t-24.5 91q0 40 16 72t42.5 54.5t61 35t72.5 12.5z" />
    <glyph glyph-name="T" unicode="T" horiz-adv-x="480" 
d="M11 686h458v-77h-186v-609h-85v609h-187v77v0z" />
    <glyph glyph-name="U" unicode="U" horiz-adv-x="549" 
d="M126 685v-419q0 -33 9.5 -65t28 -57t46.5 -40.5t65 -15.5t65 16t47 41.5t28 58t9 66.5l1 -2v414h91v-417q0 -56 -15.5 -104.5t-46 -84t-76 -56t-104.5 -20.5q-56 0 -100.5 21.5t-76 57.5t-48 84t-16.5 101v419z" />
    <glyph glyph-name="V" unicode="V" horiz-adv-x="656" 
d="M573 729l71 -36l-323 -730l-308 730l76 35l233 -547l251 548v0z" />
    <glyph glyph-name="W" unicode="W" horiz-adv-x="851" 
d="M430 370l-167 -391l-243 713l87 25l160 -490l144 332h32l143 -331l168 490l77 -26l-242 -711l-159 389v0z" />
    <glyph glyph-name="X" unicode="X" horiz-adv-x="686" 
d="M597 680l-198 -285l262 -376l-71 -57l-248 348l-238 -338l-80 47l263 371l-217 290l90 59l184 -263l186 258l67 -54v0z" />
    <glyph glyph-name="Y" unicode="Y" horiz-adv-x="598" 
d="M13 692l76 44l212 -318l212 318l72 -44l-234 -358v-331h-99v327h1l-240 362v0z" />
    <glyph glyph-name="Z" unicode="Z" horiz-adv-x="607" 
d="M111 682h470l-391 -594h384v-88h-555l407 602h-341l26 80v0z" />
    <glyph glyph-name="bracketleft" unicode="[" horiz-adv-x="281" 
d="M38 0v702h222v-80h-142v-542h144v-80h-224v0z" />
    <glyph glyph-name="backslash" unicode="\" horiz-adv-x="355" 
d="M271 0l-267 702h80l267 -702h-80v0z" />
    <glyph glyph-name="bracketright" unicode="]" horiz-adv-x="281" 
d="M244 0h-224v80h144v542h-142v80h222v-702v0z" />
    <glyph glyph-name="asciicircum" unicode="^" horiz-adv-x="317" 
d="M303 530h-75l-65 91l-71 -91h-80l152 204l139 -204v0z" />
    <glyph glyph-name="underscore" unicode="_" horiz-adv-x="539" 
d="M501 0v-82h-463v82h463v0z" />
    <glyph glyph-name="grave" unicode="`" horiz-adv-x="219" 
d="M70 671l140 -147l-50 -47l-152 121l62 73v0z" />
    <glyph glyph-name="a" unicode="a" 
d="M371 0h-87v41q-18 -21 -41 -36t-52 -15q-35 0 -65.5 7t-53.5 22.5t-36.5 42t-13.5 65.5q0 38 14.5 66.5t39.5 47t57 28t67 9.5q30 0 52 -15t36 -41q0 22 -1.5 44.5t-9 41t-23.5 30t-45 11.5q-23 0 -46 -7.5t-43 -18.5l-31 66q28 17 60.5 28t65.5 11q73 0 114.5 -44
t41.5 -116v-268zM290 132q0 20 -9.5 33.5t-24 22t-32 12t-33.5 3.5q-37 0 -64.5 -16.5t-27.5 -57.5q0 -20 8 -32.5t21.5 -19.5t29.5 -9.5t33 -2.5q15 0 32.5 3.5t32 11t24.5 20.5t10 32z" />
    <glyph glyph-name="b" unicode="b" horiz-adv-x="455" 
d="M242 426q109 0 157.5 -58.5t48.5 -163.5q0 -104 -49 -162.5t-157 -58.5q-34 0 -63.5 15t-53.5 38v-36h-87v748h87v-381q18 33 50 46t67 13zM236 61q34 0 57 11t37.5 30.5t20.5 46t6 57.5q0 29 -5.5 55.5t-18.5 46.5t-35 31.5t-55 11.5q-35 0 -58.5 -10.5t-38 -30t-21 -46
t-6.5 -58.5q0 -30 5.5 -56.5t19 -46t36 -31t56.5 -11.5z" />
    <glyph glyph-name="c" unicode="c" 
d="M24 209q0 46 13.5 87t39.5 72.5t63.5 50t86.5 18.5q40 0 80.5 -10t69.5 -39l-46 -66q-21 23 -49 28t-57 5t-51 -13.5t-37 -35.5t-22.5 -48.5t-7.5 -51.5q0 -26 8.5 -49.5t23.5 -41.5t37 -29t49 -11t55 3t50 21l44 -66q-17 -16 -33 -25t-33.5 -13t-36.5 -4.5t-41 -0.5
q-45 0 -83 18t-65.5 48t-42.5 69.5t-15 83.5z" />
    <glyph glyph-name="d" unicode="d" horiz-adv-x="436" 
d="M204 -10q-104 0 -150.5 57.5t-46.5 157.5q0 103 48 159.5t154 56.5q13 0 29 -1.5t31 -6t26.5 -13.5t16.5 -24v372h87v-748h-85v39q-16 -30 -47.5 -39.5t-62.5 -9.5zM207 342q-64 0 -90.5 -36.5t-26.5 -96.5q0 -30 6 -56t19.5 -44.5t36.5 -29.5t56 -11t54 11.5t34 31
t18 45t5 54.5q0 57 -25 94.5t-87 37.5z" />
    <glyph glyph-name="e" unicode="e" horiz-adv-x="436" 
d="M108 165q11 -49 42.5 -72t80.5 -23q27 0 51.5 12t43.5 31l54 -54q-29 -37 -68.5 -53t-85.5 -16t-83 16t-63 44.5t-40 67.5t-14 84t14.5 84.5t40.5 69t63.5 46.5t84.5 17q42 0 75.5 -16.5t57.5 -44t37 -64t13 -75.5q0 -14 -1 -27t-3 -27h-300zM340 245q-8 45 -36 71
t-76 26t-77 -26t-41 -71h230z" />
    <glyph glyph-name="f" unicode="f" horiz-adv-x="294" 
d="M70 403q0 33 5.5 74t20.5 78t42.5 62t71.5 25q20 0 40 -3.5t37 -16.5l-48 -75l-17 9q-30 0 -45.5 -16t-22 -39t-6.5 -50v-48h66v-80h-68v-323h-80v325h-50v78h54z" />
    <glyph glyph-name="g" unicode="g" horiz-adv-x="436" 
d="M110 216q0 -26 5 -49t17 -40t31.5 -27t48.5 -10q55 0 78.5 31t23.5 83q0 25 -4 49t-14.5 43t-29.5 30.5t-48 11.5q-59 0 -83.5 -33.5t-24.5 -88.5zM402 0q0 -93 -52.5 -147t-146.5 -54q-30 0 -51.5 3.5t-40.5 11t-37.5 19t-43.5 26.5l36 68q13 -7 31 -15.5t36.5 -16
t37.5 -12.5t34 -5q45 0 75.5 19t30.5 69v89q-7 -14 -18.5 -22.5t-25 -13.5t-28.5 -6.5t-29 -1.5q-49 0 -83.5 14.5t-56.5 41.5t-32 64.5t-10 83.5q0 97 45 151t146 54q29 0 51.5 -19t37.5 -42v44h94v-403z" />
    <glyph glyph-name="h" unicode="h" horiz-adv-x="408" 
d="M320 0q1 57 1 114v114q0 22 -6 42t-17.5 35.5t-29.5 24.5t-42 9q-23 0 -43 -9t-34.5 -24t-22.5 -35t-8 -43v-228h-80v748h82v-380q26 32 58.5 44.5t73.5 12.5q35 0 62.5 -14t46 -37t28.5 -53t10 -63v-258h-79z" />
    <glyph glyph-name="i" unicode="i" horiz-adv-x="164" 
d="M32 535q0 23 15.5 36.5t37.5 13.5t37 -13t15 -36t-15 -38t-38 -15t-37.5 14.5t-14.5 37.5zM36 422h92v-422h-91z" />
    <glyph glyph-name="j" unicode="j" horiz-adv-x="159" 
d="M32 535q0 23 15.5 36.5t37.5 13.5t37 -13t15 -36t-15 -38t-38 -15t-37.5 14.5t-14.5 37.5zM34 422h92v-538h-92v538z" />
    <glyph glyph-name="k" unicode="k" horiz-adv-x="467" 
d="M131 748v-510l186 186h118l-196 -197l226 -227h-118l-217 216v-216h-92v748h93v0z" />
    <glyph glyph-name="l" unicode="l" horiz-adv-x="163" 
d="M127 0h-89v782h89v-782v0z" />
    <glyph glyph-name="m" unicode="m" horiz-adv-x="663" 
d="M341 358q20 35 52.5 48.5t70.5 13.5q46 0 77.5 -15t50.5 -41.5t27.5 -62.5t8.5 -78v-223h-85v215q0 18 -4 39t-14 39t-25.5 30t-37.5 12q-24 0 -40 -11.5t-26 -29t-14.5 -38.5t-4.5 -41v-215h-78v215q0 22 -3.5 44.5t-13 40.5t-27 29.5t-44.5 11.5t-44.5 -11.5t-27 -29.5
t-13 -40.5t-3.5 -44.5v-215h-85v410h87v-58q11 30 31.5 51t54.5 21q18 0 39 -2t39.5 -9t32.5 -20t19 -35z" />
    <glyph glyph-name="n" unicode="n" horiz-adv-x="414" 
d="M298 0v226q0 21 -3.5 40.5t-12.5 35.5t-24.5 25.5t-40.5 9.5q-53 0 -74 -31.5t-21 -79.5v-226h-84v410h81v-57q9 38 34.5 56t63.5 18q47 0 78.5 -15.5t50.5 -43t27 -64t8 -78.5v-226h-83z" />
    <glyph glyph-name="o" unicode="o" horiz-adv-x="512" 
d="M257 357q-30 0 -56.5 -11t-46 -30t-30.5 -45t-11 -56q0 -66 35.5 -109.5t105.5 -43.5q68 0 108.5 41.5t40.5 109.5q0 65 -40.5 104.5t-105.5 39.5zM486 211q0 -51 -17.5 -92t-48.5 -70.5t-73.5 -45.5t-92.5 -16t-92 15.5t-72 45t-47 70.5t-17 92q0 50 18 91t49 70.5
t73.5 45.5t92.5 16q49 0 91 -16t72 -45t47 -70t17 -91z" />
    <glyph glyph-name="p" unicode="p" horiz-adv-x="437" 
d="M212 -10q-32 0 -57 13.5t-37 44.5v-249h-80v611h81v-47q17 27 42.5 42t57.5 15q209 0 209 -210q0 -109 -53 -164.5t-163 -55.5zM219 70q67 0 95.5 38t28.5 101t-28 101.5t-96 38.5q-31 0 -50.5 -12t-30.5 -32t-15 -45t-4 -51t4 -51t15 -44.5t30.5 -31.5t50.5 -12z" />
    <glyph glyph-name="q" unicode="q" horiz-adv-x="443" 
d="M225 420q31 0 60 -11t40 -43v44h81v-611h-80v236q-4 -14 -17 -23t-29 -14t-32.5 -6.5t-28.5 -1.5q-107 0 -158.5 54.5t-51.5 160.5q0 215 216 215zM222 71q32 0 52.5 12t32 32.5t16 46t4.5 52.5q0 54 -23.5 89.5t-82.5 35.5q-66 0 -99 -34t-33 -100q0 -134 133 -134z" />
    <glyph glyph-name="r" unicode="r" horiz-adv-x="317" 
d="M257 425q15 0 29 -4t27 -11l-36 -80q-12 3 -26 3q-42 0 -68.5 -17.5t-41.5 -46.5t-20.5 -65t-6.5 -73t1 -71.5t2 -59.5h-80v410h81v-64q1 17 17.5 31.5t38.5 25t45 16.5t38 6z" />
    <glyph glyph-name="s" unicode="s" horiz-adv-x="356" 
d="M18 72l65 52q17 -24 42.5 -38t55.5 -14q26 0 43 11.5t17 40.5q0 19 -13.5 30t-33.5 20t-43 18.5t-43 26t-33.5 42t-13.5 66.5q0 24 10 43.5t26.5 33t37.5 20.5t44 7q35 0 70.5 -9t59.5 -38l-38 -57q-15 16 -36 22.5t-43 6.5q-20 0 -37 -10.5t-17 -32.5q0 -21 14.5 -32.5
t35.5 -20.5t46.5 -18t46.5 -24t35.5 -38.5t14.5 -61.5q0 -31 -12.5 -55t-33.5 -40t-48 -24.5t-55 -8.5q-51 0 -93 20t-71 62z" />
    <glyph glyph-name="t" unicode="t" horiz-adv-x="221" 
d="M155 404h55v-90h-57v-314h-87v314h-54v90h57v192l86 31v-223v0z" />
    <glyph glyph-name="u" unicode="u" horiz-adv-x="411" 
d="M33 199v211h86v-220q0 -23 4 -45.5t14 -39.5t28 -27.5t45 -10.5q28 0 45 15.5t25.5 38t11 48.5t2.5 47v194h80v-410h-83v37q-6 -17 -18.5 -26t-28.5 -14t-33 -6t-31 -1q-45 0 -74 18.5t-45 48t-22 67t-6 75.5z" />
    <glyph glyph-name="v" unicode="v" horiz-adv-x="412" 
d="M400 402l-198 -444l-190 443l85 23l3 -2l103 -246l114 250l83 -24v0z" />
    <glyph glyph-name="w" unicode="w" horiz-adv-x="617" 
d="M19 396l78 27l111 -250l100 223l101 -223l114 250l75 -27l-189 -429l-101 213l-100 -213l-189 429v0z" />
    <glyph glyph-name="x" unicode="x" horiz-adv-x="426" 
d="M165 228l-117 170l92 27l76 -122l80 123l80 -28l-111 -169l135 -204q0 -1 -11 -7.5t-24 -14t-24.5 -14.5t-14.5 -8l-111 173l-110 -173l-81 43z" />
    <glyph glyph-name="y" unicode="y" horiz-adv-x="443" 
d="M180 72l-153 330l86 29l117 -255l128 256l79 -30l-287 -589h-105l135 259v0z" />
    <glyph glyph-name="z" unicode="z" horiz-adv-x="449" 
d="M81 332l24 82h305l-222 -328h228v-86h-393l236 332h-178v0z" />
    <glyph glyph-name="braceleft" unicode="{" horiz-adv-x="326" 
d="M89 325q50 -33 72.5 -63.5t30.5 -59.5t8 -57.5t6 -56t24 -55t62 -55.5v-112q-51 25 -86.5 56t-58 69.5t-33 84.5t-11.5 101q0 20 -9 37t-23 31t-31 25t-33 19l1 77q46 20 65.5 49.5t27 64.5t11 73.5t19.5 77.5t52.5 76.5t108.5 70.5v-103q-44 -30 -62.5 -58t-24 -55.5
t-5.5 -55.5t-8 -57t-30.5 -60t-72.5 -64z" />
    <glyph glyph-name="bar" unicode="|" horiz-adv-x="163" 
d="M38 -200v982h89v-982h-89v0z" />
    <glyph glyph-name="braceright" unicode="}" horiz-adv-x="327" 
d="M35 675v103q54 -25 87.5 -52t52.5 -56t27.5 -58t13 -58t8 -56t13 -51t28.5 -44.5t54 -36.5l1 -77q-16 -8 -33 -19t-31 -25t-23 -31t-9 -37q-3 -108 -45.5 -185t-143.5 -126v112q44 28 62 55.5t24 55t6 56t8 57.5t30.5 59.5t72.5 63.5q-51 33 -73 64t-30 60t-8 57
t-5.5 55.5t-24 56t-62.5 57.5z" />
    <glyph glyph-name="asciitilde" unicode="~" horiz-adv-x="359" 
d="M122 315q-14 0 -21 -6.5t-9.5 -15t-1.5 -16t4 -8.5l-55 -25v1q-4 9 -6.5 19t-2.5 21q0 19 8.5 34.5t23 26.5t32 17t35.5 6q28 0 43 -10.5t25 -23t18 -23t23 -10.5q14 0 21 6.5t9.5 15t1 15.5t-4.5 9l56 25v-1q4 -9 6.5 -19t2.5 -21q0 -19 -8.5 -34.5t-23 -26.5t-32 -17
t-35.5 -6q-29 0 -43.5 10.5t-24.5 23t-18 23t-23 10.5z" />
    <glyph glyph-name="exclamdown" unicode="&#xa1;" horiz-adv-x="161" 
d="M40 0v441h80v-441h-80zM81 576q-24 0 -41 17t-17 41t16.5 43t41.5 19t41.5 -19.5t16.5 -43.5q0 -25 -16.5 -41t-41.5 -16z" />
    <glyph glyph-name="cent" unicode="&#xa2;" horiz-adv-x="348" 
d="M329 446q-20 14 -42 23t-46 9v-233q46 10 88 37v-81q-20 -13 -42.5 -20.5t-45.5 -7.5v-79h-61v80q-38 0 -69 15t-53 40.5t-33.5 59t-11.5 69.5q0 77 46 127t121 62v63h61v-61q23 0 45 -7.5t43 -15.5v-80zM180 478q-20 -4 -36.5 -15t-28.5 -26.5t-18.5 -34.5t-6.5 -39
q0 -43 22.5 -76.5t67.5 -41.5v233z" />
    <glyph glyph-name="yen" unicode="&#xa5;" horiz-adv-x="609" 
d="M18 692h106l183 -274l179 274h106l-204 -312h162v-88h-193v-92h196v-88h-196v-112h-99v112h-208v88h208v92h-211v88h179l-208 312v0z" />
    <glyph glyph-name="section" unicode="&#xa7;" horiz-adv-x="513" 
d="M443 -26q-2 -40 -19 -72t-45 -54.5t-63 -35t-73 -12.5q-49 0 -89 7.5t-78 38.5l49 67q28 -20 61.5 -27t67.5 -7q17 0 33 7.5t29 19.5t21 28t9 33q2 38 -21.5 60.5t-60 39.5t-78.5 33t-78 40t-59 61t-20 97q1 18 8 35t18 33t23.5 30.5t23.5 26.5q-17 20 -25.5 46.5
t-6.5 61.5q2 40 19 72t45 54.5t63 35t73 12.5q49 0 89 -7.5t78 -38.5l-49 -67q-28 20 -61.5 27t-67.5 7q-17 0 -33 -7.5t-29 -19.5t-21 -28t-9 -33q-2 -38 22 -60.5t60 -39.5t78.5 -33t78 -40t58.5 -61t20 -97q-1 -17 -7.5 -34.5t-16.5 -34.5t-21.5 -33t-22.5 -29
q14 -20 21.5 -45t5.5 -57zM125 298q-2 -39 19.5 -62.5t55 -40.5t74 -31t76.5 -34q17 14 27 34t11 43q2 39 -19.5 62.5t-55 40.5t-74 31t-76.5 34q-17 -15 -27 -34.5t-11 -42.5z" />
    <glyph glyph-name="dieresis" unicode="&#xa8;" horiz-adv-x="368" 
d="M32 543q0 26 16.5 42t42.5 16q25 0 41 -15.5t16 -40.5q0 -26 -16 -43.5t-42 -17.5t-42 16.5t-16 42.5zM219 543q0 26 16.5 42t42.5 16q25 0 41 -15.5t16 -40.5q0 -26 -16 -43.5t-42 -17.5t-42 16.5t-16 42.5z" />
    <glyph glyph-name="guillemotleft" unicode="&#xab;" horiz-adv-x="458" 
d="M422 428v-87l-78 -53l78 -59v-91l-203 151l203 139v0zM215 430v-86l-78 -54l78 -58v-92l-204 152l204 138v0z" />
    <glyph glyph-name="macron" unicode="&#xaf;" horiz-adv-x="404" 
d="M37 515v55h331v-54l-331 -1v0z" />
    <glyph glyph-name="degree" unicode="&#xb0;" horiz-adv-x="189" 
d="M71 802q0 -11 7 -17t17 -6q11 0 18 6.5t7 17.5t-6.5 17.5t-17.5 6.5t-18 -7t-7 -18zM25 801q0 30 20.5 47.5t49.5 17.5q27 0 48.5 -19.5t21.5 -47.5q0 -29 -20.5 -49t-49.5 -20q-30 0 -50 20.5t-20 50.5z" />
    <glyph glyph-name="plusminus" unicode="&#xb1;" horiz-adv-x="425" 
d="M407 127h-388v91h388v-91v0zM394 474h-136v-156h-90v155h-141v88h140v146h90v-143h137v-90v0z" />
    <glyph glyph-name="twosuperior" unicode="&#xb2;" horiz-adv-x="303" 
d="M182 728h-1q8 13 14.5 27t6.5 29q0 17 -10.5 29.5t-28.5 12.5q-19 0 -34 -11t-21 -29l-54 34q15 33 42.5 48.5t63.5 15.5q45 0 74 -21.5t29 -69.5q0 -29 -13 -58.5t-31.5 -57t-39 -52.5t-36.5 -46h130v-62h-253z" />
    <glyph glyph-name="threesuperior" unicode="&#xb3;" horiz-adv-x="323" 
d="M62 896h239l-103 -142q45 -12 64 -39t19 -74q0 -28 -11 -51t-29 -39.5t-42.5 -25.5t-51.5 -9q-32 0 -63.5 9.5t-60.5 24.5l39 51q17 -8 36 -16t38 -8q18 0 33.5 2.5t27 10t18.5 20.5t7 33q0 22 -14.5 35.5t-34.5 20.5t-42 9t-38 2l94 126h-125v60z" />
    <glyph glyph-name="acute" unicode="&#xb4;" horiz-adv-x="219" 
d="M211 579l-152 -121l-50 47l140 147l62 -73v0z" />
    <glyph glyph-name="mu" unicode="&#xb5;" 
d="M38 422h92v-232q0 -23 4 -45.5t14 -39.5t28 -27.5t45 -10.5q28 0 45 15.5t25.5 38t11 48.5t2.5 47v205h80v-421h-83v37q-6 -17 -18.5 -26t-28.5 -14t-33 -6t-31 -1q-34 0 -61 11v-117h-92v538z" />
    <glyph glyph-name="paragraph" unicode="&#xb6;" horiz-adv-x="501" 
d="M191 315q-38 0 -70.5 13t-56 36t-37 55.5t-13.5 70.5q0 51 18 85t48 54.5t70 29t84 8.5h242v-42h-56v-738h-53v738h-102v-738h-53v429z" />
    <glyph glyph-name="periodcentered" unicode="&#xb7;" horiz-adv-x="165" 
d="M24 358q0 26 16.5 42t42.5 16q24 0 40.5 -15.5t16.5 -40.5q0 -26 -16 -43.5t-42 -17.5t-42 16.5t-16 42.5z" />
    <glyph glyph-name="cedilla" unicode="&#xb8;" horiz-adv-x="156" 
d="M48 -128q8 -10 19 -10t18.5 8t7.5 19q0 17 -11.5 21.5t-25.5 -0.5v95h42v-60q18 -9 29 -24.5t11 -35.5q0 -30 -21.5 -49t-50.5 -19q-17 0 -29.5 6.5t-23.5 18.5z" />
    <glyph glyph-name="onesuperior" unicode="&#xb9;" horiz-adv-x="154" 
d="M51 765l-4 -4l-44 39q29 27 56.5 55t55.5 56l2 -342v-47h-65q0 61 -0.5 121.5t-0.5 121.5z" />
    <glyph glyph-name="guillemotright" unicode="&#xbb;" horiz-adv-x="460" 
d="M37 428l204 -139l-204 -151v91l78 59l-78 53v87v0zM245 430l203 -138l-203 -152v92l78 58l-78 54v86v0z" />
    <glyph glyph-name="questiondown" unicode="&#xbf;" horiz-adv-x="379" 
d="M363 70q-32 -38 -75.5 -54t-92.5 -16q-41 0 -75 13t-58 36.5t-37.5 57t-13.5 74.5q0 49 21 82.5t48 60.5t54 53t39 61q8 22 6.5 45t2.5 46h86v-28q0 -42 -13 -75t-32.5 -59t-42 -48t-42 -42t-32.5 -41t-13 -45q0 -114 115 -114q23 0 38 4t27 11.5t22.5 19t25.5 27.5z
M225 749q25 0 41.5 -18t16.5 -42t-17 -41.5t-41 -17.5q-25 0 -41.5 16.5t-16.5 41.5q0 24 16.5 42.5t41.5 18.5z" />
    <glyph glyph-name="Agrave" unicode="&#xc0;" horiz-adv-x="657" 
d="M232 266h201l-97 248zM337 731q70 -186 150 -367t158 -364l-82 -37l-94 212h-275l-96 -212l-85 37q81 184 161.5 366t162.5 365zM289 926l140 -147l-50 -47l-152 121z" />
    <glyph glyph-name="Aacute" unicode="&#xc1;" horiz-adv-x="657" 
d="M368 926l62 -73l-152 -121l-50 47zM320 731q82 -183 162.5 -365t161.5 -366l-85 -37l-96 212h-275l-94 -212l-82 37q78 183 158 364t150 367zM425 266l-104 248l-97 -248h201z" />
    <glyph glyph-name="Acircumflex" unicode="&#xc2;" horiz-adv-x="659" 
d="M322 731q82 -183 162.5 -365t161.5 -366l-85 -37l-96 212h-275l-94 -212l-82 37q78 183 158 364t150 367zM427 266l-104 248l-97 -248h201zM468 739h-75l-65 91l-71 -91h-80l152 204z" />
    <glyph glyph-name="Atilde" unicode="&#xc3;" horiz-adv-x="651" 
d="M318 731q82 -183 162.5 -365t161.5 -366l-85 -37l-96 212h-275l-94 -212l-82 37q78 183 158 364t150 367zM423 266l-104 248l-97 -248h201zM274 846q-11 0 -16 -5t-7 -11.5t-1 -12t3 -6.5l-42 -19v1q-7 16 -7 30q0 15 6.5 26.5t17.5 20t24 13t27 4.5q22 0 33.5 -8
t18.5 -17.5t13.5 -17.5t17.5 -8q10 0 15.5 5t7.5 11.5t1 12t-3 6.5l42 19v-1q7 -16 7 -30q0 -15 -6.5 -26.5t-17.5 -20t-24.5 -13t-26.5 -4.5q-22 0 -33.5 8t-18.5 17.5t-13.5 17.5t-17.5 8z" />
    <glyph glyph-name="Adieresis" unicode="&#xc4;" horiz-adv-x="661" 
d="M170 816q0 26 16.5 42t42.5 16q25 0 41 -15.5t16 -40.5q0 -26 -16 -43.5t-42 -17.5t-42 16.5t-16 42.5zM357 816q0 26 16.5 42t42.5 16q25 0 41 -15.5t16 -40.5q0 -26 -16 -43.5t-42 -17.5t-42 16.5t-16 42.5zM323 731q82 -183 162.5 -365t161.5 -366l-85 -37l-96 212
h-275l-94 -212l-82 37q78 183 158 364t150 367zM428 266l-104 248l-97 -248h201z" />
    <glyph glyph-name="Aring" unicode="&#xc5;" horiz-adv-x="659" 
d="M253 787q0 30 20.5 47.5t49.5 17.5q27 0 48.5 -19.5t21.5 -47.5t-18.5 -47t-46.5 -21q81 -180 159.5 -358.5t158.5 -358.5l-85 -37l-96 212h-275l-94 -212l-82 37q76 178 156 356.5t146 360.5q-29 2 -46 22t-17 48zM427 266l-104 248l-97 -248h201zM348 789q0 11 -7 17.5
t-18 6.5t-17.5 -7t-6.5 -18t6.5 -18t17.5 -7t18 7.5t7 18.5z" />
    <glyph glyph-name="AE" unicode="&#xc6;" horiz-adv-x="790" 
d="M324 731l17 -38h416v-85h-379l87 -196h214v-83h-177l109 -247h155v-82h-118l-85 -37l-96 212h-275l-94 -212l-82 37l308 731v0zM429 266l-104 248l-97 -248h201v0z" />
    <glyph glyph-name="Ccedilla" unicode="&#xc7;" horiz-adv-x="638" 
d="M331 -128q8 -10 19 -10t18.5 8t7.5 19q0 15 -12.5 21.5t-24.5 -0.5v74q-70 7 -129 38.5t-102 81t-67.5 113t-24.5 132.5q0 82 28 149t78 115t119 74.5t150 26.5q63 0 118 -23t103 -64l-60 -63q-30 36 -74.5 50.5t-90.5 14.5q-58 0 -108 -22.5t-87 -60.5t-58 -89.5
t-21 -108.5q0 -56 20.5 -107t57 -89.5t86 -61t106.5 -22.5q54 0 100.5 19.5t80.5 62.5l58 -68q-50 -48 -111 -73t-130 -27v-37q17 -9 28.5 -24.5t11.5 -35.5q0 -30 -21.5 -49t-50.5 -19q-31 0 -53 25z" />
    <glyph glyph-name="Egrave" unicode="&#xc8;" horiz-adv-x="412" 
d="M178 902l140 -147l-50 -47l-152 121zM29 693h366v-85h-274v-196h196v-83h-196v-247h283v-82h-375v693v0z" />
    <glyph glyph-name="Eacute" unicode="&#xc9;" horiz-adv-x="413" 
d="M255 902l62 -73l-152 -121l-50 47l140 147v0zM28 693h366v-85h-274v-196h196v-83h-196v-247h283v-82h-375v693v0z" />
    <glyph glyph-name="Ecircumflex" unicode="&#xca;" horiz-adv-x="413" 
d="M28 693h366v-85h-274v-196h196v-83h-196v-247h283v-82h-375v693v0zM358 768h-75l-65 91l-71 -91h-80l152 204l139 -204v0z" />
    <glyph glyph-name="Edieresis" unicode="&#xcb;" horiz-adv-x="424" 
d="M66 773q0 26 16.5 42t42.5 16q25 0 41 -15.5t16 -40.5q0 -26 -16 -43.5t-42 -17.5t-42 16.5t-16 42.5zM253 773q0 26 16.5 42t42.5 16q25 0 41 -15.5t16 -40.5q0 -26 -16 -43.5t-42 -17.5t-42 16.5t-16 42.5zM35 693h366v-85h-274v-196h196v-83h-196v-247h283v-82h-375
v693z" />
    <glyph glyph-name="Igrave" unicode="&#xcc;" horiz-adv-x="225" 
d="M215 755l-50 -47l-152 121l62 73l140 -147v0zM160 0h-90v696h90v-696v0z" />
    <glyph glyph-name="Iacute" unicode="&#xcd;" horiz-adv-x="225" 
d="M65 696h90v-696h-90v696v0zM150 902l62 -73l-152 -121l-50 47l140 147v0z" />
    <glyph glyph-name="Icircumflex" unicode="&#xce;" horiz-adv-x="306" 
d="M107 696h90v-696h-90v696v0zM298 768h-75l-65 91l-71 -91h-80l152 204l139 -204v0z" />
    <glyph glyph-name="Idieresis" unicode="&#xcf;" horiz-adv-x="323" 
d="M111 696h90v-696h-90v696zM11 830q0 26 16.5 42t42.5 16q25 0 41 -15.5t16 -40.5q0 -26 -16 -43.5t-42 -17.5t-42 16.5t-16 42.5zM198 830q0 26 16.5 42t42.5 16q25 0 41 -15.5t16 -40.5q0 -26 -16 -43.5t-42 -17.5t-42 16.5t-16 42.5z" />
    <glyph glyph-name="Eth" unicode="&#xd0;" horiz-adv-x="588" 
d="M59 691q68 -1 132.5 0.5t120.5 -3.5t102.5 -20.5t79.5 -51t51.5 -95t18.5 -152.5q0 -66 -10.5 -132t-39 -118.5t-79 -85.5t-130.5 -33h-246v298h-30v81h30v312zM318 298h-170v-214l58 -1h46.5t46.5 1q55 1 88.5 26t52 63t25 84.5t6.5 91.5q0 44 -6 90.5t-24.5 84.5
t-52.5 62t-89 24h-151v-231h170v-81z" />
    <glyph glyph-name="Ntilde" unicode="&#xd1;" horiz-adv-x="593" 
d="M254 750l-13 8q-5 0 -7 -3.5t-1.5 -8.5t2 -10t2.5 -7l-65 -28q-5 11 -9 22.5t-4 23.5q0 17 7.5 31t20 24t28 15.5t31.5 5.5q23 0 41.5 -11.5t28.5 -31.5l13 -8q5 0 7 3.5t1.5 8.5t-2 10t-2.5 7l65 28q13 -21 13 -46q0 -17 -7.5 -31t-20 -24t-28 -15.5t-31.5 -5.5
q-23 0 -41.5 11.5t-28.5 31.5zM119 467v-464h-87v697l442 -496v492h88v-724z" />
    <glyph glyph-name="Ograve" unicode="&#xd2;" horiz-adv-x="743" 
d="M384 704q78 0 141.5 -27t108.5 -74.5t69 -113t24 -142.5t-25 -142.5t-70.5 -113t-109.5 -74.5t-142 -27q-77 0 -143 26t-114.5 73.5t-76 112.5t-27.5 143q0 79 27.5 145.5t76.5 113.5t116 73.5t145 26.5zM122 349q0 -56 18 -105.5t51.5 -86.5t81 -58t105.5 -21
q59 0 105.5 22.5t78.5 60.5t49 88t17 106q0 54 -15.5 102.5t-46 84.5t-75 57t-101.5 21q-60 0 -109 -20t-84.5 -56t-55 -85.5t-19.5 -109.5zM438 815l-50 -47l-152 121l62 73z" />
    <glyph glyph-name="Oacute" unicode="&#xd3;" horiz-adv-x="744" 
d="M446 962l62 -73l-152 -121l-50 47zM354 620q-57 0 -101.5 -21t-75 -57t-46 -84.5t-15.5 -102.5q0 -56 17 -106t49 -88t78 -60.5t105 -22.5q58 0 105.5 21t81 58t52 86.5t18.5 105.5q0 60 -19.5 109.5t-54.5 85.5t-84.5 56t-109.5 20zM360 704q78 0 145 -26.5t115.5 -74
t76.5 -113.5t28 -145q0 -78 -27.5 -143t-76 -112.5t-114.5 -73.5t-143 -26q-78 0 -142 27t-109.5 74.5t-70.5 113t-25 142.5t24 142.5t69 113t108.5 74.5t141.5 27z" />
    <glyph glyph-name="Ocircumflex" unicode="&#xd4;" horiz-adv-x="744" 
d="M356 620q-57 0 -101.5 -21t-75 -57t-46 -84.5t-15.5 -102.5q0 -56 17 -106t49 -88t78 -60.5t105 -22.5q58 0 105.5 21t81 58t52 86.5t18.5 105.5q0 60 -19.5 109.5t-54.5 85.5t-84.5 56t-109.5 20zM362 704q78 0 145 -26.5t115.5 -74t76.5 -113.5t28 -145
q0 -78 -27.5 -143t-76 -112.5t-114.5 -73.5t-143 -26q-78 0 -142 27t-109.5 74.5t-70.5 113t-25 142.5t24 142.5t69 113t108.5 74.5t141.5 27zM504 768h-75l-65 91l-71 -91h-80l152 204z" />
    <glyph glyph-name="Otilde" unicode="&#xd5;" horiz-adv-x="748" 
d="M325 812l-13 8q-5 0 -7 -3.5t-1.5 -8.5t2 -10t2.5 -7l-65 -28q-5 11 -9 22.5t-4 23.5q0 17 7.5 31t20 24t28 15.5t31.5 5.5q23 0 41.5 -11.5t28.5 -31.5l13 -8q5 0 7 3.5t1.5 8.5t-2 10t-2.5 7l65 28q5 -11 9 -22.5t4 -23.5q0 -17 -7.5 -31t-20 -24t-28 -15.5t-31.5 -5.5
q-23 0 -41.5 11.5t-28.5 31.5zM358 620q-57 0 -101.5 -21t-75 -57t-46 -84.5t-15.5 -102.5q0 -56 17 -106t49 -88t78 -60.5t105 -22.5q58 0 105.5 21t81 58t52 86.5t18.5 105.5q0 60 -19.5 109.5t-54.5 85.5t-84.5 56t-109.5 20zM364 704q78 0 145 -26.5t115.5 -74
t76.5 -113.5t28 -145q0 -78 -27.5 -143t-76 -112.5t-114.5 -73.5t-143 -26q-78 0 -142 27t-109.5 74.5t-70.5 113t-25 142.5t24 142.5t69 113t108.5 74.5t141.5 27z" />
    <glyph glyph-name="Odieresis" unicode="&#xd6;" horiz-adv-x="749" 
d="M224 824q0 26 16.5 42t42.5 16q25 0 41 -15.5t16 -40.5q0 -26 -16 -43.5t-42 -17.5t-42 16.5t-16 42.5zM411 824q0 26 16.5 42t42.5 16q25 0 41 -15.5t16 -40.5q0 -26 -16 -43.5t-42 -17.5t-42 16.5t-16 42.5zM358 620q-57 0 -101.5 -21t-75 -57t-46 -84.5t-15.5 -102.5
q0 -56 17 -106t49 -88t78 -60.5t105 -22.5q58 0 105.5 21t81 58t52 86.5t18.5 105.5q0 60 -19.5 109.5t-54.5 85.5t-84.5 56t-109.5 20zM364 704q78 0 145 -26.5t115.5 -74t76.5 -113.5t28 -145q0 -78 -27.5 -143t-76 -112.5t-114.5 -73.5t-143 -26q-78 0 -142 27
t-109.5 74.5t-70.5 113t-25 142.5t24 142.5t69 113t108.5 74.5t141.5 27z" />
    <glyph glyph-name="multiply" unicode="&#xd7;" horiz-adv-x="385" 
d="M349 457l-96 -97l110 -109l-64 -64l-110 109l-98 -100l-64 64l101 101l-105 100l64 64l102 -101l96 97l64 -64v0z" />
    <glyph glyph-name="Oslash" unicode="&#xd8;" horiz-adv-x="763" 
d="M167 4h-122l73 92q-89 111 -89 254q0 76 24 141t69 112.5t108 74t141 26.5q51 0 100.5 -11.5t93.5 -38.5l32 40h115l-75 -95q48 -55 73 -117t25 -136q0 -78 -27 -143.5t-75 -113t-114 -73.5t-144 -26q-50 0 -95 10.5t-88 35.5zM365 620q-58 0 -102.5 -21.5t-75 -58
t-46 -85t-15.5 -103.5q0 -96 55 -177l327 408q-33 19 -69 28t-74 9zM373 78q59 0 107 21t82.5 57.5t53 86t18.5 107.5q0 46 -14 91t-43 82l-326 -412q27 -17 58.5 -25t63.5 -8z" />
    <glyph glyph-name="Ugrave" unicode="&#xd9;" horiz-adv-x="546" 
d="M125 685v-419q0 -33 9.5 -65t28 -57t46.5 -40.5t65 -15.5t65 16t47 41.5t28 58t9 66.5l1 -2v414h91v-417q0 -56 -15.5 -104.5t-46 -84t-76 -56t-104.5 -20.5q-56 0 -100.5 21.5t-76 57.5t-48 84t-16.5 101v419zM223 735l140 -147l-50 -47l-152 121z" />
    <glyph glyph-name="Uacute" unicode="&#xda;" horiz-adv-x="530" 
d="M340 912l62 -73l-152 -121l-50 47zM114 685v-419q0 -33 9.5 -65t28 -57t46.5 -40.5t65 -15.5t65 16t47 41.5t28 58t9 66.5l1 -2v414h91v-417q0 -56 -15.5 -104.5t-46 -84t-76 -56t-104.5 -20.5q-56 0 -100.5 21.5t-76 57.5t-48 84t-16.5 101v419z" />
    <glyph glyph-name="Ucircumflex" unicode="&#xdb;" horiz-adv-x="533" 
d="M118 685v-419q0 -33 9.5 -65t28 -57t46.5 -40.5t65 -15.5t65 16t47 41.5t28 58t9 66.5l1 -2v414h91v-417q0 -56 -15.5 -104.5t-46 -84t-76 -56t-104.5 -20.5q-56 0 -100.5 21.5t-76 57.5t-48 84t-16.5 101v419zM413 707h-75l-65 91l-71 -91h-80l152 204z" />
    <glyph glyph-name="Udieresis" unicode="&#xdc;" horiz-adv-x="538" 
d="M125 810q0 26 16.5 42t42.5 16q25 0 41 -15.5t16 -40.5q0 -26 -16 -43.5t-42 -17.5t-42 16.5t-16 42.5zM312 810q0 26 16.5 42t42.5 16q25 0 41 -15.5t16 -40.5q0 -26 -16 -43.5t-42 -17.5t-42 16.5t-16 42.5zM120 685v-419q0 -33 9.5 -65t28 -57t46.5 -40.5t65 -15.5
t65 16t47 41.5t28 58t9 66.5l1 -2v414h91v-417q0 -56 -15.5 -104.5t-46 -84t-76 -56t-104.5 -20.5q-56 0 -100.5 21.5t-76 57.5t-48 84t-16.5 101v419z" />
    <glyph glyph-name="Yacute" unicode="&#xdd;" horiz-adv-x="587" 
d="M383 885l62 -73l-152 -121l-50 47l140 147v0zM6 692l76 44l212 -318l212 318l72 -44l-234 -358v-331h-99v327h1l-240 362v0z" />
    <glyph glyph-name="Thorn" unicode="&#xde;" horiz-adv-x="419" 
d="M38 1v691h81v-157q54 0 107 -3t95 -21.5t68.5 -57.5t26.5 -110q0 -70 -26.5 -109.5t-68.5 -58.5t-95 -23.5t-107 -4.5v-146h-81zM119 461v-230h111q25 0 45 10t34 26.5t21.5 38t7.5 45.5q0 47 -27 78.5t-75 31.5h-117z" />
    <glyph glyph-name="germandbls" unicode="&#xdf;" horiz-adv-x="352" 
d="M199 642q20 0 42.5 -6t38.5 -20l-48 -69l-19 9q-33 0 -52 -11t-28 -29.5t-11 -43t-2 -52.5h210v-76l-62 -99q29 -27 43 -64t14 -76q0 -55 -21.5 -93.5t-65.5 -70.5h-103q20 15 38.5 33.5t32.5 40t22.5 45.5t8.5 50q0 40 -20 74.5t-48 60.5l63 99h-116v-344h-84v424
q0 37 10 76t30.5 70.5t52 51.5t74.5 20z" />
    <glyph glyph-name="agrave" unicode="&#xe0;" horiz-adv-x="388" 
d="M364 0h-87v41q-18 -21 -41 -36t-52 -15q-35 0 -65.5 7t-53.5 22.5t-36.5 42t-13.5 65.5q0 38 14.5 66.5t39.5 47t57 28t67 9.5q30 0 52 -15t36 -41q0 22 -1.5 44.5t-9 41t-23.5 30t-45 11.5q-23 0 -46 -7.5t-43 -18.5l-31 66q28 17 60.5 28t65.5 11q73 0 114.5 -44
t41.5 -116v-268zM283 132q0 20 -9.5 33.5t-24 22t-32 12t-33.5 3.5q-37 0 -64.5 -16.5t-27.5 -57.5q0 -20 8 -32.5t21.5 -19.5t29.5 -9.5t33 -2.5q15 0 32.5 3.5t32 11t24.5 20.5t10 32zM181 643l140 -147l-50 -47l-152 121z" />
    <glyph glyph-name="aacute" unicode="&#xe1;" horiz-adv-x="389" 
d="M226 629l62 -73l-152 -121l-50 47zM364 0h-87v41q-18 -21 -41 -36t-52 -15q-35 0 -65.5 7t-53.5 22.5t-36.5 42t-13.5 65.5q0 38 14.5 66.5t39.5 47t57 28t67 9.5q30 0 52 -15t36 -41q0 22 -1.5 44.5t-9 41t-23.5 30t-45 11.5q-23 0 -46 -7.5t-43 -18.5l-31 66
q28 17 60.5 28t65.5 11q73 0 114.5 -44t41.5 -116v-268zM283 132q0 20 -9.5 33.5t-24 22t-32 12t-33.5 3.5q-37 0 -64.5 -16.5t-27.5 -57.5q0 -20 8 -32.5t21.5 -19.5t29.5 -9.5t33 -2.5q15 0 32.5 3.5t32 11t24.5 20.5t10 32z" />
    <glyph glyph-name="acircumflex" unicode="&#xe2;" horiz-adv-x="390" 
d="M364 0h-87v41q-18 -21 -41 -36t-52 -15q-35 0 -65.5 7t-53.5 22.5t-36.5 42t-13.5 65.5q0 38 14.5 66.5t39.5 47t57 28t67 9.5q30 0 52 -15t36 -41q0 22 -1.5 44.5t-9 41t-23.5 30t-45 11.5q-23 0 -46 -7.5t-43 -18.5l-31 66q28 17 60.5 28t65.5 11q73 0 114.5 -44
t41.5 -116v-268zM283 132q0 20 -9.5 33.5t-24 22t-32 12t-33.5 3.5q-37 0 -64.5 -16.5t-27.5 -57.5q0 -20 8 -32.5t21.5 -19.5t29.5 -9.5t33 -2.5q15 0 32.5 3.5t32 11t24.5 20.5t10 32zM354 460h-75l-65 91l-71 -91h-80l152 204z" />
    <glyph glyph-name="atilde" unicode="&#xe3;" horiz-adv-x="402" 
d="M167 505l-13 8q-5 0 -7 -3.5t-1.5 -8.5t2 -10t2.5 -7l-65 -28q-5 11 -9 22.5t-4 23.5q0 17 7.5 31t20 24t28 15.5t31.5 5.5q23 0 41.5 -11.5t28.5 -31.5l13 -8q5 0 7 3.5t1.5 8.5t-2 10t-2.5 7l65 28q5 -11 9 -22.5t4 -23.5q0 -17 -7.5 -31t-20 -24t-28 -15.5t-31.5 -5.5
q-23 0 -41.5 11.5t-28.5 31.5zM371 0h-87v41q-18 -21 -41 -36t-52 -15q-35 0 -65.5 7t-53.5 22.5t-36.5 42t-13.5 65.5q0 38 14.5 66.5t39.5 47t57 28t67 9.5q30 0 52 -15t36 -41q0 22 -1.5 44.5t-9 41t-23.5 30t-45 11.5q-23 0 -46 -7.5t-43 -18.5l-31 66q28 17 60.5 28
t65.5 11q73 0 114.5 -44t41.5 -116v-268zM290 132q0 20 -9.5 33.5t-24 22t-32 12t-33.5 3.5q-37 0 -64.5 -16.5t-27.5 -57.5q0 -20 8 -32.5t21.5 -19.5t29.5 -9.5t33 -2.5q15 0 32.5 3.5t32 11t24.5 20.5t10 32z" />
    <glyph glyph-name="adieresis" unicode="&#xe4;" horiz-adv-x="411" 
d="M73 540q0 26 16.5 42t42.5 16q25 0 41 -15.5t16 -40.5q0 -26 -16 -43.5t-42 -17.5t-42 16.5t-16 42.5zM260 540q0 26 16.5 42t42.5 16q25 0 41 -15.5t16 -40.5q0 -26 -16 -43.5t-42 -17.5t-42 16.5t-16 42.5zM373 0h-87v41q-18 -21 -41 -36t-52 -15q-35 0 -65.5 7
t-53.5 22.5t-36.5 42t-13.5 65.5q0 38 14.5 66.5t39.5 47t57 28t67 9.5q30 0 52 -15t36 -41q0 22 -1.5 44.5t-9 41t-23.5 30t-45 11.5q-23 0 -46 -7.5t-43 -18.5l-31 66q28 17 60.5 28t65.5 11q73 0 114.5 -44t41.5 -116v-268zM292 132q0 20 -9.5 33.5t-24 22t-32 12
t-33.5 3.5q-37 0 -64.5 -16.5t-27.5 -57.5q0 -20 8 -32.5t21.5 -19.5t29.5 -9.5t33 -2.5q15 0 32.5 3.5t32 11t24.5 20.5t10 32z" />
    <glyph glyph-name="aring" unicode="&#xe5;" horiz-adv-x="391" 
d="M236 534q0 11 -7 17.5t-18 6.5t-17.5 -7t-6.5 -18t6.5 -18t17.5 -7t18 7.5t7 18.5zM141 532q0 30 20.5 47.5t49.5 17.5q27 0 48.5 -19.5t21.5 -47.5q0 -30 -21 -48.5t-50 -18.5q-30 0 -49.5 19t-19.5 50zM365 0h-87v41q-18 -21 -41 -36t-52 -15q-35 0 -65.5 7t-53.5 22.5
t-36.5 42t-13.5 65.5q0 38 14.5 66.5t39.5 47t57 28t67 9.5q30 0 52 -15t36 -41q0 22 -1.5 44.5t-9 41t-23.5 30t-45 11.5q-23 0 -46 -7.5t-43 -18.5l-31 66q28 17 60.5 28t65.5 11q73 0 114.5 -44t41.5 -116v-268zM284 132q0 20 -9.5 33.5t-24 22t-32 12t-33.5 3.5
q-37 0 -64.5 -16.5t-27.5 -57.5q0 -20 8 -32.5t21.5 -19.5t29.5 -9.5t33 -2.5q15 0 32.5 3.5t32 11t24.5 20.5t10 32z" />
    <glyph glyph-name="ae" unicode="&#xe6;" horiz-adv-x="709" 
d="M377 165q11 -49 42.5 -72t80.5 -23q27 0 51.5 12t43.5 31l54 -54q-29 -37 -68.5 -53t-85.5 -16q-49 0 -84.5 15t-66.5 54q-29 -30 -66 -49.5t-80 -19.5q-35 0 -65.5 7t-53.5 22.5t-36.5 42t-13.5 65.5q0 38 14.5 66.5t39.5 47t57 28t67 9.5q30 0 52 -15t36 -41
q0 22 -1.5 44.5t-9 41t-23.5 30t-45 11.5q-23 0 -46 -7.5t-43 -18.5l-31 66q28 18 59.5 28t64.5 10q41 0 77.5 -15t56.5 -53q28 31 65 45.5t79 14.5t75.5 -16.5t57.5 -44t37 -64t13 -75.5q0 -14 -1 -27t-3 -27h-300zM297 132q0 20 -9.5 33.5t-24 22t-32 12t-33.5 3.5
q-37 0 -64.5 -16.5t-27.5 -57.5q0 -20 8 -32.5t21.5 -19.5t29.5 -9.5t33 -2.5q15 0 32.5 3.5t32 11t24.5 20.5t10 32zM609 245q-8 45 -36 71t-76 26t-77 -26t-41 -71h230z" />
    <glyph glyph-name="ccedilla" unicode="&#xe7;" horiz-adv-x="387" 
d="M193 -128q8 -10 19 -10t18.5 8t7.5 19q0 16 -12 21t-25 0v81q-43 5 -77.5 24t-59 48t-37.5 66.5t-13 79.5q0 46 13.5 87t39.5 72.5t63.5 50t86.5 18.5q40 0 80.5 -10t69.5 -39l-46 -66q-21 23 -49 28t-57 5t-51 -13.5t-37 -35.5t-22.5 -48.5t-7.5 -51.5q0 -26 8.5 -49.5
t23.5 -41.5t37 -29t49 -11t54.5 3t50.5 21l44 -66q-14 -14 -27.5 -22t-27.5 -12.5t-30 -6t-36 -1.5v-46q18 -9 29 -24.5t11 -35.5q0 -30 -21.5 -49t-50.5 -19q-17 0 -29.5 6.5t-23.5 18.5z" />
    <glyph glyph-name="egrave" unicode="&#xe8;" horiz-adv-x="420" 
d="M174 635l140 -147l-50 -47l-152 121zM101 165q11 -49 42.5 -72t80.5 -23q27 0 51.5 12t43.5 31l54 -54q-29 -37 -68.5 -53t-85.5 -16t-83 16t-63 44.5t-40 67.5t-14 84t14.5 84.5t40.5 69t63.5 46.5t84.5 17q42 0 75.5 -16.5t57.5 -44t37 -64t13 -75.5q0 -14 -1 -27
t-3 -27h-300zM333 245q-8 45 -36 71t-76 26t-77 -26t-41 -71h230z" />
    <glyph glyph-name="eacute" unicode="&#xe9;" horiz-adv-x="420" 
d="M249 628l62 -73l-152 -121l-50 47zM98 165q11 -49 42.5 -72t80.5 -23q27 0 51.5 12t43.5 31l54 -54q-29 -37 -68.5 -53t-85.5 -16t-83 16t-63 44.5t-40 67.5t-14 84t14.5 84.5t40.5 69t63.5 46.5t84.5 17q42 0 75.5 -16.5t57.5 -44t37 -64t13 -75.5q0 -14 -1 -27t-3 -27
h-300zM330 245q-8 45 -36 71t-76 26t-77 -26t-41 -71h230z" />
    <glyph glyph-name="ecircumflex" unicode="&#xea;" horiz-adv-x="421" 
d="M99 165q11 -49 42.5 -72t80.5 -23q27 0 51.5 12t43.5 31l54 -54q-29 -37 -68.5 -53t-85.5 -16t-83 16t-63 44.5t-40 67.5t-14 84t14.5 84.5t40.5 69t63.5 46.5t84.5 17q42 0 75.5 -16.5t57.5 -44t37 -64t13 -75.5q0 -14 -1 -27t-3 -27h-300zM331 245q-8 45 -36 71t-76 26
t-77 -26t-41 -71h230zM364 454h-75l-65 91l-71 -91h-80l152 204z" />
    <glyph glyph-name="edieresis" unicode="&#xeb;" horiz-adv-x="436" 
d="M81 551q0 26 16.5 42t42.5 16q25 0 41 -15.5t16 -40.5q0 -26 -16 -43.5t-42 -17.5t-42 16.5t-16 42.5zM268 551q0 26 16.5 42t42.5 16q25 0 41 -15.5t16 -40.5q0 -26 -16 -43.5t-42 -17.5t-42 16.5t-16 42.5zM106 165q11 -49 42.5 -72t80.5 -23q27 0 51.5 12t43.5 31
l54 -54q-29 -37 -68.5 -53t-85.5 -16t-83 16t-63 44.5t-40 67.5t-14 84t14.5 84.5t40.5 69t63.5 46.5t84.5 17q42 0 75.5 -16.5t57.5 -44t37 -64t13 -75.5q0 -14 -1 -27t-3 -27h-300zM338 245q-8 45 -36 71t-76 26t-77 -26t-41 -71h230z" />
    <glyph glyph-name="igrave" unicode="&#xec;" horiz-adv-x="230" 
d="M102 422h92v-422h-91l-1 422v0zM70 673l140 -147l-50 -47l-152 121l62 73v0z" />
    <glyph glyph-name="iacute" unicode="&#xed;" horiz-adv-x="232" 
d="M29 422h92v-422h-91l-1 422v0zM164 658l62 -73l-152 -121l-50 47l140 147v0z" />
    <glyph glyph-name="icircumflex" unicode="&#xee;" horiz-adv-x="305" 
d="M103 422h92v-422h-91l-1 422v0zM298 459h-75l-65 91l-71 -91h-80l152 204l139 -204v0z" />
    <glyph glyph-name="idieresis" unicode="&#xef;" horiz-adv-x="271" 
d="M147 535q0 23 15.5 36.5t37.5 13.5t37 -13t15 -36t-15 -38t-38 -15t-37.5 14.5t-14.5 37.5zM91 422h92v-422h-91zM18 535q0 23 15.5 36.5t37.5 13.5t37 -13t15 -36t-15 -38t-38 -15t-37.5 14.5t-14.5 37.5z" />
    <glyph glyph-name="eth" unicode="&#xf0;" horiz-adv-x="449" 
d="M274 577l-62 -57l182 -194q9 -10 17 -25.5t13 -32.5t8 -34t3 -31q0 -42 -16.5 -79t-44.5 -64.5t-65 -44t-79 -16.5q-43 0 -80.5 16.5t-65 45t-43 66t-15.5 80.5q0 37 15 73.5t41.5 65t61.5 45.5t74 15l-61 63l-58 -53l-49 53l57 52l-68 71l59 49l64 -69l63 58zM237 328
q-26 0 -49.5 -9t-41.5 -25.5t-29 -38.5t-11 -49q0 -26 9 -49t25.5 -40t39 -27t48.5 -10q25 0 48 9.5t41 26t28.5 39t10.5 48.5q0 25 -9 47.5t-25 39.5t-38 27.5t-47 10.5z" />
    <glyph glyph-name="ntilde" unicode="&#xf1;" 
d="M166 531l-13 8q-5 0 -7 -3.5t-1.5 -8.5t2 -10t2.5 -7l-65 -28q-5 11 -9 22.5t-4 23.5q0 17 7.5 31t20 24t28 15.5t31.5 5.5q23 0 41.5 -11.5t28.5 -31.5l13 -8q5 0 7 3.5t1.5 8.5t-2 10t-2.5 7l65 28q5 -11 9 -22.5t4 -23.5q0 -17 -7.5 -31t-20 -24t-28 -15.5t-31.5 -5.5
q-23 0 -41.5 11.5t-28.5 31.5zM292 0v226q0 21 -3.5 40.5t-12.5 35.5t-24.5 25.5t-40.5 9.5q-53 0 -74 -31.5t-21 -79.5v-226h-84v410h81v-57q9 38 34.5 56t63.5 18q47 0 78.5 -15.5t50.5 -43t27 -64t8 -78.5v-226h-83z" />
    <glyph glyph-name="ograve" unicode="&#xf2;" horiz-adv-x="495" 
d="M253 357q-30 0 -56.5 -11t-46 -30t-30.5 -45t-11 -56q0 -66 35.5 -109.5t105.5 -43.5q68 0 108.5 41.5t40.5 109.5q0 65 -40.5 104.5t-105.5 39.5zM482 211q0 -51 -17.5 -92t-48.5 -70.5t-73.5 -45.5t-92.5 -16t-92 15.5t-72 45t-47 70.5t-17 92q0 50 18 91t49 70.5
t73.5 45.5t92.5 16q49 0 91 -16t72 -45t47 -70t17 -91zM166 656l140 -147l-50 -47l-152 121z" />
    <glyph glyph-name="oacute" unicode="&#xf3;" horiz-adv-x="496" 
d="M282 643l62 -73l-152 -121l-50 47zM248 357q-30 0 -56.5 -11t-46 -30t-30.5 -45t-11 -56q0 -66 35.5 -109.5t105.5 -43.5q68 0 108.5 41.5t40.5 109.5q0 65 -40.5 104.5t-105.5 39.5zM477 211q0 -51 -17.5 -92t-48.5 -70.5t-73.5 -45.5t-92.5 -16t-92 15.5t-72 45
t-47 70.5t-17 92q0 50 18 91t49 70.5t73.5 45.5t92.5 16q49 0 91 -16t72 -45t47 -70t17 -91z" />
    <glyph glyph-name="ocircumflex" unicode="&#xf4;" horiz-adv-x="495" 
d="M248 357q-30 0 -56.5 -11t-46 -30t-30.5 -45t-11 -56q0 -66 35.5 -109.5t105.5 -43.5q68 0 108.5 41.5t40.5 109.5q0 65 -40.5 104.5t-105.5 39.5zM477 211q0 -51 -17.5 -92t-48.5 -70.5t-73.5 -45.5t-92.5 -16t-92 15.5t-72 45t-47 70.5t-17 92q0 50 18 91t49 70.5
t73.5 45.5t92.5 16q49 0 91 -16t72 -45t47 -70t17 -91zM396 496h-75l-65 91l-71 -91h-80l152 204z" />
    <glyph glyph-name="otilde" unicode="&#xf5;" horiz-adv-x="503" 
d="M210 531l-13 8q-5 0 -7 -3.5t-1.5 -8.5t2 -10t2.5 -7l-65 -28q-5 11 -9 22.5t-4 23.5q0 17 7.5 31t20 24t28 15.5t31.5 5.5q23 0 41.5 -11.5t28.5 -31.5l13 -8q5 0 7 3.5t1.5 8.5t-2 10t-2.5 7l65 28q5 -11 9 -22.5t4 -23.5q0 -17 -7.5 -31t-20 -24t-28 -15.5t-31.5 -5.5
q-23 0 -41.5 11.5t-28.5 31.5zM253 357q-30 0 -56.5 -11t-46 -30t-30.5 -45t-11 -56q0 -66 35.5 -109.5t105.5 -43.5q68 0 108.5 41.5t40.5 109.5q0 65 -40.5 104.5t-105.5 39.5zM482 211q0 -51 -17.5 -92t-48.5 -70.5t-73.5 -45.5t-92.5 -16t-92 15.5t-72 45t-47 70.5
t-17 92q0 50 18 91t49 70.5t73.5 45.5t92.5 16q49 0 91 -16t72 -45t47 -70t17 -91z" />
    <glyph glyph-name="odieresis" unicode="&#xf6;" horiz-adv-x="507" 
d="M95 561q0 26 16.5 42t42.5 16q25 0 41 -15.5t16 -40.5q0 -26 -16 -43.5t-42 -17.5t-42 16.5t-16 42.5zM282 561q0 26 16.5 42t42.5 16q25 0 41 -15.5t16 -40.5q0 -26 -16 -43.5t-42 -17.5t-42 16.5t-16 42.5zM255 357q-30 0 -56.5 -11t-46 -30t-30.5 -45t-11 -56
q0 -66 35.5 -109.5t105.5 -43.5q68 0 108.5 41.5t40.5 109.5q0 65 -40.5 104.5t-105.5 39.5zM484 211q0 -51 -17.5 -92t-48.5 -70.5t-73.5 -45.5t-92.5 -16t-92 15.5t-72 45t-47 70.5t-17 92q0 50 18 91t49 70.5t73.5 45.5t92.5 16q49 0 91 -16t72 -45t47 -70t17 -91z" />
    <glyph glyph-name="divide" unicode="&#xf7;" horiz-adv-x="309" 
d="M299 222h-289v81h289v-81zM92 402q0 25 18 39.5t41 14.5q24 0 41 -14t17 -39q0 -26 -17 -42t-42 -16t-41.5 15.5t-16.5 41.5zM102 116q0 26 16.5 42t42.5 16q25 0 41 -15.5t16 -40.5q0 -26 -16 -43.5t-42 -17.5t-42 16.5t-16 42.5z" />
    <glyph glyph-name="oslash" unicode="&#xf8;" horiz-adv-x="520" 
d="M135 0h-103l49 58q-27 31 -39.5 70.5t-12.5 81.5q0 50 18 91t49 70.5t73.5 45.5t92.5 16q29 0 57 -5.5t54 -19.5l21 25h97l-57 -70q29 -29 42 -70.5t13 -81.5q0 -51 -17.5 -92t-48.5 -70.5t-73.5 -45.5t-92.5 -16q-29 0 -58 5.5t-55 18.5zM257 62q68 0 108.5 41.5
t40.5 109.5q0 23 -5.5 45t-19.5 41l-186 -226q31 -11 62 -11zM260 357q-30 0 -56.5 -11t-46 -30t-30.5 -45t-11 -56q0 -50 20 -90l185 221q-14 6 -29.5 8.5t-31.5 2.5z" />
    <glyph glyph-name="ugrave" unicode="&#xf9;" horiz-adv-x="388" 
d="M24 199v211h86v-220q0 -23 4 -45.5t14 -39.5t28 -27.5t45 -10.5q28 0 45 15.5t25.5 38t11 48.5t2.5 47v194h80v-410h-83v37q-6 -17 -18.5 -26t-28.5 -14t-33 -6t-31 -1q-45 0 -74 18.5t-45 48t-22 67t-6 75.5zM157 638l140 -147l-50 -47l-152 121z" />
    <glyph glyph-name="uacute" unicode="&#xfa;" horiz-adv-x="389" 
d="M236 629l62 -73l-152 -121l-50 47zM20 199v211h86v-220q0 -23 4 -45.5t14 -39.5t28 -27.5t45 -10.5q28 0 45 15.5t25.5 38t11 48.5t2.5 47v194h80v-410h-83v37q-6 -17 -18.5 -26t-28.5 -14t-33 -6t-31 -1q-45 0 -74 18.5t-45 48t-22 67t-6 75.5z" />
    <glyph glyph-name="ucircumflex" unicode="&#xfb;" horiz-adv-x="389" 
d="M22 199v211h86v-220q0 -23 4 -45.5t14 -39.5t28 -27.5t45 -10.5q28 0 45 15.5t25.5 38t11 48.5t2.5 47v194h80v-410h-83v37q-6 -17 -18.5 -26t-28.5 -14t-33 -6t-31 -1q-45 0 -74 18.5t-45 48t-22 67t-6 75.5zM342 467h-75l-65 91l-71 -91h-80l152 204z" />
    <glyph glyph-name="udieresis" unicode="&#xfc;" horiz-adv-x="407" 
d="M58 534q0 26 16.5 42t42.5 16q25 0 41 -15.5t16 -40.5q0 -26 -16 -43.5t-42 -17.5t-42 16.5t-16 42.5zM245 534q0 26 16.5 42t42.5 16q25 0 41 -15.5t16 -40.5q0 -26 -16 -43.5t-42 -17.5t-42 16.5t-16 42.5zM31 199v211h86v-220q0 -23 4 -45.5t14 -39.5t28 -27.5
t45 -10.5q28 0 45 15.5t25.5 38t11 48.5t2.5 47v194h80v-410h-83v37q-6 -17 -18.5 -26t-28.5 -14t-33 -6t-31 -1q-45 0 -74 18.5t-45 48t-22 67t-6 75.5z" />
    <glyph glyph-name="yacute" unicode="&#xfd;" horiz-adv-x="428" 
d="M289 665l62 -73l-152 -121l-50 47l140 147v0zM165 72l-153 330l86 29l117 -255l128 256l79 -30l-287 -589h-105l135 259v0z" />
    <glyph glyph-name="thorn" unicode="&#xfe;" horiz-adv-x="428" 
d="M212 -10q-32 0 -57 13.5t-37 44.5v-249h-80v965h81v-401q17 27 42.5 42t57.5 15q209 0 209 -210q0 -109 -53 -164.5t-163 -55.5zM219 70q67 0 95.5 38t28.5 101t-28 101.5t-96 38.5q-31 0 -50.5 -12t-30.5 -32t-15 -45t-4 -51t4 -51t15 -44.5t30.5 -31.5t50.5 -12z" />
    <glyph glyph-name="ydieresis" unicode="&#xff;" horiz-adv-x="450" 
d="M180 72l-153 330l86 29l117 -255l128 256l79 -30l-287 -589h-105l135 259v0zM-70 543q0 26 16.5 42t42.5 16q25 0 41 -15.5t16 -40.5q0 -26 -16 -43.5t-42 -17.5t-42 16.5t-16 42.5zM117 543q0 26 16.5 42t42.5 16q25 0 41 -15.5t16 -40.5q0 -26 -16 -43.5t-42 -17.5
t-42 16.5t-16 42.5z" />
    <glyph glyph-name="Amacron" unicode="&#x100;" horiz-adv-x="653" 
d="M319 731q82 -183 162.5 -365t161.5 -366l-85 -37l-96 212h-275l-94 -212l-82 37q78 183 158 364t150 367zM424 266l-104 248l-97 -248h201zM161 779v55h331v-54z" />
    <glyph glyph-name="amacron" unicode="&#x101;" horiz-adv-x="395" 
d="M366 0h-87v41q-18 -21 -41 -36t-52 -15q-35 0 -65.5 7t-53.5 22.5t-36.5 42t-13.5 65.5q0 38 14.5 66.5t39.5 47t57 28t67 9.5q30 0 52 -15t36 -41q0 22 -1.5 44.5t-9 41t-23.5 30t-45 11.5q-23 0 -46 -7.5t-43 -18.5l-31 66q28 17 60.5 28t65.5 11q73 0 114.5 -44
t41.5 -116v-268zM285 132q0 20 -9.5 33.5t-24 22t-32 12t-33.5 3.5q-37 0 -64.5 -16.5t-27.5 -57.5q0 -20 8 -32.5t21.5 -19.5t29.5 -9.5t33 -2.5q15 0 32.5 3.5t32 11t24.5 20.5t10 32zM82 508v62h275v-61z" />
    <glyph glyph-name="Abreve" unicode="&#x102;" horiz-adv-x="663" 
d="M323 731q82 -183 162.5 -365t161.5 -366l-85 -37l-96 212h-275l-94 -212l-82 37q78 183 158 364t150 367zM428 266l-104 248l-97 -248h201zM478 900q-5 -30 -16.5 -56.5t-30 -46t-44 -31t-58.5 -11.5q-65 0 -100.5 40t-45.5 100h58q4 -35 28 -58.5t60 -23.5q40 0 64 24.5
t30 62.5h55z" />
    <glyph glyph-name="abreve" unicode="&#x103;" 
d="M372 0h-87v41q-18 -21 -41 -36t-52 -15q-35 0 -65.5 7t-53.5 22.5t-36.5 42t-13.5 65.5q0 38 14.5 66.5t39.5 47t57 28t67 9.5q30 0 52 -15t36 -41q0 22 -1.5 44.5t-9 41t-23.5 30t-45 11.5q-23 0 -46 -7.5t-43 -18.5l-31 66q28 17 60.5 28t65.5 11q73 0 114.5 -44
t41.5 -116v-268zM291 132q0 20 -9.5 33.5t-24 22t-32 12t-33.5 3.5q-37 0 -64.5 -16.5t-27.5 -57.5q0 -20 8 -32.5t21.5 -19.5t29.5 -9.5t33 -2.5q15 0 32.5 3.5t32 11t24.5 20.5t10 32zM358 623q-5 -30 -16.5 -56.5t-30 -46t-44 -31t-58.5 -11.5q-65 0 -100.5 40t-45.5 100
h58q4 -35 28 -58.5t60 -23.5q40 0 64 24.5t30 62.5h55z" />
    <glyph glyph-name="Aogonek" unicode="&#x104;" horiz-adv-x="653" 
d="M639 -160q-18 -16 -39 -16q-57 0 -84 30.5t-27 86.5q0 14 13 31.5t21 27.5h14l-79 175h-275l-94 -212l-82 37q78 183 158 364t150 367q82 -183 162.5 -365t161.5 -366l-85 -37l-3 7q-2 -4 -6.5 -13.5t-4.5 -13.5q0 -29 16 -42t44 -13q11 0 21 2t18 8v-58zM420 266
l-104 248l-97 -248h201z" />
    <glyph glyph-name="aogonek" unicode="&#x105;" horiz-adv-x="413" 
d="M387 -160q-18 -16 -39 -16q-57 0 -84 30.5t-27 86.5q0 14 13 31.5t21 27.5v41q-18 -21 -41 -36t-52 -15q-35 0 -65.5 7t-53.5 22.5t-36.5 42t-13.5 65.5q0 38 14.5 66.5t39.5 47t57 28t67 9.5q30 0 52 -15t36 -41q0 22 -1.5 44.5t-9 41t-23.5 30t-45 11.5q-23 0 -46 -7.5
t-43 -18.5l-31 66q28 17 60.5 28t65.5 11q73 0 114.5 -44t41.5 -116v-268h-35q-4 -5 -10 -12t-11.5 -15t-9.5 -16t-4 -14q0 -29 16 -42t44 -13q11 0 21 2t18 8v-58zM277 132q0 20 -9.5 33.5t-24 22t-32 12t-33.5 3.5q-37 0 -64.5 -16.5t-27.5 -57.5q0 -20 8 -32.5
t21.5 -19.5t29.5 -9.5t33 -2.5q15 0 32.5 3.5t32 11t24.5 20.5t10 32z" />
    <glyph glyph-name="Cacute" unicode="&#x106;" horiz-adv-x="638" 
d="M623 82q-51 -48 -114 -74t-133 -26q-75 0 -140.5 29.5t-114 79.5t-76.5 116.5t-28 141.5q0 82 28 149.5t78.5 115.5t119 74t149.5 26q63 0 118 -23t103 -64l-60 -63q-30 36 -74.5 50.5t-90.5 14.5q-58 0 -108 -22.5t-87 -60.5t-58 -89.5t-21 -108.5q0 -56 20.5 -107
t57 -89.5t86 -61t106.5 -22.5q54 0 100.5 19.5t80.5 62.5zM420 843l-152 -121l-50 47l140 147z" />
    <glyph glyph-name="cacute" unicode="&#x107;" horiz-adv-x="391" 
d="M11 209q0 46 13.5 87t39.5 72.5t63.5 50t86.5 18.5q40 0 80.5 -10t69.5 -39l-46 -66q-21 23 -49 28t-57 5t-51 -13.5t-37 -35.5t-22.5 -48.5t-7.5 -51.5q0 -26 8.5 -49.5t23.5 -41.5t37 -29t49 -11t55 3t50 21l44 -66q-17 -16 -33 -25t-33.5 -13t-36.5 -4.5t-41 -0.5
q-45 0 -83 18t-65.5 48t-42.5 69.5t-15 83.5zM361 579l-152 -121l-50 47l140 147z" />
    <glyph glyph-name="Ccircumflex" unicode="&#x108;" horiz-adv-x="640" 
d="M622 82q-51 -48 -114 -74t-133 -26q-75 0 -140.5 29.5t-114 79.5t-76.5 116.5t-28 141.5q0 82 28 149.5t78.5 115.5t119 74t149.5 26q63 0 118 -23t103 -64l-60 -63q-30 36 -74.5 50.5t-90.5 14.5q-58 0 -108 -22.5t-87 -60.5t-58 -89.5t-21 -108.5q0 -56 20.5 -107
t57 -89.5t86 -61t106.5 -22.5q54 0 100.5 19.5t80.5 62.5zM515 743h-75l-65 91l-71 -91h-80l152 204z" />
    <glyph glyph-name="ccircumflex" unicode="&#x109;" horiz-adv-x="389" 
d="M16 209q0 46 13.5 87t39.5 72.5t63.5 50t86.5 18.5q40 0 80.5 -10t69.5 -39l-46 -66q-21 23 -49 28t-57 5t-51 -13.5t-37 -35.5t-22.5 -48.5t-7.5 -51.5q0 -26 8.5 -49.5t23.5 -41.5t37 -29t49 -11t55 3t50 21l44 -66q-17 -16 -33 -25t-33.5 -13t-36.5 -4.5t-41 -0.5
q-45 0 -83 18t-65.5 48t-42.5 69.5t-15 83.5zM362 466h-75l-65 91l-71 -91h-80l152 204z" />
    <glyph glyph-name="Cdotaccent" unicode="&#x10a;" horiz-adv-x="636" 
d="M622 82q-51 -48 -114 -74t-133 -26q-75 0 -140.5 29.5t-114 79.5t-76.5 116.5t-28 141.5q0 82 28 149.5t78.5 115.5t119 74t149.5 26q63 0 118 -23t103 -64l-60 -63q-30 36 -74.5 50.5t-90.5 14.5q-58 0 -108 -22.5t-87 -60.5t-58 -89.5t-21 -108.5q0 -56 20.5 -107
t57 -89.5t86 -61t106.5 -22.5q54 0 100.5 19.5t80.5 62.5zM316 817q0 26 16.5 42t42.5 16q24 0 40.5 -15.5t16.5 -40.5q0 -26 -16 -43.5t-42 -17.5t-42 16.5t-16 42.5z" />
    <glyph glyph-name="cdotaccent" unicode="&#x10b;" horiz-adv-x="388" 
d="M16 209q0 46 13.5 87t39.5 72.5t63.5 50t86.5 18.5q40 0 80.5 -10t69.5 -39l-46 -66q-21 23 -49 28t-57 5t-51 -13.5t-37 -35.5t-22.5 -48.5t-7.5 -51.5q0 -26 8.5 -49.5t23.5 -41.5t37 -29t49 -11t55 3t50 21l44 -66q-17 -16 -33 -25t-33.5 -13t-36.5 -4.5t-41 -0.5
q-45 0 -83 18t-65.5 48t-42.5 69.5t-15 83.5zM159 538q0 26 16.5 42t42.5 16q24 0 40.5 -15.5t16.5 -40.5q0 -26 -16 -43.5t-42 -17.5t-42 16.5t-16 42.5z" />
    <glyph glyph-name="Ccaron" unicode="&#x10c;" horiz-adv-x="641" 
d="M623 82q-51 -48 -114 -74t-133 -26q-75 0 -140.5 29.5t-114 79.5t-76.5 116.5t-28 141.5q0 82 28 149.5t78.5 115.5t119 74t149.5 26q63 0 118 -23t103 -64l-60 -63q-30 36 -74.5 50.5t-90.5 14.5q-58 0 -108 -22.5t-87 -60.5t-58 -89.5t-21 -108.5q0 -56 20.5 -107
t57 -89.5t86 -61t106.5 -22.5q54 0 100.5 19.5t80.5 62.5zM362 746l-152 204h80l71 -91l65 91h75z" />
    <glyph glyph-name="ccaron" unicode="&#x10d;" horiz-adv-x="396" 
d="M19 209q0 46 13.5 87t39.5 72.5t63.5 50t86.5 18.5q40 0 80.5 -10t69.5 -39l-46 -66q-21 23 -49 28t-57 5t-51 -13.5t-37 -35.5t-22.5 -48.5t-7.5 -51.5q0 -26 8.5 -49.5t23.5 -41.5t37 -29t49 -11t55 3t50 21l44 -66q-17 -16 -33 -25t-33.5 -13t-36.5 -4.5t-41 -0.5
q-45 0 -83 18t-65.5 48t-42.5 69.5t-15 83.5zM227 482l-152 204h80l71 -91l65 91h75z" />
    <glyph glyph-name="Dcaron" unicode="&#x10e;" horiz-adv-x="556" 
d="M32 691q68 -1 132.5 0.5t120.5 -3.5t102.5 -20.5t79.5 -51t51.5 -95t18.5 -152.5q0 -66 -10.5 -132t-39 -118.5t-79 -85.5t-130.5 -33h-246v691zM272 610h-151v-526l58 -1h46.5t46.5 1q55 1 88.5 26t52 63t25 84.5t6.5 91.5q0 44 -6 90.5t-24.5 84.5t-52.5 62t-89 24z
M236 746l-152 204h80l71 -91l65 91h75z" />
    <glyph glyph-name="dcaron" unicode="&#x10f;" horiz-adv-x="564" 
d="M209 -10q-104 0 -150.5 57.5t-46.5 157.5q0 103 48 159.5t154 56.5q13 0 29 -1.5t31 -6t26.5 -13.5t16.5 -24v372h87v-748h-85v39q-16 -30 -47.5 -39.5t-62.5 -9.5zM212 342q-64 0 -90.5 -36.5t-26.5 -96.5q0 -30 6 -56t19.5 -44.5t36.5 -29.5t56 -11t54 11.5t34 31
t18 45t5 54.5q0 57 -25 94.5t-87 37.5zM457 690q0 18 13.5 33.5t31.5 15.5q12 0 20 -6.5t13 -16.5t7 -21.5t2 -20.5q0 -14 -4.5 -32t-13 -34.5t-20 -30t-25.5 -19.5q5 12 6 26t1 27q0 23 -5 32t-10.5 14.5t-10.5 11t-5 21.5z" />
    <glyph glyph-name="Dcroat" unicode="&#x110;" horiz-adv-x="591" 
d="M28 332v55h34v304q68 -1 132.5 0.5t120.5 -3.5t102.5 -20.5t79.5 -51t51.5 -95t18.5 -152.5q0 -66 -10.5 -132t-39 -118.5t-79 -85.5t-130.5 -33h-246v332h-34zM302 610h-151v-223h208v-54l-208 -1v-248l58 -1h46.5t46.5 1q55 1 88.5 26t52 63t25 84.5t6.5 91.5
q0 44 -6 90.5t-24.5 84.5t-52.5 62t-89 24z" />
    <glyph glyph-name="dcroat" unicode="&#x111;" horiz-adv-x="482" 
d="M458 539h-55v-539h-85v39q-16 -30 -47.5 -39.5t-62.5 -9.5q-104 0 -150.5 57.5t-46.5 157.5q0 103 48 159.5t154 56.5q13 0 29 -1.5t31 -6t26.5 -13.5t16.5 -24v163h-147v81h147v128h87v-128h55v-81zM211 342q-64 0 -90.5 -36.5t-26.5 -96.5q0 -30 6 -56t19.5 -44.5
t36.5 -29.5t56 -11t54 11.5t34 31t18 45t5 54.5q0 57 -25 94.5t-87 37.5z" />
    <glyph glyph-name="Emacron" unicode="&#x112;" horiz-adv-x="411" 
d="M30 693h366v-85h-274v-196h196v-83h-196v-247h283v-82h-375v693v0zM52 779v55h331v-54l-331 -1v0z" />
    <glyph glyph-name="emacron" unicode="&#x113;" horiz-adv-x="424" 
d="M102 165q11 -49 42.5 -72t80.5 -23q27 0 51.5 12t43.5 31l54 -54q-29 -37 -68.5 -53t-85.5 -16t-83 16t-63 44.5t-40 67.5t-14 84t14.5 84.5t40.5 69t63.5 46.5t84.5 17q42 0 75.5 -16.5t57.5 -44t37 -64t13 -75.5q0 -14 -1 -27t-3 -27h-300zM334 245q-8 45 -36 71
t-76 26t-77 -26t-41 -71h230zM45 515v55h331v-54z" />
    <glyph glyph-name="Ebreve" unicode="&#x114;" horiz-adv-x="422" 
d="M33 693h366v-85h-274v-196h196v-83h-196v-247h283v-82h-375v693zM368 900q-5 -30 -16.5 -56.5t-30 -46t-44 -31t-58.5 -11.5q-65 0 -100.5 40t-45.5 100h58q4 -35 28 -58.5t60 -23.5q40 0 64 24.5t30 62.5h55z" />
    <glyph glyph-name="ebreve" unicode="&#x115;" horiz-adv-x="432" 
d="M106 165q11 -49 42.5 -72t80.5 -23q27 0 51.5 12t43.5 31l54 -54q-29 -37 -68.5 -53t-85.5 -16t-83 16t-63 44.5t-40 67.5t-14 84t14.5 84.5t40.5 69t63.5 46.5t84.5 17q42 0 75.5 -16.5t57.5 -44t37 -64t13 -75.5q0 -14 -1 -27t-3 -27h-300zM338 245q-8 45 -36 71
t-76 26t-77 -26t-41 -71h230zM362 636q-5 -30 -16.5 -56.5t-30 -46t-44 -31t-58.5 -11.5q-65 0 -100.5 40t-45.5 100h58q4 -35 28 -58.5t60 -23.5q40 0 64 24.5t30 62.5h55z" />
    <glyph glyph-name="Edotaccent" unicode="&#x116;" horiz-adv-x="409" 
d="M27 693h366v-85h-274v-196h196v-83h-196v-247h283v-82h-375v693zM152 827q0 26 16.5 42t42.5 16q24 0 40.5 -15.5t16.5 -40.5q0 -26 -16 -43.5t-42 -17.5t-42 16.5t-16 42.5z" />
    <glyph glyph-name="edotaccent" unicode="&#x117;" horiz-adv-x="421" 
d="M100 165q11 -49 42.5 -72t80.5 -23q27 0 51.5 12t43.5 31l54 -54q-29 -37 -68.5 -53t-85.5 -16t-83 16t-63 44.5t-40 67.5t-14 84t14.5 84.5t40.5 69t63.5 46.5t84.5 17q42 0 75.5 -16.5t57.5 -44t37 -64t13 -75.5q0 -14 -1 -27t-3 -27h-300zM332 245q-8 45 -36 71
t-76 26t-77 -26t-41 -71h230zM157 528q0 26 16.5 42t42.5 16q24 0 40.5 -15.5t16.5 -40.5q0 -26 -16 -43.5t-42 -17.5t-42 16.5t-16 42.5z" />
    <glyph glyph-name="Eogonek" unicode="&#x118;" horiz-adv-x="416" 
d="M398 -160q-18 -16 -39 -16q-57 0 -84 30.5t-27 86.5q0 14 13 31.5t21 27.5h-259v693h366v-85h-274v-196h196v-83h-196v-247h283v-82h-64q-4 -5 -10 -12t-11.5 -15t-9.5 -16t-4 -14q0 -29 16 -42t44 -13q11 0 21 2t18 8v-58z" />
    <glyph glyph-name="eogonek" unicode="&#x119;" horiz-adv-x="436" 
d="M410 -160q-18 -16 -39 -16q-57 0 -84 30.5t-27 86.5q0 28 11 56q-27 -7 -59 -7q-47 0 -84 16t-62.5 44.5t-39.5 67.5t-14 84t14.5 84.5t40.5 69t63.5 46.5t84.5 17q42 0 76 -16.5t57.5 -44t36.5 -64t13 -75.5q0 -14 -1 -27t-3 -27h-300q11 -48 42.5 -71.5t80.5 -23.5
q27 0 51.5 12t43.5 31l54 -54q-13 -17 -23.5 -28t-17.5 -22.5t-10.5 -26.5t-3.5 -39q0 -29 16 -42t44 -13q11 0 21 2t18 8v-58zM326 245q-8 45 -36 71t-76 26t-77 -26t-41 -71h230z" />
    <glyph glyph-name="Ecaron" unicode="&#x11a;" horiz-adv-x="417" 
d="M30 693h366v-85h-274v-196h196v-83h-196v-247h283v-82h-375v693v0zM224 746l-152 204h80l71 -91l65 91h75l-139 -204v0z" />
    <glyph glyph-name="ecaron" unicode="&#x11b;" horiz-adv-x="428" 
d="M104 165q11 -49 42.5 -72t80.5 -23q27 0 51.5 12t43.5 31l54 -54q-29 -37 -68.5 -53t-85.5 -16t-83 16t-63 44.5t-40 67.5t-14 84t14.5 84.5t40.5 69t63.5 46.5t84.5 17q42 0 75.5 -16.5t57.5 -44t37 -64t13 -75.5q0 -14 -1 -27t-3 -27h-300zM336 245q-8 45 -36 71
t-76 26t-77 -26t-41 -71h230zM219 482l-152 204h80l71 -91l65 91h75z" />
    <glyph glyph-name="Gcircumflex" unicode="&#x11c;" horiz-adv-x="669" 
d="M650 363v-247q-27 -38 -59.5 -63t-69.5 -39.5t-78.5 -20.5t-86.5 -6q-79 0 -142 28t-106.5 77t-67 115.5t-23.5 142.5q0 70 30 136t80.5 117t115.5 81.5t136 30.5q63 0 123.5 -19t108.5 -63l-62 -62h-1v1q-32 33 -76 44.5t-89 11.5q-57 0 -107 -22.5t-87.5 -61
t-59.5 -89.5t-22 -107q0 -57 17.5 -106.5t49.5 -86t78.5 -58t105.5 -21.5q37 0 61 2.5t44 9t41.5 18t53.5 29.5l-1 139h-134l-2 2v87l4 1q57 0 112.5 -0.5t112.5 -0.5zM505 756h-75l-65 91l-71 -91h-80l152 204z" />
    <glyph glyph-name="gcircumflex" unicode="&#x11d;" horiz-adv-x="417" 
d="M100 216q0 -26 5 -49t17 -40t31.5 -27t48.5 -10q55 0 78.5 31t23.5 83q0 25 -4 49t-14.5 43t-29.5 30.5t-48 11.5q-59 0 -83.5 -33.5t-24.5 -88.5zM392 0q0 -93 -52.5 -147t-146.5 -54q-30 0 -51.5 3.5t-40.5 11t-37.5 19t-43.5 26.5l36 68q13 -7 31 -15.5t36.5 -16
t37.5 -12.5t34 -5q45 0 75.5 19t30.5 69v89q-7 -14 -18.5 -22.5t-25 -13.5t-28.5 -6.5t-29 -1.5q-49 0 -83.5 14.5t-56.5 41.5t-32 64.5t-10 83.5q0 97 45 151t146 54q29 0 51.5 -19t37.5 -42v44h94v-403zM360 481h-75l-65 91l-71 -91h-80l152 204z" />
    <glyph glyph-name="Gbreve" unicode="&#x11e;" horiz-adv-x="674" 
d="M652 363v-247q-27 -38 -59.5 -63t-69.5 -39.5t-78.5 -20.5t-86.5 -6q-79 0 -142 28t-106.5 77t-67 115.5t-23.5 142.5q0 70 30 136t80.5 117t115.5 81.5t136 30.5q63 0 123.5 -19t108.5 -63l-62 -62h-1v1q-32 33 -76 44.5t-89 11.5q-57 0 -107 -22.5t-87.5 -61
t-59.5 -89.5t-22 -107q0 -57 17.5 -106.5t49.5 -86t78.5 -58t105.5 -21.5q37 0 61 2.5t44 9t41.5 18t53.5 29.5l-1 139h-134l-2 2v87l4 1q57 0 112.5 -0.5t112.5 -0.5zM517 900q-5 -30 -16.5 -56.5t-30 -46t-44 -31t-58.5 -11.5q-65 0 -100.5 40t-45.5 100h58
q4 -35 28 -58.5t60 -23.5q40 0 64 24.5t30 62.5h55z" />
    <glyph glyph-name="gbreve" unicode="&#x11f;" horiz-adv-x="427" 
d="M106 216q0 -26 5 -49t17 -40t31.5 -27t48.5 -10q55 0 78.5 31t23.5 83q0 25 -4 49t-14.5 43t-29.5 30.5t-48 11.5q-59 0 -83.5 -33.5t-24.5 -88.5zM398 0q0 -93 -52.5 -147t-146.5 -54q-30 0 -51.5 3.5t-40.5 11t-37.5 19t-43.5 26.5l36 68q13 -7 31 -15.5t36.5 -16
t37.5 -12.5t34 -5q45 0 75.5 19t30.5 69v89q-7 -14 -18.5 -22.5t-25 -13.5t-28.5 -6.5t-29 -1.5q-49 0 -83.5 14.5t-56.5 41.5t-32 64.5t-10 83.5q0 97 45 151t146 54q29 0 51.5 -19t37.5 -42v44h94v-403zM361 636q-5 -30 -16.5 -56.5t-30 -46t-44 -31t-58.5 -11.5
q-65 0 -100.5 40t-45.5 100h58q4 -35 28 -58.5t60 -23.5q40 0 64 24.5t30 62.5h55z" />
    <glyph glyph-name="Gdotaccent" unicode="&#x120;" horiz-adv-x="666" 
d="M649 363v-247q-27 -38 -59.5 -63t-69.5 -39.5t-78.5 -20.5t-86.5 -6q-79 0 -142 28t-106.5 77t-67 115.5t-23.5 142.5q0 70 30 136t80.5 117t115.5 81.5t136 30.5q63 0 123.5 -19t108.5 -63l-62 -62h-1v1q-32 33 -76 44.5t-89 11.5q-57 0 -107 -22.5t-87.5 -61
t-59.5 -89.5t-22 -107q0 -57 17.5 -106.5t49.5 -86t78.5 -58t105.5 -21.5q37 0 61 2.5t44 9t41.5 18t53.5 29.5l-1 139h-134l-2 2v87l4 1q57 0 112.5 -0.5t112.5 -0.5zM329 840q0 26 16.5 42t42.5 16q24 0 40.5 -15.5t16.5 -40.5q0 -26 -16 -43.5t-42 -17.5t-42 16.5
t-16 42.5z" />
    <glyph glyph-name="gdotaccent" unicode="&#x121;" horiz-adv-x="415" 
d="M99 216q0 -26 5 -49t17 -40t31.5 -27t48.5 -10q55 0 78.5 31t23.5 83q0 25 -4 49t-14.5 43t-29.5 30.5t-48 11.5q-59 0 -83.5 -33.5t-24.5 -88.5zM391 0q0 -93 -52.5 -147t-146.5 -54q-30 0 -51.5 3.5t-40.5 11t-37.5 19t-43.5 26.5l36 68q13 -7 31 -15.5t36.5 -16
t37.5 -12.5t34 -5q45 0 75.5 19t30.5 69v89q-7 -14 -18.5 -22.5t-25 -13.5t-28.5 -6.5t-29 -1.5q-49 0 -83.5 14.5t-56.5 41.5t-32 64.5t-10 83.5q0 97 45 151t146 54q29 0 51.5 -19t37.5 -42v44h94v-403zM165 554q0 26 16.5 42t42.5 16q24 0 40.5 -15.5t16.5 -40.5
q0 -26 -16 -43.5t-42 -17.5t-42 16.5t-16 42.5z" />
    <glyph glyph-name="Gcommaaccent" unicode="&#x122;" horiz-adv-x="667" 
d="M649 363v-247q-27 -38 -59.5 -63t-69.5 -39.5t-78.5 -20.5t-86.5 -6q-79 0 -142 28t-106.5 77t-67 115.5t-23.5 142.5q0 70 30 136t80.5 117t115.5 81.5t136 30.5q63 0 123.5 -19t108.5 -63l-62 -62h-1v1q-32 33 -76 44.5t-89 11.5q-57 0 -107 -22.5t-87.5 -61
t-59.5 -89.5t-22 -107q0 -57 17.5 -106.5t49.5 -86t78.5 -58t105.5 -21.5q37 0 61 2.5t44 9t41.5 18t53.5 29.5l-1 139h-134l-2 2v87l4 1q57 0 112.5 -0.5t112.5 -0.5zM311 -92q0 25 16.5 41t40.5 16q26 0 41.5 -17t15.5 -43q0 -21 -8.5 -39t-22.5 -33t-31 -27t-33 -21
q10 12 21.5 35t11.5 39q0 8 -6.5 7.5t-11.5 -0.5q-16 0 -25 14t-9 28z" />
    <glyph glyph-name="gcommaaccent" unicode="&#x123;" horiz-adv-x="413" 
d="M99 216q0 -26 5 -49t17 -40t31.5 -27t48.5 -10q55 0 78.5 31t23.5 83q0 25 -4 49t-14.5 43t-29.5 30.5t-48 11.5q-59 0 -83.5 -33.5t-24.5 -88.5zM391 0q0 -93 -52.5 -147t-146.5 -54q-30 0 -51.5 3.5t-40.5 11t-37.5 19t-43.5 26.5l36 68q13 -7 31 -15.5t36.5 -16
t37.5 -12.5t34 -5q45 0 75.5 19t30.5 69v89q-7 -14 -18.5 -22.5t-25 -13.5t-28.5 -6.5t-29 -1.5q-49 0 -83.5 14.5t-56.5 41.5t-32 64.5t-10 83.5q0 97 45 151t146 54q29 0 51.5 -19t37.5 -42v44h94v-403zM248 517q0 -15 -14.5 -30.5t-29.5 -15.5q-22 0 -32.5 15t-10.5 35
q0 17 5 37t14.5 39t23 33.5t30.5 20.5q-8 -10 -10 -24t-2 -26q0 -13 1.5 -26.5t9.5 -24.5q9 -7 12 -14.5t3 -18.5z" />
    <glyph glyph-name="Hcircumflex" unicode="&#x124;" horiz-adv-x="568" 
d="M450 696h91v-696h-91v311h-330v-311h-93v690h92v-296h331v302v0zM429 736h-75l-65 91l-71 -91h-80l152 204l139 -204v0z" />
    <glyph glyph-name="hcircumflex" unicode="&#x125;" horiz-adv-x="499" 
d="M408 0q1 57 1 114v114q0 22 -6 42t-17.5 35.5t-29.5 24.5t-42 9q-23 0 -43 -9t-34.5 -24t-22.5 -35t-8 -43v-228h-80v748h82v-380q26 32 58.5 44.5t73.5 12.5q35 0 62.5 -14t46 -37t28.5 -53t10 -63v-258h-79zM306 768h-75l-65 91l-71 -91h-80l152 204z" />
    <glyph glyph-name="Hbar" unicode="&#x126;" horiz-adv-x="637" 
d="M31 518v61h31v111h92v-111h331v117h91v-117h30v-60h-30v-519h-91v311h-330v-311h-93v518h-31v0zM485 394v124h-331v-124h331v0z" />
    <glyph glyph-name="hbar" unicode="&#x127;" horiz-adv-x="512" 
d="M13 515v55h123v178h82v-178h126v-54l-126 -1v-147q26 32 58.5 44.5t73.5 12.5q35 0 62.5 -14t46 -37t28.5 -53t10 -63v-258h-79q1 57 1 114v114q0 22 -6 42t-17.5 35.5t-29.5 24.5t-42 9q-23 0 -43 -9t-34.5 -24t-22.5 -35t-8 -43v-228h-80v515h-123z" />
    <glyph glyph-name="Itilde" unicode="&#x128;" horiz-adv-x="246" 
d="M78 696h90v-696h-90v696zM80 785q-11 0 -16 -5t-7 -11.5t-1 -12t3 -6.5l-42 -19v1q-7 16 -7 30q0 15 6.5 26.5t17.5 20t24 13t27 4.5q22 0 33.5 -8t18.5 -17.5t13.5 -17.5t17.5 -8q10 0 15.5 5t7.5 11.5t1 12t-3 6.5l42 19v-1q7 -16 7 -30q0 -15 -6.5 -26.5t-17.5 -20
t-24.5 -13t-26.5 -4.5q-22 0 -33.5 8t-18.5 17.5t-13.5 17.5t-17.5 8z" />
    <glyph glyph-name="itilde" unicode="&#x129;" horiz-adv-x="263" 
d="M86 433h92v-433h-90zM87 521q-11 0 -16 -5t-7 -11.5t-1 -12t3 -6.5l-42 -19v1q-7 16 -7 30q0 15 6.5 26.5t17.5 20t24 13t27 4.5q22 0 33.5 -8t18.5 -17.5t13.5 -17.5t17.5 -8q10 0 15.5 5t7.5 11.5t1 12t-3 6.5l42 19v-1q7 -16 7 -30q0 -15 -6.5 -26.5t-17.5 -20
t-24.5 -13t-26.5 -4.5q-22 0 -33.5 8t-18.5 17.5t-13.5 17.5t-17.5 8z" />
    <glyph glyph-name="Imacron" unicode="&#x12a;" horiz-adv-x="339" 
d="M124 696h90v-696h-90v696v0zM4 779v55h331v-54l-331 -1v0z" />
    <glyph glyph-name="imacron" unicode="&#x12b;" horiz-adv-x="342" 
d="M126 433h92v-433h-90l-2 433v0zM5 515v55h331v-54l-331 -1v0z" />
    <glyph glyph-name="Ibreve" unicode="&#x12c;" horiz-adv-x="319" 
d="M114 696h90v-696h-90v696zM307 900q-5 -30 -16.5 -56.5t-30 -46t-44 -31t-58.5 -11.5q-65 0 -100.5 40t-45.5 100h58q4 -35 28 -58.5t60 -23.5q40 0 64 24.5t30 62.5h55z" />
    <glyph glyph-name="ibreve" unicode="&#x12d;" horiz-adv-x="324" 
d="M117 433h92v-433h-90zM309 636q-5 -30 -16.5 -56.5t-30 -46t-44 -31t-58.5 -11.5q-65 0 -100.5 40t-45.5 100h58q4 -35 28 -58.5t60 -23.5q40 0 64 24.5t30 62.5h55z" />
    <glyph glyph-name="Iogonek" unicode="&#x12e;" horiz-adv-x="185" 
d="M169 -160q-18 -16 -39 -16q-57 0 -84 30.5t-27 86.5q0 14 13 31.5t21 27.5h-1v696h90v-696h-37q-4 -5 -10 -12t-11.5 -15t-9.5 -16t-4 -14q0 -29 16 -42t44 -13q11 0 21 2t18 8v-58z" />
    <glyph glyph-name="iogonek" unicode="&#x12f;" horiz-adv-x="181" 
d="M167 -160q-18 -16 -39 -16q-57 0 -84 30.5t-27 86.5q0 14 13 31.5t21 27.5h-5l-1 422h92v-422h-34q-4 -5 -10 -12t-11.5 -15t-9.5 -16t-4 -14q0 -29 16 -42t44 -13q11 0 21 2t18 8v-58zM41 535q0 23 15.5 36.5t37.5 13.5t37 -13t15 -36t-15 -38t-38 -15t-37.5 14.5
t-14.5 37.5z" />
    <glyph glyph-name="Idotaccent" unicode="&#x130;" horiz-adv-x="160" 
d="M35 696h90v-696h-90v696zM22 827q0 26 16.5 42t42.5 16q24 0 40.5 -15.5t16.5 -40.5q0 -26 -16 -43.5t-42 -17.5t-42 16.5t-16 42.5z" />
    <glyph glyph-name="dotlessi" unicode="&#x131;" horiz-adv-x="166" 
d="M37 433h92v-433h-90l-2 433v0z" />
    <glyph glyph-name="IJ" unicode="&#x132;" horiz-adv-x="585" 
d="M249 72q36 -28 80 -28q39 0 64.5 16.5t40 43t20 59.5t5.5 65v472h91v-478q0 -54 -11.5 -102t-38 -83.5t-68.5 -56.5t-102 -21q-66 0 -122 34zM37 696h90v-696h-90v696z" />
    <glyph glyph-name="ij" unicode="&#x133;" horiz-adv-x="352" 
d="M21 535q0 23 15.5 36.5t37.5 13.5t37 -13t15 -36t-15 -38t-38 -15t-37.5 14.5t-14.5 37.5zM25 422h92v-422h-91zM215 535q0 23 15.5 36.5t37.5 13.5t37 -13t15 -36t-15 -38t-38 -15t-37.5 14.5t-14.5 37.5zM217 422h92v-538h-92v538z" />
    <glyph glyph-name="Jcircumflex" unicode="&#x134;" horiz-adv-x="460" 
d="M46 72q36 -28 80 -28q39 0 64.5 16.5t40 43t20 59.5t5.5 65v472h91v-478q0 -54 -11.5 -102t-38 -83.5t-68.5 -56.5t-102 -21q-66 0 -122 34zM447 768h-75l-65 91l-71 -91h-80l152 204z" />
    <glyph glyph-name="jcircumflex" unicode="&#x135;" horiz-adv-x="207" 
 />
    <glyph glyph-name="Kcommaaccent" unicode="&#x136;" horiz-adv-x="573" 
d="M391 686h113l-278 -324l338 -362h-115l-330 358v-358h-93v686h93v-325zM238 -92q0 25 16.5 41t40.5 16q26 0 41.5 -17t15.5 -43q0 -21 -8.5 -39t-22.5 -33t-31 -27t-33 -21q10 12 21.5 35t11.5 39q0 8 -6.5 7.5t-11.5 -0.5q-16 0 -25 14t-9 28z" />
    <glyph glyph-name="kcommaaccent" unicode="&#x137;" horiz-adv-x="456" 
d="M121 748v-510l186 186h118l-196 -197l226 -227h-118l-217 216v-216h-92v748h93zM166 -92q0 25 16.5 41t40.5 16q26 0 41.5 -17t15.5 -43q0 -21 -8.5 -39t-22.5 -33t-31 -27t-33 -21q10 12 21.5 35t11.5 39q0 8 -6.5 7.5t-11.5 -0.5q-16 0 -25 14t-9 28z" />
    <glyph glyph-name="kgreenlandic" unicode="&#x138;" horiz-adv-x="489" 
d="M131 427v-189l186 186h118l-196 -197l226 -227h-118l-217 216v-216h-92v427h93v0z" />
    <glyph glyph-name="Lacute" unicode="&#x139;" horiz-adv-x="411" 
d="M120 690v-605h283v-85h-376v691l93 -1v0zM316 843l-152 -121l-50 47l140 147l62 -73v0z" />
    <glyph glyph-name="lacute" unicode="&#x13a;" horiz-adv-x="224" 
d="M150 0h-89v782h89v-782v0zM214 937l-152 -121l-50 47l140 147l62 -73v0z" />
    <glyph glyph-name="Lcommaaccent" unicode="&#x13b;" horiz-adv-x="403" 
d="M120 690v-605h283v-85h-376v691zM158 -92q0 25 16.5 41t40.5 16q26 0 41.5 -17t15.5 -43q0 -21 -8.5 -39t-22.5 -33t-31 -27t-33 -21q10 12 21.5 35t11.5 39q0 8 -6.5 7.5t-11.5 -0.5q-16 0 -25 14t-9 28z" />
    <glyph glyph-name="lcommaaccent" unicode="&#x13c;" horiz-adv-x="161" 
d="M124 0h-89v782h89v-782zM30 -92q0 25 16.5 41t40.5 16q26 0 41.5 -17t15.5 -43q0 -21 -8.5 -39t-22.5 -33t-31 -27t-33 -21q10 12 21.5 35t11.5 39q0 8 -6.5 7.5t-11.5 -0.5q-16 0 -25 14t-9 28z" />
    <glyph glyph-name="Lcaron" unicode="&#x13d;" horiz-adv-x="423" 
d="M131 690v-605h283v-85h-376v691zM180 646q0 18 13.5 33.5t31.5 15.5q12 0 20 -6.5t13 -16.5t7 -21.5t2 -20.5q0 -14 -4.5 -32t-13 -34.5t-20 -30t-25.5 -19.5q5 12 6 26t1 27q0 23 -5 32t-10.5 14.5t-10.5 11t-5 21.5z" />
    <glyph glyph-name="lcaron" unicode="&#x13e;" horiz-adv-x="269" 
d="M127 0h-89v782h89v-782zM175 728q0 18 13.5 33.5t31.5 15.5q12 0 20 -6.5t13 -16.5t7 -21.5t2 -20.5q0 -14 -4.5 -32t-13 -34.5t-20 -30t-25.5 -19.5q5 12 6 26t1 27q0 23 -5 32t-10.5 14.5t-10.5 11t-5 21.5z" />
    <glyph glyph-name="Ldot" unicode="&#x13f;" horiz-adv-x="416" 
d="M131 690v-605h283v-85h-376v691zM170 365q0 26 16.5 42t42.5 16q24 0 40.5 -15.5t16.5 -40.5q0 -26 -16 -43.5t-42 -17.5t-42 16.5t-16 42.5z" />
    <glyph glyph-name="ldot" unicode="&#x140;" horiz-adv-x="269" 
d="M127 0h-89v782h89v-782zM164 423q0 23 15.5 36.5t37.5 13.5t37 -13t15 -36t-15 -38t-38 -15t-37.5 14.5t-14.5 37.5z" />
    <glyph glyph-name="Lslash" unicode="&#x141;" horiz-adv-x="453" 
d="M167 690v-303l92 45v-99l-92 -45v-203h283v-85h-376v243l-47 -23v99l47 23v349l93 -1v0z" />
    <glyph glyph-name="lslash" unicode="&#x142;" horiz-adv-x="207" 
d="M193 335l-43 -29v-306h-89v246l-47 -32v97l47 32v439h89v-379l43 29v-97v0z" />
    <glyph glyph-name="Nacute" unicode="&#x143;" horiz-adv-x="584" 
d="M360 917l62 -73l-152 -121l-50 47l140 147v0zM112 467v-464h-87v697l442 -496v492h88v-724l-443 495v0z" />
    <glyph glyph-name="nacute" unicode="&#x144;" horiz-adv-x="390" 
d="M282 0v226q0 21 -3.5 40.5t-12.5 35.5t-24.5 25.5t-40.5 9.5q-53 0 -74 -31.5t-21 -79.5v-226h-84v410h81v-57q9 38 34.5 56t63.5 18q47 0 78.5 -15.5t50.5 -43t27 -64t8 -78.5v-226h-83zM297 579l-152 -121l-50 47l140 147z" />
    <glyph glyph-name="Ncommaaccent" unicode="&#x145;" horiz-adv-x="583" 
d="M113 467v-464h-87v697l442 -496v492h88v-724zM234 -92q0 25 16.5 41t40.5 16q26 0 41.5 -17t15.5 -43q0 -21 -8.5 -39t-22.5 -33t-31 -27t-33 -21q10 12 21.5 35t11.5 39q0 8 -6.5 7.5t-11.5 -0.5q-16 0 -25 14t-9 28z" />
    <glyph glyph-name="ncommaaccent" unicode="&#x146;" horiz-adv-x="385" 
d="M282 0v226q0 21 -3.5 40.5t-12.5 35.5t-24.5 25.5t-40.5 9.5q-53 0 -74 -31.5t-21 -79.5v-226h-84v410h81v-57q9 38 34.5 56t63.5 18q47 0 78.5 -15.5t50.5 -43t27 -64t8 -78.5v-226h-83zM139 -92q0 25 16.5 41t40.5 16q26 0 41.5 -17t15.5 -43q0 -21 -8.5 -39t-22.5 -33
t-31 -27t-33 -21q10 12 21.5 35t11.5 39q0 8 -6.5 7.5t-11.5 -0.5q-16 0 -25 14t-9 28z" />
    <glyph glyph-name="Ncaron" unicode="&#x147;" horiz-adv-x="591" 
d="M117 467v-464h-87v697l442 -496v492h88v-724l-443 495v0zM302 647l-152 204h80l71 -91l65 91h75l-139 -204v0z" />
    <glyph glyph-name="ncaron" unicode="&#x148;" horiz-adv-x="402" 
d="M293 0v226q0 21 -3.5 40.5t-12.5 35.5t-24.5 25.5t-40.5 9.5q-53 0 -74 -31.5t-21 -79.5v-226h-84v410h81v-57q9 38 34.5 56t63.5 18q47 0 78.5 -15.5t50.5 -43t27 -64t8 -78.5v-226h-83zM191 482l-152 204h80l71 -91l65 91h75z" />
    <glyph glyph-name="napostrophe" unicode="&#x149;" horiz-adv-x="461" 
d="M364 0v226q0 21 -3.5 40.5t-12.5 35.5t-24.5 25.5t-40.5 9.5q-53 0 -74 -31.5t-21 -79.5v-226h-84v410h81v-57q9 38 34.5 56t63.5 18q47 0 78.5 -15.5t50.5 -43t27 -64t8 -78.5v-226h-83zM25 549q0 25 16.5 41t40.5 16q26 0 41.5 -17t15.5 -43q0 -21 -9 -39t-22.5 -33
t-30.5 -27t-33 -22q5 6 10.5 15.5t10.5 20.5t8.5 21.5t3.5 18.5t-7 7t-12 -1q-16 0 -24.5 14t-8.5 28z" />
    <glyph glyph-name="Omacron" unicode="&#x14c;" horiz-adv-x="747" 
d="M357 620q-57 0 -101.5 -21t-75 -57t-46 -84.5t-15.5 -102.5q0 -56 17 -106t49 -88t78 -60.5t105 -22.5q58 0 105.5 21t81 58t52 86.5t18.5 105.5q0 60 -19.5 109.5t-54.5 85.5t-84.5 56t-109.5 20zM363 704q78 0 145 -26.5t115.5 -74t76.5 -113.5t28 -145
q0 -78 -27.5 -143t-76 -112.5t-114.5 -73.5t-143 -26q-78 0 -142 27t-109.5 74.5t-70.5 113t-25 142.5t24 142.5t69 113t108.5 74.5t141.5 27zM208 779v55h331v-54z" />
    <glyph glyph-name="omacron" unicode="&#x14d;" horiz-adv-x="500" 
d="M251 357q-30 0 -56.5 -11t-46 -30t-30.5 -45t-11 -56q0 -66 35.5 -109.5t105.5 -43.5q68 0 108.5 41.5t40.5 109.5q0 65 -40.5 104.5t-105.5 39.5zM480 211q0 -51 -17.5 -92t-48.5 -70.5t-73.5 -45.5t-92.5 -16t-92 15.5t-72 45t-47 70.5t-17 92q0 50 18 91t49 70.5
t73.5 45.5t92.5 16q49 0 91 -16t72 -45t47 -70t17 -91zM86 515v55h331v-54z" />
    <glyph glyph-name="Obreve" unicode="&#x14e;" horiz-adv-x="749" 
d="M358 620q-57 0 -101.5 -21t-75 -57t-46 -84.5t-15.5 -102.5q0 -56 17 -106t49 -88t78 -60.5t105 -22.5q58 0 105.5 21t81 58t52 86.5t18.5 105.5q0 60 -19.5 109.5t-54.5 85.5t-84.5 56t-109.5 20zM364 704q78 0 145 -26.5t115.5 -74t76.5 -113.5t28 -145
q0 -78 -27.5 -143t-76 -112.5t-114.5 -73.5t-143 -26q-78 0 -142 27t-109.5 74.5t-70.5 113t-25 142.5t24 142.5t69 113t108.5 74.5t141.5 27zM522 900q-5 -30 -16.5 -56.5t-30 -46t-44 -31t-58.5 -11.5q-65 0 -100.5 40t-45.5 100h58q4 -35 28 -58.5t60 -23.5q40 0 64 24.5
t30 62.5h55z" />
    <glyph glyph-name="obreve" unicode="&#x14f;" horiz-adv-x="505" 
d="M253 357q-30 0 -56.5 -11t-46 -30t-30.5 -45t-11 -56q0 -66 35.5 -109.5t105.5 -43.5q68 0 108.5 41.5t40.5 109.5q0 65 -40.5 104.5t-105.5 39.5zM482 211q0 -51 -17.5 -92t-48.5 -70.5t-73.5 -45.5t-92.5 -16t-92 15.5t-72 45t-47 70.5t-17 92q0 50 18 91t49 70.5
t73.5 45.5t92.5 16q49 0 91 -16t72 -45t47 -70t17 -91zM403 632q-5 -30 -16.5 -56.5t-30 -46t-44 -31t-58.5 -11.5q-65 0 -100.5 40t-45.5 100h58q4 -35 28 -58.5t60 -23.5q40 0 64 24.5t30 62.5h55z" />
    <glyph glyph-name="Ohungarumlaut" unicode="&#x150;" horiz-adv-x="750" 
d="M358 620q-57 0 -101.5 -21t-75 -57t-46 -84.5t-15.5 -102.5q0 -56 17 -106t49 -88t78 -60.5t105 -22.5q58 0 105.5 21t81 58t52 86.5t18.5 105.5q0 60 -19.5 109.5t-54.5 85.5t-84.5 56t-109.5 20zM364 704q78 0 145 -26.5t115.5 -74t76.5 -113.5t28 -145
q0 -78 -27.5 -143t-76 -112.5t-114.5 -73.5t-143 -26q-78 0 -142 27t-109.5 74.5t-70.5 113t-25 142.5t24 142.5t69 113t108.5 74.5t141.5 27zM544 892l-96 -169l-64 25l75 189zM367 892l-96 -169l-64 25l75 189z" />
    <glyph glyph-name="ohungarumlaut" unicode="&#x151;" horiz-adv-x="505" 
d="M250 357q-30 0 -56.5 -11t-46 -30t-30.5 -45t-11 -56q0 -66 35.5 -109.5t105.5 -43.5q68 0 108.5 41.5t40.5 109.5q0 65 -40.5 104.5t-105.5 39.5zM479 211q0 -51 -17.5 -92t-48.5 -70.5t-73.5 -45.5t-92.5 -16t-92 15.5t-72 45t-47 70.5t-17 92q0 50 18 91t49 70.5
t73.5 45.5t92.5 16q49 0 91 -16t72 -45t47 -70t17 -91zM453 628l-96 -169l-64 25l75 189zM276 628l-96 -169l-64 25l75 189z" />
    <glyph glyph-name="OE" unicode="&#x152;" horiz-adv-x="873" 
d="M472 693h366v-85h-274v-196h196v-83h-196v-247h283v-82h-375v1q-50 -11 -97 -11q-78 0 -142 27t-109.5 74.5t-70.5 113t-25 142.5t24 142.5t69 113t108.5 74.5t141.5 27q51 0 101 -12v1zM365 620q-59 0 -104 -21.5t-75 -58.5t-45 -86.5t-15 -104.5q0 -54 18 -103.5
t50.5 -86.5t78.5 -59t103 -22q48 0 96 17v505q-52 20 -107 20z" />
    <glyph glyph-name="oe" unicode="&#x153;" horiz-adv-x="730" 
d="M399 165q11 -49 42.5 -72t80.5 -23q27 0 51.5 12t43.5 31l54 -54q-29 -37 -68.5 -53t-85.5 -16q-32 0 -64 7.5t-57 29.5q-32 -21 -66 -30.5t-72 -9.5q-50 0 -92 15.5t-72 45t-47 70.5t-17 92q0 50 18 91t49 70.5t73.5 45.5t92.5 16q38 0 76 -10.5t68 -35.5q25 17 54 24.5
t59 7.5q42 0 75.5 -16.5t57.5 -44t37 -64t13 -75.5q0 -14 -1 -27t-3 -27h-300zM261 357q-30 0 -56.5 -11t-46 -30t-30.5 -45t-11 -56q0 -66 35.5 -109.5t105.5 -43.5q23 0 45.5 5.5t42.5 18.5q-17 29 -23 55.5t-6 60.5q0 33 8 65t26 61v1q-20 15 -43 21.5t-47 6.5zM631 245
q-8 45 -36 71t-76 26t-77 -26t-41 -71h230z" />
    <glyph glyph-name="Racute" unicode="&#x154;" horiz-adv-x="517" 
d="M29 701h207q43 0 78.5 -13.5t61.5 -38.5t40.5 -60.5t14.5 -78.5q0 -51 -23.5 -97t-67.5 -72l164 -341h-101l-151 314q-32 -4 -65.5 -2.5t-65.5 1.5v-313h-89zM121 618v-224h109q24 0 43.5 9.5t33 26t20.5 37.5t7 44q0 45 -26 76t-73 31h-114zM326 843l-152 -121l-50 47
l140 147z" />
    <glyph glyph-name="racute" unicode="&#x155;" horiz-adv-x="304" 
d="M247 425q15 0 29 -4t27 -11l-36 -80q-12 3 -26 3q-42 0 -68.5 -17.5t-41.5 -46.5t-20.5 -65t-6.5 -73t1 -71.5t2 -59.5h-80v410h81v-64q1 17 17.5 31.5t38.5 25t45 16.5t38 6zM242 579l-152 -121l-50 47l140 147z" />
    <glyph glyph-name="Rcommaaccent" unicode="&#x156;" horiz-adv-x="513" 
d="M26 701h207q43 0 78.5 -13.5t61.5 -38.5t40.5 -60.5t14.5 -78.5q0 -51 -23.5 -97t-67.5 -72l164 -341h-101l-151 314q-32 -4 -65.5 -2.5t-65.5 1.5v-313h-89zM118 618v-224h109q24 0 43.5 9.5t33 26t20.5 37.5t7 44q0 45 -26 76t-73 31h-114zM203 -92q0 25 16.5 41
t40.5 16q26 0 41.5 -17t15.5 -43q0 -21 -8.5 -39t-22.5 -33t-31 -27t-33 -21q10 12 21.5 35t11.5 39q0 8 -6.5 7.5t-11.5 -0.5q-16 0 -25 14t-9 28z" />
    <glyph glyph-name="rcommaaccent" unicode="&#x157;" horiz-adv-x="310" 
d="M246 425q15 0 29 -4t27 -11l-36 -80q-12 3 -26 3q-42 0 -68.5 -17.5t-41.5 -46.5t-20.5 -65t-6.5 -73t1 -71.5t2 -59.5h-80v410h81v-64q1 17 17.5 31.5t38.5 25t45 16.5t38 6zM82 -92q0 25 16.5 41t40.5 16q26 0 41.5 -17t15.5 -43q0 -21 -8.5 -39t-22.5 -33t-31 -27
t-33 -21q10 12 21.5 35t11.5 39q0 8 -6.5 7.5t-11.5 -0.5q-16 0 -25 14t-9 28z" />
    <glyph glyph-name="Rcaron" unicode="&#x158;" horiz-adv-x="520" 
d="M31 701h207q43 0 78.5 -13.5t61.5 -38.5t40.5 -60.5t14.5 -78.5q0 -51 -23.5 -97t-67.5 -72l164 -341h-101l-151 314q-32 -4 -65.5 -2.5t-65.5 1.5v-313h-89zM123 618v-224h109q24 0 43.5 9.5t33 26t20.5 37.5t7 44q0 45 -26 76t-73 31h-114zM233 746l-152 204h80l71 -91
l65 91h75z" />
    <glyph glyph-name="rcaron" unicode="&#x159;" horiz-adv-x="336" 
d="M276 425q15 0 29 -4t27 -11l-36 -80q-12 3 -26 3q-42 0 -68.5 -17.5t-41.5 -46.5t-20.5 -65t-6.5 -73t1 -71.5t2 -59.5h-80v410h81v-64q1 17 17.5 31.5t38.5 25t45 16.5t38 6zM176 482l-152 204h80l71 -91l65 91h75z" />
    <glyph glyph-name="Sacute" unicode="&#x15a;" horiz-adv-x="489" 
d="M236 705q49 0 89 -7.5t80 -38.5l-46 -67q-29 20 -62.5 27t-67.5 7q-17 0 -33 -7.5t-28 -19.5t-19.5 -28t-7.5 -33q0 -38 24.5 -60.5t61.5 -39.5t80 -33t80 -40t61.5 -61t24.5 -97q0 -52 -20 -91.5t-53 -66.5t-77 -40.5t-92 -13.5q-59 0 -110.5 15t-103.5 42l18 97
q22 -10 46.5 -20.5t50 -19.5t51 -14.5t49.5 -5.5q25 0 51 8t47 23t34 37t13 50q0 40 -24.5 64.5t-61.5 41.5t-80.5 32t-80.5 37.5t-61.5 57.5t-24.5 91q0 40 16 72t42.5 54.5t61 35t72.5 12.5zM346 843l-152 -121l-50 47l140 147z" />
    <glyph glyph-name="sacute" unicode="&#x15b;" horiz-adv-x="348" 
d="M9 72l65 52q17 -24 42.5 -38t55.5 -14q26 0 43 11.5t17 40.5q0 19 -13.5 30t-33.5 20t-43 18.5t-43 26t-33.5 42t-13.5 66.5q0 24 10 43.5t26.5 33t37.5 20.5t44 7q35 0 70.5 -9t59.5 -38l-38 -57q-15 16 -36 22.5t-43 6.5q-20 0 -37 -10.5t-17 -32.5q0 -21 14.5 -32.5
t35.5 -20.5t46.5 -18t46.5 -24t35.5 -38.5t14.5 -61.5q0 -31 -12.5 -55t-33.5 -40t-48 -24.5t-55 -8.5q-51 0 -93 20t-71 62zM313 579l-152 -121l-50 47l140 147z" />
    <glyph glyph-name="Scircumflex" unicode="&#x15c;" horiz-adv-x="489" 
d="M236 705q49 0 89 -7.5t80 -38.5l-46 -67q-29 20 -62.5 27t-67.5 7q-17 0 -33 -7.5t-28 -19.5t-19.5 -28t-7.5 -33q0 -38 24.5 -60.5t61.5 -39.5t80 -33t80 -40t61.5 -61t24.5 -97q0 -52 -20 -91.5t-53 -66.5t-77 -40.5t-92 -13.5q-59 0 -110.5 15t-103.5 42l18 97
q22 -10 46.5 -20.5t50 -19.5t51 -14.5t49.5 -5.5q25 0 51 8t47 23t34 37t13 50q0 40 -24.5 64.5t-61.5 41.5t-80.5 32t-80.5 37.5t-61.5 57.5t-24.5 91q0 40 16 72t42.5 54.5t61 35t72.5 12.5zM391 759h-75l-65 91l-71 -91h-80l152 204z" />
    <glyph glyph-name="scircumflex" unicode="&#x15d;" horiz-adv-x="347" 
d="M15 72l65 52q17 -24 42.5 -38t55.5 -14q26 0 43 11.5t17 40.5q0 19 -13.5 30t-33.5 20t-43 18.5t-43 26t-33.5 42t-13.5 66.5q0 24 10 43.5t26.5 33t37.5 20.5t44 7q35 0 70.5 -9t59.5 -38l-38 -57q-15 16 -36 22.5t-43 6.5q-20 0 -37 -10.5t-17 -32.5q0 -21 14.5 -32.5
t35.5 -20.5t46.5 -18t46.5 -24t35.5 -38.5t14.5 -61.5q0 -31 -12.5 -55t-33.5 -40t-48 -24.5t-55 -8.5q-51 0 -93 20t-71 62zM318 495h-75l-65 91l-71 -91h-80l152 204z" />
    <glyph glyph-name="Scedilla" unicode="&#x15e;" horiz-adv-x="483" 
d="M214 -128q8 -10 19 -10t18.5 8t7.5 19q0 16 -12 21t-25 0v86q-57 0 -107 15t-101 41l18 97q22 -10 46.5 -20.5t50 -19.5t51 -14.5t49.5 -5.5q25 0 51 8t47 23t34 37t13 50q0 41 -24.5 65t-61.5 41t-80.5 32t-80.5 37.5t-61.5 57t-24.5 91.5q0 40 16 72t42.5 54.5t61 35
t72.5 12.5q49 0 89 -7.5t80 -38.5l-46 -67q-29 20 -62.5 27t-67.5 7q-18 0 -34 -8t-28 -20.5t-19 -29.5t-7 -35q0 -36 24.5 -57.5t61.5 -38t80 -32.5t80 -40t61.5 -61.5t24.5 -96.5q0 -45 -16 -82t-44 -64t-65.5 -43.5t-80.5 -20.5v-52q18 -9 29 -24.5t11 -35.5
q0 -30 -21.5 -49t-50.5 -19q-16 0 -29 7t-24 18z" />
    <glyph glyph-name="scedilla" unicode="&#x15f;" horiz-adv-x="342" 
d="M141 -128q8 -10 19 -10t18.5 8t7.5 19q0 17 -12 21.5t-25 -0.5v82q-87 8 -138 80l65 52q17 -24 42.5 -38t55.5 -14q26 0 43 11.5t17 40.5q0 19 -13.5 30t-33.5 20t-43 18.5t-43 26t-33.5 42t-13.5 66.5q0 24 10 43.5t26.5 33t37.5 20.5t44 7q35 0 70.5 -9t59.5 -38
l-38 -57q-16 17 -37 23t-43 6q-20 0 -36.5 -11t-16.5 -33q0 -20 14.5 -31.5t35.5 -20.5t46.5 -18t46.5 -24t35.5 -38.5t14.5 -61.5q0 -28 -11 -51t-29.5 -39.5t-42.5 -26t-50 -10.5v-46q18 -9 29 -24.5t11 -35.5q0 -30 -21.5 -49t-50.5 -19q-17 0 -29.5 6.5t-23.5 18.5z" />
    <glyph glyph-name="Scaron" unicode="&#x160;" horiz-adv-x="493" 
d="M238 705q49 0 89 -7.5t80 -38.5l-46 -67q-29 20 -62.5 27t-67.5 7q-17 0 -33 -7.5t-28 -19.5t-19.5 -28t-7.5 -33q0 -38 24.5 -60.5t61.5 -39.5t80 -33t80 -40t61.5 -61t24.5 -97q0 -52 -20 -91.5t-53 -66.5t-77 -40.5t-92 -13.5q-59 0 -110.5 15t-103.5 42l18 97
q22 -10 46.5 -20.5t50 -19.5t51 -14.5t49.5 -5.5q25 0 51 8t47 23t34 37t13 50q0 40 -24.5 64.5t-61.5 41.5t-80.5 32t-80.5 37.5t-61.5 57.5t-24.5 91q0 40 16 72t42.5 54.5t61 35t72.5 12.5zM254 746l-152 204h80l71 -91l65 91h75z" />
    <glyph glyph-name="scaron" unicode="&#x161;" horiz-adv-x="358" 
d="M21 72l65 52q17 -24 42.5 -38t55.5 -14q26 0 43 11.5t17 40.5q0 19 -13.5 30t-33.5 20t-43 18.5t-43 26t-33.5 42t-13.5 66.5q0 24 10 43.5t26.5 33t37.5 20.5t44 7q35 0 70.5 -9t59.5 -38l-38 -57q-15 16 -36 22.5t-43 6.5q-20 0 -37 -10.5t-17 -32.5q0 -21 14.5 -32.5
t35.5 -20.5t46.5 -18t46.5 -24t35.5 -38.5t14.5 -61.5q0 -31 -12.5 -55t-33.5 -40t-48 -24.5t-55 -8.5q-51 0 -93 20t-71 62zM185 482l-152 204h80l71 -91l65 91h75z" />
    <glyph glyph-name="Tcommaaccent" unicode="&#x162;" horiz-adv-x="474" 
d="M8 686h458v-77h-186v-609h-85v609h-187v77zM180 -92q0 25 16.5 41t40.5 16q26 0 41.5 -17t15.5 -43q0 -21 -8.5 -39t-22.5 -33t-31 -27t-33 -21q10 12 21.5 35t11.5 39q0 8 -6.5 7.5t-11.5 -0.5q-16 0 -25 14t-9 28z" />
    <glyph glyph-name="tcommaaccent" unicode="&#x163;" horiz-adv-x="219" 
d="M154 404h55v-90h-57v-314h-87v314h-54v90h57v192l86 31v-223zM53 -92q0 25 16.5 41t40.5 16q26 0 41.5 -17t15.5 -43q0 -21 -8.5 -39t-22.5 -33t-31 -27t-33 -21q10 12 21.5 35t11.5 39q0 8 -6.5 7.5t-11.5 -0.5q-16 0 -25 14t-9 28z" />
    <glyph glyph-name="Tcaron" unicode="&#x164;" horiz-adv-x="470" 
d="M6 686h458v-77h-186v-609h-85v609h-187v77v0zM242 746l-152 204h80l71 -91l65 91h75l-139 -204v0z" />
    <glyph glyph-name="tcaron" unicode="&#x165;" horiz-adv-x="287" 
d="M158 404h55v-90h-57v-314h-87v314h-54v90h57v192l86 31v-223zM188 617q0 18 13.5 33.5t31.5 15.5q12 0 20 -6.5t13 -16.5t7 -21.5t2 -20.5q0 -14 -4.5 -32t-13 -34.5t-20 -30t-25.5 -19.5q5 12 6 26t1 27q0 23 -5 32t-10.5 14.5t-10.5 11t-5 21.5z" />
    <glyph glyph-name="Tbar" unicode="&#x166;" horiz-adv-x="482" 
d="M75 374v55h124v180h-187v77h458v-77h-186v-180h122v-54l-122 -1v-374h-85v374h-124v0z" />
    <glyph glyph-name="tbar" unicode="&#x167;" horiz-adv-x="226" 
d="M158 404h55v-90h-57v-45h53v-76h-53v-193h-87v192h-54v77h54v45h-54v90h57v192l86 31v-223v0z" />
    <glyph glyph-name="Utilde" unicode="&#x168;" horiz-adv-x="537" 
d="M120 685v-419q0 -33 9.5 -65t28 -57t46.5 -40.5t65 -15.5t65 16t47 41.5t28 58t9 66.5l1 -2v414h91v-417q0 -56 -15.5 -104.5t-46 -84t-76 -56t-104.5 -20.5q-56 0 -100.5 21.5t-76 57.5t-48 84t-16.5 101v419zM227 785q-11 0 -16 -5t-7 -11.5t-1 -12t3 -6.5l-42 -19v1
q-7 16 -7 30q0 15 6.5 26.5t17.5 20t24 13t27 4.5q22 0 33.5 -8t18.5 -17.5t13.5 -17.5t17.5 -8q10 0 15.5 5t7.5 11.5t1 12t-3 6.5l42 19v-1q7 -16 7 -30q0 -15 -6.5 -26.5t-17.5 -20t-24.5 -13t-26.5 -4.5q-22 0 -33.5 8t-18.5 17.5t-13.5 17.5t-17.5 8z" />
    <glyph glyph-name="utilde" unicode="&#x169;" horiz-adv-x="400" 
d="M28 199v211h86v-220q0 -23 4 -45.5t14 -39.5t28 -27.5t45 -10.5q28 0 45 15.5t25.5 38t11 48.5t2.5 47v194h80v-410h-83v37q-6 -17 -18.5 -26t-28.5 -14t-33 -6t-31 -1q-45 0 -74 18.5t-45 48t-22 67t-6 75.5zM158 521q-11 0 -16 -5t-7 -11.5t-1 -12t3 -6.5l-42 -19v1
q-7 16 -7 30q0 15 6.5 26.5t17.5 20t24 13t27 4.5q22 0 33.5 -8t18.5 -17.5t13.5 -17.5t17.5 -8q10 0 15.5 5t7.5 11.5t1 12t-3 6.5l42 19v-1q7 -16 7 -30q0 -15 -6.5 -26.5t-17.5 -20t-24.5 -13t-26.5 -4.5q-22 0 -33.5 8t-18.5 17.5t-13.5 17.5t-17.5 8z" />
    <glyph glyph-name="Umacron" unicode="&#x16a;" horiz-adv-x="531" 
d="M117 685v-419q0 -33 9.5 -65t28 -57t46.5 -40.5t65 -15.5t65 16t47 41.5t28 58t9 66.5l1 -2v414h91v-417q0 -56 -15.5 -104.5t-46 -84t-76 -56t-104.5 -20.5q-56 0 -100.5 21.5t-76 57.5t-48 84t-16.5 101v419zM102 779v55h331v-54z" />
    <glyph glyph-name="umacron" unicode="&#x16b;" horiz-adv-x="396" 
d="M26 199v211h86v-220q0 -23 4 -45.5t14 -39.5t28 -27.5t45 -10.5q28 0 45 15.5t25.5 38t11 48.5t2.5 47v194h80v-410h-83v37q-6 -17 -18.5 -26t-28.5 -14t-33 -6t-31 -1q-45 0 -74 18.5t-45 48t-22 67t-6 75.5zM35 515v55h331v-54z" />
    <glyph glyph-name="Ubreve" unicode="&#x16c;" horiz-adv-x="537" 
d="M120 685v-419q0 -33 9.5 -65t28 -57t46.5 -40.5t65 -15.5t65 16t47 41.5t28 58t9 66.5l1 -2v414h91v-417q0 -56 -15.5 -104.5t-46 -84t-76 -56t-104.5 -20.5q-56 0 -100.5 21.5t-76 57.5t-48 84t-16.5 101v419zM418 900q-5 -30 -16.5 -56.5t-30 -46t-44 -31t-58.5 -11.5
q-65 0 -100.5 40t-45.5 100h58q4 -35 28 -58.5t60 -23.5q40 0 64 24.5t30 62.5h55z" />
    <glyph glyph-name="ubreve" unicode="&#x16d;" horiz-adv-x="403" 
d="M29 199v211h86v-220q0 -23 4 -45.5t14 -39.5t28 -27.5t45 -10.5q28 0 45 15.5t25.5 38t11 48.5t2.5 47v194h80v-410h-83v37q-6 -17 -18.5 -26t-28.5 -14t-33 -6t-31 -1q-45 0 -74 18.5t-45 48t-22 67t-6 75.5zM351 636q-5 -30 -16.5 -56.5t-30 -46t-44 -31t-58.5 -11.5
q-65 0 -100.5 40t-45.5 100h58q4 -35 28 -58.5t60 -23.5q40 0 64 24.5t30 62.5h55z" />
    <glyph glyph-name="Uring" unicode="&#x16e;" horiz-adv-x="516" 
d="M109 685v-419q0 -33 9.5 -65t28 -57t46.5 -40.5t65 -15.5t65 16t47 41.5t28 58t9 66.5l1 -2v414h91v-417q0 -56 -15.5 -104.5t-46 -84t-76 -56t-104.5 -20.5q-56 0 -100.5 21.5t-76 57.5t-48 84t-16.5 101v419zM285 1056q0 11 -7 17.5t-18 6.5t-17.5 -7t-6.5 -18t6.5 -18
t17.5 -7t18 7.5t7 18.5zM190 1054q0 30 20.5 47.5t49.5 17.5q27 0 48.5 -19.5t21.5 -47.5q0 -30 -21 -48.5t-50 -18.5q-30 0 -49.5 19t-19.5 50z" />
    <glyph glyph-name="uring" unicode="&#x16f;" horiz-adv-x="392" 
d="M24 199v211h86v-220q0 -23 4 -45.5t14 -39.5t28 -27.5t45 -10.5q28 0 45 15.5t25.5 38t11 48.5t2.5 47v194h80v-410h-83v37q-6 -17 -18.5 -26t-28.5 -14t-33 -6t-31 -1q-45 0 -74 18.5t-45 48t-22 67t-6 75.5zM223 530q0 11 -7 17.5t-18 6.5t-17.5 -7t-6.5 -18t6.5 -18
t17.5 -7t18 7.5t7 18.5zM128 528q0 30 20.5 47.5t49.5 17.5q27 0 48.5 -19.5t21.5 -47.5q0 -30 -21 -48.5t-50 -18.5q-30 0 -49.5 19t-19.5 50z" />
    <glyph glyph-name="Uhungarumlaut" unicode="&#x170;" horiz-adv-x="538" 
d="M120 685v-419q0 -33 9.5 -65t28 -57t46.5 -40.5t65 -15.5t65 16t47 41.5t28 58t9 66.5l1 -2v414h91v-417q0 -56 -15.5 -104.5t-46 -84t-76 -56t-104.5 -20.5q-56 0 -100.5 21.5t-76 57.5t-48 84t-16.5 101v419zM440 892l-96 -169l-64 25l75 189zM263 892l-96 -169l-64 25
l75 189z" />
    <glyph glyph-name="uhungarumlaut" unicode="&#x171;" horiz-adv-x="440" 
d="M25 199v211h86v-220q0 -23 4 -45.5t14 -39.5t28 -27.5t45 -10.5q28 0 45 15.5t25.5 38t11 48.5t2.5 47v194h80v-410h-83v37q-6 -17 -18.5 -26t-28.5 -14t-33 -6t-31 -1q-45 0 -74 18.5t-45 48t-22 67t-6 75.5zM416 628l-96 -169l-64 25l75 189zM239 628l-96 -169l-64 25
l75 189z" />
    <glyph glyph-name="Uogonek" unicode="&#x172;" horiz-adv-x="533" 
d="M113 685v-419q0 -33 9.5 -65t28 -57t46.5 -40.5t65 -15.5t65 16t47 41.5t28 58t9 66.5l1 -2v414h91v-417q0 -57 -11.5 -95t-28.5 -64.5t-37.5 -45t-37.5 -35.5t-28.5 -36t-11.5 -46q0 -29 16 -42t44 -13q11 0 21 2t18 8v-58q-18 -16 -39 -16q-57 0 -84 30.5t-27 86.5
q0 18 7 35t17 31q-28 -7 -60 -7q-56 0 -100.5 21.5t-76 57.5t-48 84t-16.5 101v419z" />
    <glyph glyph-name="uogonek" unicode="&#x173;" horiz-adv-x="421" 
d="M393 -160q-18 -16 -39 -16q-57 0 -84 30.5t-27 86.5q0 14 13 31.5t21 27.5h-3v37q-6 -17 -18.5 -26t-28.5 -14t-33 -6t-31 -1q-45 0 -74 18.5t-45 48t-22 67t-6 75.5v211h86v-220q0 -23 4 -45.5t14 -39.5t28 -27.5t45 -10.5q28 0 45 15.5t25.5 38t11 48.5t2.5 47v194h80
v-410h-28q-4 -5 -10 -12t-11.5 -15t-9.5 -16t-4 -14q0 -29 16 -42t44 -13q11 0 21 2t18 8v-58z" />
    <glyph glyph-name="Wcircumflex" unicode="&#x174;" horiz-adv-x="844" 
d="M426 370l-167 -391l-243 713l87 25l160 -490l144 332h32l143 -331l168 490l77 -26l-242 -711l-159 389v0zM570 646h-75l-65 91l-71 -91h-80l152 204l139 -204v0z" />
    <glyph glyph-name="wcircumflex" unicode="&#x175;" horiz-adv-x="603" 
d="M12 396l78 27l111 -250l100 223l101 -223l114 250l75 -27l-189 -429l-101 213l-100 -213l-189 429v0zM448 495h-75l-65 91l-71 -91h-80l152 204l139 -204v0z" />
    <glyph glyph-name="Ycircumflex" unicode="&#x176;" horiz-adv-x="586" 
d="M7 692l76 44l212 -318l212 318l72 -44l-234 -358v-331h-99v327h1l-240 362v0zM439 759h-75l-65 91l-71 -91h-80l152 204l139 -204v0z" />
    <glyph glyph-name="ycircumflex" unicode="&#x177;" horiz-adv-x="432" 
d="M169 72l-153 330l86 29l117 -255l128 256l79 -30l-287 -589h-105l135 259v0zM360 495h-75l-65 91l-71 -91h-80l152 204l139 -204v0z" />
    <glyph glyph-name="Ydieresis" unicode="&#x178;" horiz-adv-x="590" 
d="M9 692l76 44l212 -318l212 318l72 -44l-234 -358v-331h-99v327h1zM144 807q0 26 16.5 42t42.5 16q25 0 41 -15.5t16 -40.5q0 -26 -16 -43.5t-42 -17.5t-42 16.5t-16 42.5zM331 807q0 26 16.5 42t42.5 16q25 0 41 -15.5t16 -40.5q0 -26 -16 -43.5t-42 -17.5t-42 16.5
t-16 42.5z" />
    <glyph glyph-name="Zacute" unicode="&#x179;" horiz-adv-x="584" 
d="M100 682h470l-391 -594h384v-88h-555l407 602h-341l26 80v0zM453 843l-152 -121l-50 47l140 147l62 -73v0z" />
    <glyph glyph-name="zacute" unicode="&#x17a;" horiz-adv-x="421" 
d="M69 332l24 82h305l-222 -328h228v-86h-393l236 332h-178v0zM310 579l-152 -121l-50 47l140 147l62 -73v0z" />
    <glyph glyph-name="Zdotaccent" unicode="&#x17b;" horiz-adv-x="582" 
d="M101 682h470l-391 -594h384v-88h-555l407 602h-341zM267 806q0 26 16.5 42t42.5 16q24 0 40.5 -15.5t16.5 -40.5q0 -26 -16 -43.5t-42 -17.5t-42 16.5t-16 42.5z" />
    <glyph glyph-name="zdotaccent" unicode="&#x17c;" horiz-adv-x="424" 
d="M69 332l24 82h305l-222 -328h228v-86h-393l236 332h-178zM187 544q0 26 16.5 42t42.5 16q24 0 40.5 -15.5t16.5 -40.5q0 -26 -16 -43.5t-42 -17.5t-42 16.5t-16 42.5z" />
    <glyph glyph-name="Zcaron" unicode="&#x17d;" horiz-adv-x="589" 
d="M106 682h470l-391 -594h384v-88h-555l407 602h-341l26 80v0zM317 735l-152 204h80l71 -91l65 91h75l-139 -204v0z" />
    <glyph glyph-name="zcaron" unicode="&#x17e;" horiz-adv-x="432" 
d="M77 332l24 82h305l-222 -328h228v-86h-393l236 332h-178v0zM224 482l-152 204h80l71 -91l65 91h75l-139 -204v0z" />
    <glyph glyph-name="longs" unicode="&#x17f;" horiz-adv-x="258" 
d="M33 421q0 32 7.5 70.5t24.5 72t44.5 56t68.5 22.5q7 0 18.5 -0.5t23 -2.5t21 -6t14.5 -11l-48 -75l-17 9q-27 0 -42.5 -14t-23 -34.5t-9.5 -44.5t-2 -44v-419h-80v421z" />
    <glyph glyph-name="uni01F4" unicode="&#x1f4;" horiz-adv-x="668" 
d="M648 363v-247q-27 -38 -59.5 -63t-69.5 -39.5t-78.5 -20.5t-86.5 -6q-79 0 -142 28t-106.5 77t-67 115.5t-23.5 142.5q0 70 30 136t80.5 117t115.5 81.5t136 30.5q63 0 123.5 -19t108.5 -63l-62 -62h-1v1q-32 33 -76 44.5t-89 11.5q-57 0 -107 -22.5t-87.5 -61
t-59.5 -89.5t-22 -107q0 -57 17.5 -106.5t49.5 -86t78.5 -58t105.5 -21.5q37 0 61 2.5t44 9t41.5 18t53.5 29.5l-1 139h-134l-2 2v87l4 1q57 0 112.5 -0.5t112.5 -0.5zM415 950l62 -73l-152 -121l-50 47z" />
    <glyph glyph-name="uni01F5" unicode="&#x1f5;" horiz-adv-x="417" 
d="M244 656l62 -73l-152 -121l-50 47zM100 216q0 -26 5 -49t17 -40t31.5 -27t48.5 -10q55 0 78.5 31t23.5 83q0 25 -4 49t-14.5 43t-29.5 30.5t-48 11.5q-59 0 -83.5 -33.5t-24.5 -88.5zM392 0q0 -93 -52.5 -147t-146.5 -54q-30 0 -51.5 3.5t-40.5 11t-37.5 19t-43.5 26.5
l36 68q13 -7 31 -15.5t36.5 -16t37.5 -12.5t34 -5q45 0 75.5 19t30.5 69v89q-7 -14 -18.5 -22.5t-25 -13.5t-28.5 -6.5t-29 -1.5q-49 0 -83.5 14.5t-56.5 41.5t-32 64.5t-10 83.5q0 97 45 151t146 54q29 0 51.5 -19t37.5 -42v44h94v-403z" />
    <glyph glyph-name="AEacute" unicode="&#x1fc;" horiz-adv-x="777" 
d="M320 731l17 -38h416v-85h-379l87 -196h214v-83h-177l109 -247h155v-82h-118l-85 -37l-96 212h-275l-94 -212l-82 37l308 731v0zM425 266l-104 248l-97 -248h201v0zM504 843l-152 -121l-50 47l140 147l62 -73v0z" />
    <glyph glyph-name="aeacute" unicode="&#x1fd;" horiz-adv-x="686" 
d="M364 165q11 -49 42.5 -72t80.5 -23q27 0 51.5 12t43.5 31l54 -54q-29 -37 -68.5 -53t-85.5 -16q-49 0 -84.5 15t-66.5 54q-29 -30 -66 -49.5t-80 -19.5q-35 0 -65.5 7t-53.5 22.5t-36.5 42t-13.5 65.5q0 38 14.5 66.5t39.5 47t57 28t67 9.5q30 0 52 -15t36 -41
q0 22 -1.5 44.5t-9 41t-23.5 30t-45 11.5q-23 0 -46 -7.5t-43 -18.5l-31 66q28 18 59.5 28t64.5 10q41 0 77.5 -15t56.5 -53q28 31 65 45.5t79 14.5t75.5 -16.5t57.5 -44t37 -64t13 -75.5q0 -14 -1 -27t-3 -27h-300zM284 132q0 20 -9.5 33.5t-24 22t-32 12t-33.5 3.5
q-37 0 -64.5 -16.5t-27.5 -57.5q0 -20 8 -32.5t21.5 -19.5t29.5 -9.5t33 -2.5q15 0 32.5 3.5t32 11t24.5 20.5t10 32zM596 245q-8 45 -36 71t-76 26t-77 -26t-41 -71h230zM444 579l-152 -121l-50 47l140 147z" />
    <glyph glyph-name="Oslashacute" unicode="&#x1fe;" horiz-adv-x="746" 
d="M158 4h-122l73 92q-89 111 -89 254q0 76 24 141t69 112.5t108 74t141 26.5q51 0 100.5 -11.5t93.5 -38.5l32 40h115l-75 -95q48 -55 73 -117t25 -136q0 -78 -27 -143.5t-75 -113t-114 -73.5t-144 -26q-50 0 -95 10.5t-88 35.5zM356 620q-58 0 -102.5 -21.5t-75 -58
t-46 -85t-15.5 -103.5q0 -96 55 -177l327 408q-33 19 -69 28t-74 9zM364 78q59 0 107 21t82.5 57.5t53 86t18.5 107.5q0 46 -14 91t-43 82l-326 -412q27 -17 58.5 -25t63.5 -8zM474 843l-152 -121l-50 47l140 147z" />
    <glyph glyph-name="oslashacute" unicode="&#x1ff;" horiz-adv-x="499" 
d="M121 0h-103l49 58q-27 31 -39.5 70.5t-12.5 81.5q0 50 18 91t49 70.5t73.5 45.5t92.5 16q29 0 57 -5.5t54 -19.5l21 25h97l-57 -70q29 -29 42 -70.5t13 -81.5q0 -51 -17.5 -92t-48.5 -70.5t-73.5 -45.5t-92.5 -16q-29 0 -58 5.5t-55 18.5zM243 62q68 0 108.5 41.5
t40.5 109.5q0 23 -5.5 45t-19.5 41l-186 -226q31 -11 62 -11zM246 357q-30 0 -56.5 -11t-46 -30t-30.5 -45t-11 -56q0 -50 20 -90l185 221q-14 6 -29.5 8.5t-31.5 2.5zM380 579l-152 -121l-50 47l140 147z" />
    <glyph glyph-name="Scommaaccent" unicode="&#x218;" horiz-adv-x="482" 
d="M232 705q49 0 89 -7.5t80 -38.5l-46 -67q-29 20 -62.5 27t-67.5 7q-17 0 -33 -7.5t-28 -19.5t-19.5 -28t-7.5 -33q0 -38 24.5 -60.5t61.5 -39.5t80 -33t80 -40t61.5 -61t24.5 -97q0 -52 -20 -91.5t-53 -66.5t-77 -40.5t-92 -13.5q-59 0 -110.5 15t-103.5 42l18 97
q22 -10 46.5 -20.5t50 -19.5t51 -14.5t49.5 -5.5q25 0 51 8t47 23t34 37t13 50q0 40 -24.5 64.5t-61.5 41.5t-80.5 32t-80.5 37.5t-61.5 57.5t-24.5 91q0 40 16 72t42.5 54.5t61 35t72.5 12.5zM203 -92q0 25 16.5 41t40.5 16q26 0 41.5 -17t15.5 -43q0 -21 -8.5 -39
t-22.5 -33t-31 -27t-33 -21q10 12 21.5 35t11.5 39q0 8 -6.5 7.5t-11.5 -0.5q-16 0 -25 14t-9 28z" />
    <glyph glyph-name="scommaaccent" unicode="&#x219;" horiz-adv-x="339" 
d="M11 72l65 52q17 -24 42.5 -38t55.5 -14q26 0 43 11.5t17 40.5q0 19 -13.5 30t-33.5 20t-43 18.5t-43 26t-33.5 42t-13.5 66.5q0 24 10 43.5t26.5 33t37.5 20.5t44 7q35 0 70.5 -9t59.5 -38l-38 -57q-15 16 -36 22.5t-43 6.5q-20 0 -37 -10.5t-17 -32.5q0 -21 14.5 -32.5
t35.5 -20.5t46.5 -18t46.5 -24t35.5 -38.5t14.5 -61.5q0 -31 -12.5 -55t-33.5 -40t-48 -24.5t-55 -8.5q-51 0 -93 20t-71 62zM111 -92q0 25 16.5 41t40.5 16q26 0 41.5 -17t15.5 -43q0 -21 -8.5 -39t-22.5 -33t-31 -27t-33 -21q10 12 21.5 35t11.5 39q0 8 -6.5 7.5
t-11.5 -0.5q-16 0 -25 14t-9 28z" />
    <glyph glyph-name="dotlessj" unicode="&#x237;" horiz-adv-x="166" 
d="M38 422h92v-538h-92v538v0z" />
    <glyph glyph-name="circumflex" unicode="&#x2c6;" horiz-adv-x="317" 
d="M303 495h-75l-65 91l-71 -91h-80l152 204l139 -204v0z" />
    <glyph glyph-name="caron" unicode="&#x2c7;" horiz-adv-x="313" 
d="M162 482l-152 204h80l71 -91l65 91h75l-139 -204v0z" />
    <glyph glyph-name="breve" unicode="&#x2d8;" horiz-adv-x="341" 
d="M318 636q-5 -30 -16.5 -56.5t-30 -46t-44 -31t-58.5 -11.5q-65 0 -100.5 40t-45.5 100h58q4 -35 28 -58.5t60 -23.5q40 0 64 24.5t30 62.5h55z" />
    <glyph glyph-name="dotaccent" unicode="&#x2d9;" horiz-adv-x="165" 
d="M24 166q0 26 16.5 42t42.5 16q24 0 40.5 -15.5t16.5 -40.5q0 -26 -16 -43.5t-42 -17.5t-42 16.5t-16 42.5z" />
    <glyph glyph-name="ring" unicode="&#x2da;" horiz-adv-x="190" 
d="M120 529q0 11 -7 17.5t-18 6.5t-17.5 -7t-6.5 -18t6.5 -18t17.5 -7t18 7.5t7 18.5zM25 527q0 30 20.5 47.5t49.5 17.5q27 0 48.5 -19.5t21.5 -47.5q0 -30 -21 -48.5t-50 -18.5q-30 0 -49.5 19t-19.5 50z" />
    <glyph glyph-name="ogonek" unicode="&#x2db;" horiz-adv-x="187" 
d="M174 -160q-18 -16 -39 -16q-57 0 -84 30.5t-27 86.5q0 14 13 31.5t21 27.5h52q-4 -5 -10 -12t-11.5 -15t-9.5 -16t-4 -14q0 -29 16 -42t44 -13q11 0 21 2t18 8v-58z" />
    <glyph glyph-name="tilde" unicode="&#x2dc;" horiz-adv-x="286" 
d="M100 521q-11 0 -16 -5t-7 -11.5t-1 -12t3 -6.5l-42 -19v1q-7 16 -7 30q0 15 6.5 26.5t17.5 20t24 13t27 4.5q22 0 33.5 -8t18.5 -17.5t13.5 -17.5t17.5 -8q10 0 15.5 5t7.5 11.5t1 12t-3 6.5l42 19v-1q7 -16 7 -30q0 -15 -6.5 -26.5t-17.5 -20t-24.5 -13t-26.5 -4.5
q-22 0 -33.5 8t-18.5 17.5t-13.5 17.5t-17.5 8z" />
    <glyph glyph-name="hungarumlaut" unicode="&#x2dd;" horiz-adv-x="382" 
d="M361 628l-96 -169l-64 25l75 189l85 -45v0zM184 628l-96 -169l-64 25l75 189l85 -45v0z" />
    <glyph glyph-name="uni030A" unicode="&#x30a;" horiz-adv-x="190" 
d="M121 792q0 11 -7 17.5t-18 6.5t-17.5 -7t-6.5 -18t6.5 -18t17.5 -7t18 7.5t7 18.5zM26 790q0 30 20.5 47.5t49.5 17.5q27 0 48.5 -19.5t21.5 -47.5q0 -30 -21 -48.5t-50 -18.5q-30 0 -49.5 19t-19.5 50z" />
    <glyph glyph-name="Wgrave" unicode="&#x1e80;" horiz-adv-x="847" 
d="M428 370l-167 -391l-243 713l87 25l160 -490l144 332h32l143 -331l168 490l77 -26l-242 -711l-159 389v0zM388 824l140 -147l-50 -47l-152 121l62 73v0z" />
    <glyph glyph-name="wgrave" unicode="&#x1e81;" horiz-adv-x="603" 
d="M13 396l78 27l111 -250l100 223l101 -223l114 250l75 -27l-189 -429l-101 213l-100 -213l-189 429v0zM265 671l140 -147l-50 -47l-152 121l62 73v0z" />
    <glyph glyph-name="Wacute" unicode="&#x1e82;" horiz-adv-x="846" 
d="M427 370l-167 -391l-243 713l87 25l160 -490l144 332h32l143 -331l168 490l77 -26l-242 -711l-159 389v0zM527 752l-152 -121l-50 47l140 147l62 -73v0z" />
    <glyph glyph-name="wacute" unicode="&#x1e83;" horiz-adv-x="604" 
d="M12 396l78 27l111 -250l100 223l101 -223l114 250l75 -27l-189 -429l-101 213l-100 -213l-189 429v0zM404 579l-152 -121l-50 47l140 147l62 -73v0z" />
    <glyph glyph-name="Wdieresis" unicode="&#x1e84;" horiz-adv-x="851" 
d="M430 370l-167 -391l-243 713l87 25l160 -490l144 332h32l143 -331l168 490l77 -26l-242 -711zM277 699q0 26 16.5 42t42.5 16q25 0 41 -15.5t16 -40.5q0 -26 -16 -43.5t-42 -17.5t-42 16.5t-16 42.5zM464 699q0 26 16.5 42t42.5 16q25 0 41 -15.5t16 -40.5
q0 -26 -16 -43.5t-42 -17.5t-42 16.5t-16 42.5z" />
    <glyph glyph-name="wdieresis" unicode="&#x1e85;" horiz-adv-x="612" 
d="M16 396l78 27l111 -250l100 223l101 -223l114 250l75 -27l-189 -429l-101 213l-100 -213zM155 543q0 26 16.5 42t42.5 16q25 0 41 -15.5t16 -40.5q0 -26 -16 -43.5t-42 -17.5t-42 16.5t-16 42.5zM342 543q0 26 16.5 42t42.5 16q25 0 41 -15.5t16 -40.5q0 -26 -16 -43.5
t-42 -17.5t-42 16.5t-16 42.5z" />
    <glyph glyph-name="germandblS" unicode="&#x1e9e;" horiz-adv-x="610" 
d="M36 471q0 39 9 78.5t29.5 71t53 51.5t79.5 20h329l-144 -272q192 -16 192 -211q0 -59 -16.5 -101t-48 -69t-76.5 -39.5t-101 -12.5q-46 0 -88.5 15t-79.5 41l48 68q29 -17 60.5 -28.5t65.5 -11.5t62.5 7.5t48.5 24t31 42t11 62.5q0 57 -18 88.5t-49 46t-72 17t-86 2.5
l134 254h-189q-34 0 -54.5 -10.5t-32 -28.5t-15 -43t-3.5 -55v-478h-80v471z" />
    <glyph glyph-name="Ygrave" unicode="&#x1ef2;" horiz-adv-x="586" 
d="M7 692l76 44l212 -318l212 318l72 -44l-234 -358v-331h-99v327h1l-240 362v0zM254 935l140 -147l-50 -47l-152 121l62 73v0z" />
    <glyph glyph-name="ygrave" unicode="&#x1ef3;" horiz-adv-x="433" 
d="M172 72l-153 330l86 29l117 -255l128 256l79 -30l-287 -589h-105l135 259v0zM144 671l140 -147l-50 -47l-152 121l62 73v0z" />
    <glyph glyph-name="endash" unicode="&#x2013;" horiz-adv-x="465" 
d="M427 222h-389v81h389v-81v0z" />
    <glyph glyph-name="emdash" unicode="&#x2014;" horiz-adv-x="712" 
d="M674 222h-636v81h636v-81v0z" />
    <glyph glyph-name="quoteleft" unicode="&#x2018;" horiz-adv-x="121" 
d="M103 612q0 -15 -14.5 -30.5t-29.5 -15.5q-22 0 -32.5 15t-10.5 35q0 17 5 37t14.5 39t23 33.5t30.5 20.5q-8 -10 -10 -24t-2 -26q0 -13 1.5 -26.5t9.5 -24.5q9 -7 12 -14.5t3 -18.5z" />
    <glyph glyph-name="quoteright" unicode="&#x2019;" horiz-adv-x="120" 
d="M15 690q0 18 13.5 33.5t31.5 15.5q12 0 20 -6.5t13 -16.5t7 -21.5t2 -20.5q0 -14 -4.5 -32t-13 -34.5t-20 -30t-25.5 -19.5q5 12 6 26t1 27q0 23 -5 32t-10.5 14.5t-10.5 11t-5 21.5z" />
    <glyph glyph-name="quotesinglbase" unicode="&#x201a;" horiz-adv-x="147" 
d="M19 69q0 25 16.5 41t40.5 16q26 0 41.5 -17t15.5 -43q0 -21 -8.5 -39t-22.5 -33t-31 -27t-33 -21q10 12 21.5 35t11.5 39q0 8 -6.5 7.5t-11.5 -0.5q-16 0 -25 14t-9 28z" />
    <glyph glyph-name="quotedblleft" unicode="&#x201c;" horiz-adv-x="264" 
d="M237 622q0 -19 -13 -36t-33 -17t-31 15t-11 34q0 17 5 37t14.5 39t23 33.5t30.5 20.5q-8 -11 -10 -25t-2 -27q0 -21 4 -32t9.5 -17.5t9.5 -11t4 -13.5zM114 612q0 -15 -14.5 -30.5t-29.5 -15.5q-22 0 -32.5 15t-10.5 35q0 17 5 37t14.5 39t23 33.5t30.5 20.5
q-8 -10 -10 -24t-2 -26q0 -13 1.5 -26.5t9.5 -24.5q9 -7 12 -14.5t3 -18.5z" />
    <glyph glyph-name="quotedblright" unicode="&#x201d;" horiz-adv-x="277" 
d="M161 693q0 19 13 33.5t33 14.5q12 0 20.5 -6.5t13 -16t6.5 -20.5t2 -21q0 -15 -4.5 -32.5t-13 -34t-20 -30t-25.5 -20.5q5 12 6 26t1 27q0 23 -5 33t-11 15t-11 11t-5 21zM27 690q0 18 13.5 33.5t31.5 15.5q12 0 20 -6.5t13 -16.5t7 -21.5t2 -20.5q0 -14 -4.5 -32
t-13 -34.5t-20 -30t-25.5 -19.5q5 12 6 26t1 27q0 23 -5 32t-10.5 14.5t-10.5 11t-5 21.5z" />
    <glyph glyph-name="quotedblbase" unicode="&#x201e;" horiz-adv-x="305" 
d="M165 69q0 25 16.5 41t40.5 16q26 0 41.5 -17t15.5 -43q0 -21 -8.5 -39t-22.5 -33t-31 -27t-33 -21q10 12 21.5 35t11.5 39q0 8 -6.5 7.5t-11.5 -0.5q-16 0 -25 14t-9 28zM27 69q0 25 16.5 41t40.5 16q26 0 41.5 -17t15.5 -43q0 -21 -8.5 -39t-22.5 -33t-31 -27t-33 -21
q10 12 21.5 35t11.5 39q0 8 -6.5 7.5t-11.5 -0.5q-16 0 -25 14t-9 28z" />
    <glyph glyph-name="ellipsis" unicode="&#x2026;" horiz-adv-x="626" 
d="M35 60q0 26 16.5 42t42.5 16q24 0 40.5 -15.5t16.5 -40.5q0 -26 -16 -43.5t-42 -17.5t-42 16.5t-16 42.5zM255 60q0 26 16.5 42t42.5 16q24 0 40.5 -15.5t16.5 -40.5q0 -26 -16 -43.5t-42 -17.5t-42 16.5t-16 42.5zM475 60q0 26 16.5 42t42.5 16q24 0 40.5 -15.5
t16.5 -40.5q0 -26 -16 -43.5t-42 -17.5t-42 16.5t-16 42.5z" />
    <glyph glyph-name="Euro" unicode="&#x20ac;" horiz-adv-x="519" 
d="M488 187v-97q-35 -25 -76 -36.5t-84 -11.5q-51 0 -89 17.5t-66.5 48t-47.5 70.5t-31 85h-79l20 70h51q4 14 5 29.5t1 29.5h-70l19 70h51q9 50 28 90.5t48 68.5t70 43t94 15q42 0 80 -17t70 -43v-95q-28 31 -63.5 51.5t-78.5 20.5q-69 0 -112 -34t-60 -100h265l-29 -70
h-244v-59h251l-29 -70h-217q10 -30 25.5 -56t36 -45.5t47.5 -30.5t61 -11q44 0 82.5 19t70.5 48z" />
    <glyph glyph-name="roundr" unicode="&#xa75b;" horiz-adv-x="271" 
d="M25 200q40 0 64.5 19.5t24.5 61.5q0 40 -26.5 55.5t-62.5 15.5v82q36 0 66 -9.5t51.5 -28.5t34 -47t12.5 -65q0 -41 -17.5 -78.5t-52.5 -60.5l145 -145h-118l-121 120v80z" />
    <glyph glyph-name="t_z" unicode="&#xe23a;" horiz-adv-x="390" 
d="M375 424v-80l-62 -99q32 -29 44.5 -67t12.5 -80q0 -51 -23.5 -89.5t-63.5 -67.5h-103q20 15 38.5 33.5t32.5 40t22.5 45.5t8.5 50q0 40 -20 74.5t-48 60.5l63 99h-118v-344h-84v344h-56v80h56v172l86 31v-203h214z" />
    <glyph glyph-name="t_z" unicode="&#xeedc;" horiz-adv-x="390" 
d="M375 424v-80l-62 -99q32 -29 44.5 -67t12.5 -80q0 -51 -23.5 -89.5t-63.5 -67.5h-103q20 15 38.5 33.5t32.5 40t22.5 45.5t8.5 50q0 40 -20 74.5t-48 60.5l63 99h-118v-344h-84v344h-56v80h56v172l86 31v-203h214z" />
    <glyph glyph-name="longs_h" unicode="&#xeba1;" horiz-adv-x="617" 
d="M514 0v226q0 21 -3.5 40.5t-12.5 35.5t-24.5 25.5t-40.5 9.5q-53 0 -74 -31.5t-21 -79.5v-226h-84v568h-45q-37 0 -55.5 -15t-26 -39t-8 -53.5t-0.5 -57.5l-3 -403h-81l4 403q0 47 7 90t26 76t53.5 53t90.5 20l119 -1v-288q9 38 34.5 56t63.5 18q47 0 78.5 -15.5
t50.5 -43t27 -64t8 -78.5v-226h-83z" />
    <glyph glyph-name="longs_i" unicode="&#xeba2;" horiz-adv-x="380" 
d="M337 476h-79q0 30 -12 52.5t-46 22.5t-51.5 -13.5t-25 -35t-8 -48t-0.5 -51.5v-403h-81v403q0 41 7 82.5t25 74.5t50 54t82 21q38 0 64.5 -11.5t43 -32.5t24 -50t7.5 -65zM254 422h92v-422h-91z" />
    <glyph glyph-name="longs_l" unicode="&#xeba3;" horiz-adv-x="371" 
d="M333 641v-641h-81v568h-45q-37 0 -55.5 -15t-26 -39t-8 -53.5t-0.5 -57.5l-3 -403h-81l4 403q0 47 7 90t26 76t53.5 53t90.5 20z" />
    <glyph glyph-name="longs_longs" unicode="&#xeba6;" horiz-adv-x="497" 
d="M194 551q-29 0 -44.5 -15.5t-23 -38t-9 -48t-1.5 -46.5v-403h-81v403q0 41 7 82.5t25 74.5t50 54t82 21q31 0 60 -10t49 -36q19 21 43 37t53 16q7 0 18.5 -0.5t23 -2.5t21 -6t14.5 -11l-48 -75l-17 9q-27 0 -42.5 -14t-23 -34.5t-9.5 -44.5t-2 -44v-419h-80v464
q0 16 -3 31.5t-10.5 28t-20 20t-31.5 7.5z" />
    <glyph glyph-name="longs_longs_i" unicode="&#xeba7;" horiz-adv-x="602" 
d="M558 476h-79q0 30 -12 52.5t-46 22.5t-51.5 -13.5t-25 -35t-8 -48t-0.5 -51.5v-403h-81v479q0 29 -13.5 50.5t-45.5 21.5q-33 0 -49.5 -14t-23 -35.5t-6.5 -48v-50.5v-403h-81v403q0 41 7 82.5t25 74.5t50 54t82 21q31 0 60 -10t48 -36q46 46 111 46q38 0 64.5 -11.5
t43 -32.5t24 -50t7.5 -65zM475 422h92v-422h-91z" />
    <glyph glyph-name="longs_longs_l" unicode="&#xeba8;" horiz-adv-x="595" 
d="M557 641v-641h-81v568h-45q-37 0 -55.5 -15t-26 -39t-8 -53.5t-0.5 -57.5l-3 -403h-81l2 480q0 30 -12.5 50.5t-45.5 20.5q-34 0 -51.5 -13.5t-25 -35t-8 -48t-0.5 -51.5v-403h-81v403q0 41 7 82.5t25 74.5t50 54t82 21q31 0 60.5 -10t48.5 -36q26 29 59 41t71 12z" />
    <glyph glyph-name="c_k" unicode="&#xeec4;" horiz-adv-x="861" 
d="M16 209q0 46 13.5 87t39.5 72.5t63.5 50t86.5 18.5q40 0 80.5 -10t69.5 -39l-46 -66q-21 23 -49 28t-57 5t-51 -13.5t-37 -35.5t-22.5 -48.5t-7.5 -51.5q0 -26 8.5 -49.5t23.5 -41.5t37 -29t49 -11t55 3t50 21l44 -66q-17 -16 -33 -25t-33.5 -13t-36.5 -4.5t-41 -0.5
q-45 0 -83 18t-65.5 48t-42.5 69.5t-15 83.5zM514 748v-510l186 186h118l-196 -197l226 -227h-118l-217 216v-216h-92v748h93z" />
    <glyph glyph-name="f_j" unicode="&#xeec9;" horiz-adv-x="401" 
d="M366 476h-79q0 30 -12 52.5t-46 22.5q-33 0 -49.5 -14t-24 -35.5t-8 -48t-0.5 -50.5h219v-513h-80v433h-142v-323h-81v325h-50v78h54q0 40 6 81.5t23.5 75t49 54.5t81.5 21q38 0 64.5 -11.5t43 -32.5t24 -50t7.5 -65z" />
    <glyph glyph-name="f_t" unicode="&#xeecb;" horiz-adv-x="478" 
d="M400 404h55v-81h-57v-323h-87v323h-158v-323h-80v325h-50v78h54q0 33 5.5 74t20.5 78t42.5 62t71.5 25q20 0 40 -3.5t37 -16.5l-48 -75l-17 9q-30 0 -45.5 -15.5t-22 -39t-6.5 -50v-47.5h159v192l86 31v-223z" />
    <glyph glyph-name="f_f_t" unicode="&#xeece;" horiz-adv-x="739" 
d="M326 403q0 33 5.5 74t20.5 78t42.5 62t71.5 25q20 0 40 -3.5t37 -16.5l-48 -75l-17 9q-30 0 -45.5 -16t-22 -39t-6.5 -50v-48l166 1v192l86 31v-223h55v-81h-57v-323h-87v323h-165v-323h-80v323h-164v-323h-80v325h-50v78h54q0 33 5.5 74t20.5 78t42.5 62t71.5 25
q20 0 40 -3.5t37 -16.5l-48 -75l-17 9q-30 0 -45.5 -16t-22 -39t-6.5 -50v-48h166z" />
    <glyph glyph-name="t_t" unicode="&#xeed9;" horiz-adv-x="439" 
d="M166 404h109v192l86 31v-223h55v-90h-57v-314h-87v314h-108v-314h-87v314h-54v90h57v192l86 31v-223v0z" />
    <glyph glyph-name="c_h" unicode="&#xf1bb;" horiz-adv-x="794" 
d="M15 209q0 46 13.5 87t39.5 72.5t63.5 50t86.5 18.5q40 0 80.5 -10t69.5 -39l-46 -66q-21 23 -49 28t-57 5t-51 -13.5t-37 -35.5t-22.5 -48.5t-7.5 -51.5q0 -26 8.5 -49.5t23.5 -41.5t37 -29t49 -11t55 3t50 21l44 -66q-17 -16 -33 -25t-33.5 -13t-36.5 -4.5t-41 -0.5
q-45 0 -83 18t-65.5 48t-42.5 69.5t-15 83.5zM694 0q1 57 1 114v114q0 22 -6 42t-17.5 35.5t-29.5 24.5t-42 9q-23 0 -43 -9t-34.5 -24t-22.5 -35t-8 -43v-228h-80v748h82v-380q26 32 58.5 44.5t73.5 12.5q35 0 62.5 -14t46 -37t28.5 -53t10 -63v-258h-79z" />
    <glyph glyph-name="l_l" unicode="&#xf4f9;" horiz-adv-x="359" 
d="M127 0h-89v782h89v-782v0zM321 0h-89v782h89v-782v0z" />
    <glyph glyph-name="l_l" unicode="&#xf6c0;" horiz-adv-x="359" 
d="M127 0h-89v782h89v-782v0zM321 0h-89v782h89v-782v0z" />
    <glyph glyph-name="longs_c_h" unicode="&#xf4fa;" horiz-adv-x="948" 
d="M28 421q0 32 7.5 70.5t24.5 72t44.5 56t68.5 22.5q7 0 18.5 -0.5t23 -2.5t21 -6t14.5 -11l-48 -75l-17 9q-27 0 -42.5 -14t-23 -34.5t-9.5 -44.5t-2 -44v-419h-80v421zM166 209q0 46 13.5 87t39.5 72.5t63.5 50t86.5 18.5q40 0 80.5 -10t69.5 -39l-46 -66q-21 23 -49 28
t-57 5t-51 -13.5t-37 -35.5t-22.5 -48.5t-7.5 -51.5q0 -26 8.5 -49.5t23.5 -41.5t37 -29t49 -11t55 3t50 21l44 -66q-17 -16 -33 -25t-33.5 -13t-36.5 -4.5t-41 -0.5q-45 0 -83 18t-65.5 48t-42.5 69.5t-15 83.5zM845 0q1 57 1 114v114q0 22 -6 42t-17.5 35.5t-29.5 24.5
t-42 9q-23 0 -43 -9t-34.5 -24t-22.5 -35t-8 -43v-228h-80v748h82v-380q26 32 58.5 44.5t73.5 12.5q35 0 62.5 -14t46 -37t28.5 -53t10 -63v-258h-79z" />
    <glyph glyph-name="longs_j" unicode="&#xf4fb;" horiz-adv-x="370" 
d="M327 476h-79q0 30 -12 52.5t-46 22.5t-51.5 -13.5t-25 -35t-8 -48t-0.5 -51.5v-403h-81v403q0 41 7 82.5t25 74.5t50 54t82 21q38 0 64.5 -11.5t43 -32.5t24 -50t7.5 -65zM244 422h92v-529h-91z" />
    <glyph glyph-name="longs_k" unicode="&#xf4fc;" horiz-adv-x="680" 
d="M336 238l186 186h118l-196 -197l226 -227h-118l-216 215v-215h-81v568h-45q-37 0 -55.5 -15t-26 -39t-8 -53.5t-0.5 -57.5l-3 -403h-81l4 403q0 47 7 90t26 76t53.5 53t90.5 20l119 -1v-403z" />
    <glyph glyph-name="longs_s" unicode="&#xf4fd;" horiz-adv-x="480" 
d="M35 421q0 32 7.5 70.5t24.5 72t44.5 56t68.5 22.5q7 0 18.5 -0.5t23 -2.5t21 -6t14.5 -11l-48 -75l-17 9q-27 0 -42.5 -14t-23 -34.5t-9.5 -44.5t-2 -44v-419h-80v421zM155 72l65 52q17 -24 42.5 -38t55.5 -14q26 0 43 11.5t17 40.5q0 19 -13.5 30t-33.5 20t-43 18.5
t-43 26t-33.5 42t-13.5 66.5q0 24 10 43.5t26.5 33t37.5 20.5t44 7q35 0 70.5 -9t59.5 -38l-38 -57q-15 16 -36 22.5t-43 6.5q-20 0 -37 -10.5t-17 -32.5q0 -21 14.5 -32.5t35.5 -20.5t46.5 -18t46.5 -24t35.5 -38.5t14.5 -61.5q0 -31 -12.5 -55t-33.5 -40t-48 -24.5
t-55 -8.5q-51 0 -93 20t-71 62z" />
    <glyph glyph-name="longs_longs_k" unicode="&#xf4fe;" horiz-adv-x="908" 
d="M558 238l186 186h118l-196 -197l226 -227h-118l-216 215v-215h-81v568h-45q-37 0 -55.5 -15t-26 -39t-8 -53.5t-0.5 -57.5l-3 -403h-81l2 476q0 30 -12 52.5t-46 22.5t-51.5 -13.5t-25 -35t-8 -48t-0.5 -51.5v-403h-81v403q0 41 7 82.5t25 74.5t50 54t82 21
q31 0 60.5 -10t48.5 -36q26 29 59 41t71 12l119 -1v-403z" />
    <glyph glyph-name="longs_longs_t" unicode="&#xf4ff;" horiz-adv-x="658" 
d="M430 642h149v-218h51v-85h-52v-339h-89v340h-46v84h50v146h-51q-32 0 -50.5 -14.5t-28 -36.5t-12 -49t-2.5 -51v-419h-86l-3 476q0 30 -12 52.5t-46 22.5t-51.5 -13.5t-25 -35t-8 -48t-0.5 -51.5v-403h-81v403q0 41 7 82.5t25 74.5t50 54t82 21q33 0 62.5 -11t49.5 -40
q23 26 53 42t65 16z" />
    <glyph glyph-name="commaaccent" unicode="&#xf6c3;" horiz-adv-x="147" 
d="M19 -92q0 25 16.5 41t40.5 16q26 0 41.5 -17t15.5 -43q0 -21 -8.5 -39t-22.5 -33t-31 -27t-33 -21q10 12 21.5 35t11.5 39q0 8 -6.5 7.5t-11.5 -0.5q-16 0 -25 14t-9 28z" />
    <glyph glyph-name="cyrbreve" unicode="&#xf6d4;" horiz-adv-x="341" 
d="M318 762q-5 -30 -16.5 -56.5t-30 -46t-44 -31t-58.5 -11.5q-65 0 -100.5 40t-45.5 100h58q4 -35 28 -58.5t60 -23.5q40 0 64 24.5t30 62.5h55z" />
    <glyph glyph-name="cyrflex" unicode="&#xf6d5;" horiz-adv-x="317" 
d="M303 530h-75l-65 91l-71 -91h-80l152 204l139 -204v0z" />
    <glyph glyph-name="dblgrave" unicode="&#xf6d6;" horiz-adv-x="382" 
d="M283 703l75 -189l-64 -25l-96 169l85 45v0zM106 703l75 -189l-64 -25l-96 169l85 45v0z" />
    <glyph glyph-name="dieresisacute" unicode="&#xf6d7;" horiz-adv-x="503" 
d="M15 578q0 26 16.5 42t42.5 16q25 0 41 -15.5t16 -40.5q0 -26 -16 -43.5t-42 -17.5t-42 16.5t-16 42.5zM371 580q0 26 16.5 42t42.5 16q25 0 41 -15.5t16 -40.5q0 -26 -16 -43.5t-42 -17.5t-42 16.5t-16 42.5zM212 680l140 -147l-50 -47l-152 121z" />
    <glyph glyph-name="dieresisgrave" unicode="&#xf6d8;" horiz-adv-x="503" 
d="M353 597l-152 -121l-50 47l140 147zM132 570q0 -26 -16 -42.5t-42 -16.5t-42 17.5t-16 43.5q0 25 16 40.5t41 15.5q26 0 42.5 -16t16.5 -42zM488 568q0 -26 -16 -42.5t-42 -16.5t-42 17.5t-16 43.5q0 25 16 40.5t41 15.5q26 0 42.5 -16t16.5 -42z" />
    <glyph glyph-name="ff" unicode="&#xfb00;" horiz-adv-x="545" 
d="M310 403q0 33 5.5 74t20.5 78t42.5 62t71.5 25q20 0 40 -3.5t37 -16.5l-48 -75l-17 9q-30 0 -45.5 -16t-22 -39t-6.5 -50v-48h66v-80h-68v-323h-80v325l-151 -2v-323h-80v325h-50v78h54q0 33 5.5 74t20.5 78t42.5 62t71.5 25q20 0 40 -3.5t37 -16.5l-48 -75l-17 9
q-30 0 -45.5 -16t-22 -39t-6.5 -50v-48h153z" />
    <glyph glyph-name="fi" unicode="&#xfb01;" horiz-adv-x="408" 
d="M373 476h-79q0 30 -12 52.5t-46 22.5q-33 0 -49.5 -14t-24 -35.5t-8 -48t-0.5 -50.5h219v-403h-80v323h-142v-323h-81v325h-50v78h54q0 40 6 81.5t23.5 75t49 54.5t81.5 21q38 0 64.5 -11.5t43 -32.5t24 -50t7.5 -65z" />
    <glyph glyph-name="fl" unicode="&#xfb02;" horiz-adv-x="442" 
d="M404 641v-641h-81v568h-78q-37 0 -56 -15.5t-26.5 -39.5t-7.5 -53v-57h103v-80h-106v-323h-81v325h-50v78h54q0 46 7 89.5t26 76.5t53.5 53t90.5 20z" />
    <glyph glyph-name="ffi" unicode="&#xfb03;" horiz-adv-x="650" 
d="M615 476h-79q0 30 -12 52.5t-46 22.5q-33 0 -49.5 -14t-24 -35.5t-8 -48t-0.5 -50.5h219v-403h-80v323h-142v-323h-81v323h-156v-323h-80v325h-50v78h54q0 33 5.5 74t20.5 78t42.5 62t71.5 25q20 0 40 -3.5t37 -16.5l-48 -75l-17 9q-30 0 -45.5 -16t-22 -39t-6.5 -50v-48
h158q0 40 6 81.5t23.5 75t49 54.5t81.5 21q38 0 64.5 -11.5t43 -32.5t24 -50t7.5 -65z" />
    <glyph glyph-name="ffl" unicode="&#xfb04;" horiz-adv-x="695" 
d="M81 403q0 33 5.5 74t20.5 78t42.5 62t71.5 25q20 0 40 -3.5t37 -16.5l-48 -75l-17 9q-30 0 -45.5 -16t-22 -39t-6.5 -50v-48h169q0 46 7 89.5t26 76.5t53.5 53t90.5 20l152 -1v-641h-81v568h-78q-37 0 -56 -15.5t-26.5 -39.5t-7.5 -53v-57h103v-80h-106v-323h-81v323
h-167v-323h-80v325h-50v78h54z" />
    <glyph glyph-name="longs_t" unicode="&#xfb05;" horiz-adv-x="426" 
d="M203 642h149v-218h51v-85h-52v-339h-89v340h-46v84h50v146h-51q-32 0 -50.5 -14.5t-28 -36.5t-12 -49t-2.5 -51v-419h-86l-2 421q0 37 10.5 76.5t31.5 71.5t52.5 52.5t74.5 20.5z" />
    <glyph glyph-name="f_f_j" horiz-adv-x="637" 
d="M601 476h-79q0 30 -12 52.5t-46 22.5q-33 0 -49.5 -14t-24 -35.5t-8 -48t-0.5 -50.5h219v-567h-80v487h-142v-323h-81v323h-156v-323h-80v325h-50v78h54q0 33 5.5 74t20.5 78t42.5 62t71.5 25q20 0 40 -3.5t37 -16.5l-48 -75l-17 9q-30 0 -45.5 -16t-22 -39t-6.5 -50v-48
h158q0 40 6 81.5t23.5 75t49 54.5t81.5 21q38 0 64.5 -11.5t43 -32.5t24 -50t7.5 -65z" />
    <glyph glyph-name="undercommaaccent" horiz-adv-x="147" 
d="M19 -92q0 25 16.5 41t40.5 16q26 0 41.5 -17t15.5 -43q0 -21 -8.5 -39t-22.5 -33t-31 -27t-33 -21q10 12 21.5 35t11.5 39q0 8 -6.5 7.5t-11.5 -0.5q-16 0 -25 14t-9 28z" />
    <glyph glyph-name="Eacute.001" horiz-adv-x="413" 
d="M255 902l62 -73l-152 -121l-50 47l140 147v0zM28 693h366v-85h-274v-196h196v-83h-196v-247h283v-82h-375v693v0z" />
    </font>
</defs>
</svg>
